<svg xmlns="http://www.w3.org/2000/svg" xmlns:xlink="http://www.w3.org/1999/xlink" version="1.2" width="57.29mm" height="14.84mm" viewBox="8.5358 -0.0000 32.6006 8.4450">
<style text="style/css">
<![CDATA[
tspan { white-space: pre; }
]]>
</style>
<line transform="translate(8.5358, 6.0000)" stroke-linejoin="round" stroke-linecap="round" stroke-width="0.1000" stroke="currentColor" x1="0.0500" y1="-0.0000" x2="32.6006" y2="-0.0000"/>
<line transform="translate(8.5358, 5.0000)" stroke-linejoin="round" stroke-linecap="round" stroke-width="0.1000" stroke="currentColor" x1="0.0500" y1="-0.0000" x2="32.6006" y2="-0.0000"/>
<line transform="translate(8.5358, 4.0000)" stroke-linejoin="round" stroke-linecap="round" stroke-width="0.1000" stroke="currentColor" x1="0.0500" y1="-0.0000" x2="32.6006" y2="-0.0000"/>
<line transform="translate(8.5358, 3.0000)" stroke-linejoin="round" stroke-linecap="round" stroke-width="0.1000" stroke="currentColor" x1="0.0500" y1="-0.0000" x2="32.6006" y2="-0.0000"/>
<line transform="translate(8.5358, 2.0000)" stroke-linejoin="round" stroke-linecap="round" stroke-width="0.1000" stroke="currentColor" x1="0.0500" y1="-0.0000" x2="32.6006" y2="-0.0000"/>
<rect transform="translate(33.0792, 4.0000)" x="-0.0650" y="-2.5000" width="0.1300" height="3.3139" ry="0.0400" fill="currentColor"/>
<path transform="translate(32.4921, 6.9000) scale(0.0040, -0.0040)" d="M112 0c7 0 13 -5 13 -12c0 -2 0 -4 -1 -6l-113 -250c-2 -4 -6 -7 -11 -7s-9 3 -11 7l-113 250c-1 2 -1 4 -1 6c0 7 6 12 13 12h66c5 0 10 -3 12 -7l68 -150l67 150c2 4 6 7 11 7z" fill="currentColor"/>
<path transform="translate(32.4921, 6.5000) scale(0.0040, -0.0040)" d="M-50 0c0 28 22 50 50 50s50 -22 50 -50s-22 -50 -50 -50s-50 22 -50 50z" fill="currentColor"/>
<g class="note">
<path transform="translate(31.8400, 5.0000) scale(0.0040, -0.0040)" d="M218 136c55 0 108 -28 108 -89c0 -71 -55 -121 -102 -149c-35 -21 -75 -34 -116 -34c-55 0 -108 28 -108 89c0 71 55 121 102 149c35 21 75 34 116 34z" fill="currentColor"/>
</g>
<rect transform="translate(29.8269, 4.0000)" x="-0.0650" y="-1.5000" width="0.1300" height="3.3139" ry="0.0400" fill="currentColor"/>
<path transform="translate(29.2398, 7.3450) scale(0.0040, -0.0040)" d="M112 0c7 0 13 -5 13 -12c0 -2 0 -4 -1 -6l-113 -250c-2 -4 -6 -7 -11 -7s-9 3 -11 7l-113 250c-1 2 -1 4 -1 6c0 7 6 12 13 12h66c5 0 10 -3 12 -7l68 -150l67 150c2 4 6 7 11 7z" fill="currentColor"/>
<path transform="translate(29.2398, 6.9450) scale(0.0040, -0.0040)" d="M-50 0c0 28 22 50 50 50s50 -22 50 -50s-22 -50 -50 -50s-50 22 -50 50z" fill="currentColor"/>
<g class="note">
<path transform="translate(28.5877, 6.0000) scale(0.0040, -0.0040)" d="M218 136c55 0 108 -28 108 -89c0 -71 -55 -121 -102 -149c-35 -21 -75 -34 -116 -34c-55 0 -108 28 -108 89c0 71 55 121 102 149c35 21 75 34 116 34z" fill="currentColor"/>
</g>
<rect transform="translate(26.0973, 4.0000)" x="-0.0650" y="-1.3139" width="0.1300" height="3.3139" ry="0.0400" fill="currentColor"/>
<path transform="translate(26.6844, 1.0200) scale(0.0040, -0.0040)" d="M130 -20h-260c-11 0 -20 9 -20 20s9 20 20 20h260c11 0 20 -9 20 -20s-9 -20 -20 -20z" fill="currentColor"/>
<path transform="translate(26.6844, 1.5000) scale(0.0040, -0.0040)" d="M-50 0c0 28 22 50 50 50s50 -22 50 -50s-22 -50 -50 -50s-50 22 -50 50z" fill="currentColor"/>
<g class="note">
<path transform="translate(26.0323, 2.5000) scale(0.0040, -0.0040)" d="M218 136c55 0 108 -28 108 -89c0 -71 -55 -121 -102 -149c-35 -21 -75 -34 -116 -34c-55 0 -108 28 -108 89c0 71 55 121 102 149c35 21 75 34 116 34z" fill="currentColor"/>
</g>
<rect transform="translate(38.2492, 4.0000)" x="-0.0650" y="-1.3139" width="0.1300" height="3.3139" ry="0.0400" fill="currentColor"/>
<path transform="translate(38.8363, 1.1000) scale(0.0040, -0.0040)" d="M-112 0c-7 0 -13 5 -13 12c0 2 0 4 1 6l113 250c2 4 6 7 11 7s9 -3 11 -7l113 -250c1 -2 1 -4 1 -6c0 -7 -6 -12 -13 -12h-66c-5 0 -10 3 -12 7l-68 150l-67 -150c-2 -4 -6 -7 -11 -7z" fill="currentColor"/>
<path transform="translate(38.8363, 1.5000) scale(0.0040, -0.0040)" d="M-50 0c0 28 22 50 50 50s50 -22 50 -50s-22 -50 -50 -50s-50 22 -50 50z" fill="currentColor"/>
<g class="note">
<path transform="translate(38.1842, 2.5000) scale(0.0040, -0.0040)" d="M218 136c55 0 108 -28 108 -89c0 -71 -55 -121 -102 -149c-35 -21 -75 -34 -116 -34c-55 0 -108 28 -108 89c0 71 55 121 102 149c35 21 75 34 116 34z" fill="currentColor"/>
</g>
<rect transform="translate(34.9969, 4.0000)" x="-0.0650" y="0.1861" width="0.1300" height="3.1472" ry="0.0400" fill="currentColor"/>
<path transform="translate(35.5840, 1.5000) scale(0.0040, -0.0040)" d="M-112 0c-7 0 -13 5 -13 12c0 2 0 4 1 6l113 250c2 4 6 7 11 7s9 -3 11 -7l113 -250c1 -2 1 -4 1 -6c0 -7 -6 -12 -13 -12h-66c-5 0 -10 3 -12 7l-68 150l-67 -150c-2 -4 -6 -7 -11 -7z" fill="currentColor"/>
<path transform="translate(35.5840, 2.5000) scale(0.0040, -0.0040)" d="M-50 0c0 28 22 50 50 50s50 -22 50 -50s-22 -50 -50 -50s-50 22 -50 50z" fill="currentColor"/>
<g class="note">
<path transform="translate(34.9319, 4.0000) scale(0.0040, -0.0040)" d="M218 136c55 0 108 -28 108 -89c0 -71 -55 -121 -102 -149c-35 -21 -75 -34 -116 -34c-55 0 -108 28 -108 89c0 71 55 121 102 149c35 21 75 34 116 34z" fill="currentColor"/>
</g>
<rect transform="translate(17.6750, 4.0000)" x="-0.0650" y="-1.5000" width="0.1300" height="3.3139" ry="0.0400" fill="currentColor"/>
<g class="keySig">
<path transform="translate(12.8358, 2.0000) scale(0.0040, -0.0040)" d="M216 -312c0 -10 -8 -19 -18 -19s-19 9 -19 19v145l-83 -31v-158c0 -10 -9 -19 -19 -19s-18 9 -18 19v145l-32 -12c-2 -1 -5 -1 -7 -1c-11 0 -20 9 -20 20v60c0 8 5 16 13 19l46 16v160l-32 -11c-2 -1 -5 -1 -7 -1c-11 0 -20 9 -20 20v60c0 8 5 15 13 18l46 17v158
c0 10 8 19 18 19s19 -9 19 -19v-145l83 31v158c0 10 9 19 19 19s18 -9 18 -19v-145l32 12c2 1 5 1 7 1c11 0 20 -9 20 -20v-60c0 -8 -5 -16 -13 -19l-46 -16v-160l32 11c2 1 5 1 7 1c11 0 20 -9 20 -20v-60c0 -8 -5 -15 -13 -18l-46 -17v-158zM96 65v-160l83 30v160z" fill="currentColor"/>
</g>
<g class="clef">
<path transform="translate(9.3358, 5.0000) scale(0.0040, -0.0040)" d="M376 262c4 0 9 1 13 1c155 0 256 -128 256 -261c0 -76 -33 -154 -107 -210c-22 -17 -47 -28 -73 -36c3 -35 5 -70 5 -105c0 -19 -1 -39 -2 -58c-7 -120 -90 -228 -208 -228c-108 0 -195 88 -195 197c0 58 53 103 112 103c54 0 95 -47 95 -103c0 -52 -43 -95 -95 -95
c-11 0 -21 2 -31 6c26 -39 68 -65 117 -65c96 0 157 92 163 191c1 18 2 37 2 55c0 31 -1 61 -4 92c-29 -5 -58 -8 -89 -8c-188 0 -333 172 -333 374c0 177 131 306 248 441c-19 62 -37 125 -45 190c-6 52 -7 104 -7 156c0 115 55 224 149 292c3 2 7 3 10 3c4 0 7 0 10 -3
c71 -84 133 -245 133 -358c0 -143 -86 -255 -180 -364c21 -68 39 -138 56 -207zM461 -203c68 24 113 95 113 164c0 90 -66 179 -173 190c24 -116 46 -231 60 -354zM74 28c0 -135 129 -247 264 -247c28 0 55 2 82 6c-14 127 -37 245 -63 364c-79 -8 -124 -61 -124 -119
c0 -44 25 -91 81 -123c5 -5 7 -10 7 -15c0 -11 -10 -22 -22 -22c-3 0 -6 1 -9 2c-80 43 -117 115 -117 185c0 88 58 174 160 197c-14 58 -29 117 -46 175c-107 -121 -213 -243 -213 -403zM408 1045c-99 -48 -162 -149 -162 -259c0 -74 18 -133 36 -194
c80 97 146 198 146 324c0 55 -4 79 -20 129z" fill="currentColor"/>
</g>
<path transform="translate(17.0879, 7.4250) scale(0.0040, -0.0040)" d="M130 -20h-260c-11 0 -20 9 -20 20s9 20 20 20h260c11 0 20 -9 20 -20s-9 -20 -20 -20z" fill="currentColor"/>
<path transform="translate(17.0879, 6.9450) scale(0.0040, -0.0040)" d="M-50 0c0 28 22 50 50 50s50 -22 50 -50s-22 -50 -50 -50s-50 22 -50 50z" fill="currentColor"/>
<g class="note">
<path transform="translate(16.4358, 6.0000) scale(0.0040, -0.0040)" d="M218 136c55 0 108 -28 108 -89c0 -71 -55 -121 -102 -149c-35 -21 -75 -34 -116 -34c-55 0 -108 28 -108 89c0 71 55 121 102 149c35 21 75 34 116 34z" fill="currentColor"/>
</g>
<rect transform="translate(22.8450, 4.0000)" x="-0.0650" y="0.1861" width="0.1300" height="3.1472" ry="0.0400" fill="currentColor"/>
<path transform="translate(23.4321, 1.5000) scale(0.0040, -0.0040)" d="M130 -20h-260c-11 0 -20 9 -20 20s9 20 20 20h260c11 0 20 -9 20 -20s-9 -20 -20 -20z" fill="currentColor"/>
<path transform="translate(23.4321, 2.5000) scale(0.0040, -0.0040)" d="M-50 0c0 28 22 50 50 50s50 -22 50 -50s-22 -50 -50 -50s-50 22 -50 50z" fill="currentColor"/>
<g class="note">
<path transform="translate(22.7800, 4.0000) scale(0.0040, -0.0040)" d="M218 136c55 0 108 -28 108 -89c0 -71 -55 -121 -102 -149c-35 -21 -75 -34 -116 -34c-55 0 -108 28 -108 89c0 71 55 121 102 149c35 21 75 34 116 34z" fill="currentColor"/>
</g>
<rect transform="translate(20.9273, 4.0000)" x="-0.0650" y="-2.5000" width="0.1300" height="3.3139" ry="0.0400" fill="currentColor"/>
<path transform="translate(20.3402, 6.9800) scale(0.0040, -0.0040)" d="M130 -20h-260c-11 0 -20 9 -20 20s9 20 20 20h260c11 0 20 -9 20 -20s-9 -20 -20 -20z" fill="currentColor"/>
<path transform="translate(20.3402, 6.5000) scale(0.0040, -0.0040)" d="M-50 0c0 28 22 50 50 50s50 -22 50 -50s-22 -50 -50 -50s-50 22 -50 50z" fill="currentColor"/>
<g class="note">
<path transform="translate(19.6881, 5.0000) scale(0.0040, -0.0040)" d="M218 136c55 0 108 -28 108 -89c0 -71 -55 -121 -102 -149c-35 -21 -75 -34 -116 -34c-55 0 -108 28 -108 89c0 71 55 121 102 149c35 21 75 34 116 34z" fill="currentColor"/>
</g>
</svg>
