<svg xmlns="http://www.w3.org/2000/svg" xmlns:xlink="http://www.w3.org/1999/xlink" version="1.2" width="104.33mm" height="14.08mm" viewBox="8.5358 0.0369 59.3681 8.0145">
<style text="style/css">
<![CDATA[
tspan { white-space: pre; }
]]>
</style>
<line transform="translate(8.5358, 6.5013)" stroke-linejoin="round" stroke-linecap="round" stroke-width="0.1000" stroke="currentColor" x1="0.0500" y1="-0.0000" x2="59.3181" y2="-0.0000"/>
<line transform="translate(8.5358, 5.5013)" stroke-linejoin="round" stroke-linecap="round" stroke-width="0.1000" stroke="currentColor" x1="0.0500" y1="-0.0000" x2="59.3181" y2="-0.0000"/>
<line transform="translate(8.5358, 4.5013)" stroke-linejoin="round" stroke-linecap="round" stroke-width="0.1000" stroke="currentColor" x1="0.0500" y1="-0.0000" x2="59.3181" y2="-0.0000"/>
<line transform="translate(8.5358, 3.5013)" stroke-linejoin="round" stroke-linecap="round" stroke-width="0.1000" stroke="currentColor" x1="0.0500" y1="-0.0000" x2="59.3181" y2="-0.0000"/>
<line transform="translate(8.5358, 2.5013)" stroke-linejoin="round" stroke-linecap="round" stroke-width="0.1000" stroke="currentColor" x1="0.0500" y1="-0.0000" x2="59.3181" y2="-0.0000"/>
<path transform="translate(20.7406, 4.0013) scale(0.0040, -0.0040)" d="M0 0c0 31 25 56 56 56s56 -25 56 -56s-25 -56 -56 -56s-56 25 -56 56z" fill="currentColor"/>
<path transform="translate(20.7406, 5.0013) scale(0.0040, -0.0040)" d="M0 0c0 31 25 56 56 56s56 -25 56 -56s-25 -56 -56 -56s-56 25 -56 56z" fill="currentColor"/>
<rect transform="translate(20.2506, 4.5013)" x="0.0000" y="-2.0000" width="0.1900" height="4.0000" ry="0.0000" fill="currentColor"/>
<rect transform="translate(19.3506, 4.5013)" x="0.0000" y="-2.0000" width="0.6000" height="4.0000" ry="0.0000" fill="currentColor"/>
<rect transform="translate(67.7140, 4.5013)" x="0.0000" y="-2.0000" width="0.1900" height="4.0000" ry="0.0000" fill="currentColor"/>
<path transform="translate(52.3452, 4.0013) scale(0.0040, -0.0040)" d="M0 0c0 31 25 56 56 56s56 -25 56 -56s-25 -56 -56 -56s-56 25 -56 56z" fill="currentColor"/>
<path transform="translate(52.3452, 5.0013) scale(0.0040, -0.0040)" d="M0 0c0 31 25 56 56 56s56 -25 56 -56s-25 -56 -56 -56s-56 25 -56 56z" fill="currentColor"/>
<rect transform="translate(53.5851, 4.5013)" x="0.0000" y="-2.0000" width="0.6000" height="4.0000" ry="0.0000" fill="currentColor"/>
<rect transform="translate(53.0951, 4.5013)" x="0.0000" y="-2.0000" width="0.1900" height="4.0000" ry="0.0000" fill="currentColor"/>
<path transform="translate(33.2455, 4.0013) scale(0.0040, -0.0040)" d="M0 0c0 31 25 56 56 56s56 -25 56 -56s-25 -56 -56 -56s-56 25 -56 56z" fill="currentColor"/>
<path transform="translate(33.2455, 5.0013) scale(0.0040, -0.0040)" d="M0 0c0 31 25 56 56 56s56 -25 56 -56s-25 -56 -56 -56s-56 25 -56 56z" fill="currentColor"/>
<path transform="translate(35.7955, 4.0013) scale(0.0040, -0.0040)" d="M0 0c0 31 25 56 56 56s56 -25 56 -56s-25 -56 -56 -56s-56 25 -56 56z" fill="currentColor"/>
<path transform="translate(35.7955, 5.0013) scale(0.0040, -0.0040)" d="M0 0c0 31 25 56 56 56s56 -25 56 -56s-25 -56 -56 -56s-56 25 -56 56z" fill="currentColor"/>
<rect transform="translate(34.8955, 4.5013)" x="0.0000" y="-2.0000" width="0.6000" height="4.0000" ry="0.0000" fill="currentColor"/>
<rect transform="translate(33.9955, 4.5013)" x="0.0000" y="-2.0000" width="0.6000" height="4.0000" ry="0.0000" fill="currentColor"/>
<path transform="translate(43.6295, 2.0513) scale(0.0040, -0.0040)" d="M67 410c-31 0 -38 -43 -38 -70v-75c0 -10 -7 -15 -14 -15s-15 5 -15 15v220c0 10 8 15 15 15s14 -5 14 -15v-14c0 -9 12 -19 15 -15c21 29 48 44 78 44c29 0 58 -13 84 -39c12 -12 27 -17 43 -17c30 0 63 19 84 50c3 5 7 6 11 6c8 0 16 -6 16 -14c0 -3 -1 -6 -3 -9
c-83 -118 -158 -249 -158 -387c0 -25 3 -50 8 -76c2 -9 -5 -17 -13 -17c-1 0 -3 1 -4 1c-24 7 -48 15 -73 15s-50 -8 -74 -15c-1 0 -3 -1 -4 -1c-9 0 -16 9 -12 17c54 128 134 242 216 355c-20 -11 -40 -16 -59 -16c-22 0 -42 8 -60 26s-39 31 -57 31z" fill="currentColor"/>
<g class="multiRest">
<path transform="translate(40.2654, 4.5013) scale(0.0040, -0.0040)" d="M140 -250h-130c-6 0 -10 4 -10 10v480c0 6 4 10 10 10h130c6 0 10 -4 10 -10v-480c0 -6 -4 -10 -10 -10z" fill="currentColor"/>
<path transform="translate(43.5453, 4.5013) scale(0.0040, -0.0040)" d="M140 0h-130c-6 0 -10 4 -10 10v230c0 6 4 10 10 10h130c6 0 10 -4 10 -10v-230c0 -6 -4 -10 -10 -10z" fill="currentColor"/>
<path transform="translate(46.8253, 3.5013) scale(0.0040, -0.0040)" d="M365 -156h-355c-6 0 -10 4 -10 10v136c0 6 4 10 10 10h355c6 0 10 -4 10 -10v-136c0 -6 -4 -10 -10 -10z" fill="currentColor"/>
</g>
<path transform="translate(26.5522, 2.0513) scale(0.0040, -0.0040)" d="M150 477c-29 0 -59 -8 -59 -33c0 -22 36 -25 36 -47c0 -32 -26 -58 -58 -58s-57 26 -57 58c0 65 67 103 138 103c91 0 169 -33 169 -114c0 -43 -4 -82 -42 -100c-9 -4 -14 -12 -14 -21s5 -18 14 -22c41 -19 56 -57 56 -103c0 -92 -79 -140 -179 -140
c-79 0 -154 42 -154 113c0 36 30 66 66 66s65 -30 65 -66c0 -25 -40 -28 -40 -53c0 -27 32 -37 63 -37c49 0 63 61 63 117v16c0 54 -2 94 -50 94h-80c-10 0 -14 8 -14 15s4 14 14 14h80c49 0 50 43 50 99v8c0 54 -18 91 -67 91z" fill="currentColor"/>
<g class="multiRest">
<path transform="translate(58.4710, 4.5013) scale(0.0040, -0.0040)" d="M140 -250h-130c-6 0 -10 4 -10 10v480c0 6 4 10 10 10h130c6 0 10 -4 10 -10v-480c0 -6 -4 -10 -10 -10z" fill="currentColor"/>
<path transform="translate(61.9282, 3.5013) scale(0.0040, -0.0040)" d="M365 -156h-355c-6 0 -10 4 -10 10v136c0 6 4 10 10 10h355c6 0 10 -4 10 -10v-136c0 -6 -4 -10 -10 -10z" fill="currentColor"/>
</g>
<path transform="translate(60.2838, 2.0513) scale(0.0040, -0.0040)" d="M46 500c46 -8 91 -13 137 -13s92 5 138 13h4c12 0 19 -10 13 -16c-68 -68 -166 -93 -263 -93c-9 0 -17 -8 -17 -17v-96c28 28 66 43 105 43c116 0 186 -51 186 -161c0 -94 -87 -160 -186 -160c-82 0 -163 39 -163 113c0 36 30 66 66 66s65 -30 65 -66
c0 -25 -40 -28 -40 -53c0 -30 37 -37 72 -37c57 0 70 71 70 137c0 63 -15 132 -70 132c-42 0 -83 -12 -107 -45c-3 -4 -8 -6 -12 -6c-8 0 -15 6 -15 15v228c0 9 7 16 15 16h2z" fill="currentColor"/>
<g class="clef">
<path transform="translate(9.3358, 5.5013) scale(0.0040, -0.0040)" d="M376 262c4 0 9 1 13 1c155 0 256 -128 256 -261c0 -76 -33 -154 -107 -210c-22 -17 -47 -28 -73 -36c3 -35 5 -70 5 -105c0 -19 -1 -39 -2 -58c-7 -120 -90 -228 -208 -228c-108 0 -195 88 -195 197c0 58 53 103 112 103c54 0 95 -47 95 -103c0 -52 -43 -95 -95 -95
c-11 0 -21 2 -31 6c26 -39 68 -65 117 -65c96 0 157 92 163 191c1 18 2 37 2 55c0 31 -1 61 -4 92c-29 -5 -58 -8 -89 -8c-188 0 -333 172 -333 374c0 177 131 306 248 441c-19 62 -37 125 -45 190c-6 52 -7 104 -7 156c0 115 55 224 149 292c3 2 7 3 10 3c4 0 7 0 10 -3
c71 -84 133 -245 133 -358c0 -143 -86 -255 -180 -364c21 -68 39 -138 56 -207zM461 -203c68 24 113 95 113 164c0 90 -66 179 -173 190c24 -116 46 -231 60 -354zM74 28c0 -135 129 -247 264 -247c28 0 55 2 82 6c-14 127 -37 245 -63 364c-79 -8 -124 -61 -124 -119
c0 -44 25 -91 81 -123c5 -5 7 -10 7 -15c0 -11 -10 -22 -22 -22c-3 0 -6 1 -9 2c-80 43 -117 115 -117 185c0 88 58 174 160 197c-14 58 -29 117 -46 175c-107 -121 -213 -243 -213 -403zM408 1045c-99 -48 -162 -149 -162 -259c0 -74 18 -133 36 -194
c80 97 146 198 146 324c0 55 -4 79 -20 129z" fill="currentColor"/>
</g>
<g class="keySig">
<path transform="translate(12.9558, 4.5013) scale(0.0040, -0.0040)" d="M27 41l-1 -66v-11c0 -22 1 -44 4 -66c45 38 93 80 93 139c0 33 -14 67 -43 67c-31 0 -52 -30 -53 -63zM-15 -138l-12 595c8 5 18 8 27 8s19 -3 27 -8l-7 -345c25 21 58 34 91 34c52 0 89 -48 89 -102c0 -80 -86 -117 -147 -169c-15 -13 -24 -38 -45 -38
c-13 0 -23 11 -23 25z" fill="currentColor"/>
<path transform="translate(13.8759, 3.0013) scale(0.0040, -0.0040)" d="M27 41l-1 -66v-11c0 -22 1 -44 4 -66c45 38 93 80 93 139c0 33 -14 67 -43 67c-31 0 -52 -30 -53 -63zM-15 -138l-12 595c8 5 18 8 27 8s19 -3 27 -8l-7 -345c25 21 58 34 91 34c52 0 89 -48 89 -102c0 -80 -86 -117 -147 -169c-15 -13 -24 -38 -45 -38
c-13 0 -23 11 -23 25z" fill="currentColor"/>
<path transform="translate(14.7959, 5.0013) scale(0.0040, -0.0040)" d="M27 41l-1 -66v-11c0 -22 1 -44 4 -66c45 38 93 80 93 139c0 33 -14 67 -43 67c-31 0 -52 -30 -53 -63zM-15 -138l-12 595c8 5 18 8 27 8s19 -3 27 -8l-7 -345c25 21 58 34 91 34c52 0 89 -48 89 -102c0 -80 -86 -117 -147 -169c-15 -13 -24 -38 -45 -38
c-13 0 -23 11 -23 25z" fill="currentColor"/>
</g>
<g class="meterSig">
<path transform="translate(16.8824, 4.5013) scale(0.0040, -0.0040)" d="M150 477c-29 0 -59 -8 -59 -33c0 -22 36 -25 36 -47c0 -32 -26 -58 -58 -58s-57 26 -57 58c0 65 67 103 138 103c91 0 169 -33 169 -114c0 -43 -4 -82 -42 -100c-9 -4 -14 -12 -14 -21s5 -18 14 -22c41 -19 56 -57 56 -103c0 -92 -79 -140 -179 -140
c-79 0 -154 42 -154 113c0 36 30 66 66 66s65 -30 65 -66c0 -25 -40 -28 -40 -53c0 -27 32 -37 63 -37c49 0 63 61 63 117v16c0 54 -2 94 -50 94h-80c-10 0 -14 8 -14 15s4 14 14 14h80c49 0 50 43 50 99v8c0 54 -18 91 -67 91z" fill="currentColor"/>
<path transform="translate(16.7459, 6.5499) scale(0.0040, -0.0040)" d="M204 307c22 14 44 29 60 50c11 15 19 33 27 50c2 4 5 6 9 6c6 0 13 -5 13 -14v-245h72c10 0 15 -7 15 -14s-5 -15 -15 -15h-72v-8c0 -48 27 -94 72 -94c8 0 12 -5 12 -11s-4 -12 -12 -12c-44 0 -87 13 -131 13s-87 -13 -131 -13c-8 0 -12 6 -12 12s4 11 12 11
c45 0 73 46 73 94v8h-167c-23 0 -31 14 -31 23c0 3 1 5 2 6c80 93 138 207 138 330c0 9 6 16 13 16h3c23 -7 47 -13 71 -13s48 6 71 13c2 1 3 1 5 1c11 0 18 -10 12 -17l-284 -330h167v131c0 8 1 17 8 22z" fill="currentColor"/>
</g>
<g class="multiRest">
<path transform="translate(24.9237, 4.5013) scale(0.0040, -0.0040)" d="M140 0h-130c-6 0 -10 4 -10 10v230c0 6 4 10 10 10h130c6 0 10 -4 10 -10v-230c0 -6 -4 -10 -10 -10z" fill="currentColor"/>
<path transform="translate(28.0124, 3.5013) scale(0.0040, -0.0040)" d="M365 -156h-355c-6 0 -10 4 -10 10v136c0 6 4 10 10 10h355c6 0 10 -4 10 -10v-136c0 -6 -4 -10 -10 -10z" fill="currentColor"/>
</g>
</svg>
