<svg xmlns="http://www.w3.org/2000/svg" xmlns:xlink="http://www.w3.org/1999/xlink" version="1.2" width="75.41mm" height="18.32mm" viewBox="8.5358 -0.0000 42.9097 10.4228">
<style text="style/css">
<![CDATA[
tspan { white-space: pre; }
]]>
</style>
<line transform="translate(8.5358, 7.3728)" stroke-linejoin="round" stroke-linecap="round" stroke-width="0.1000" stroke="currentColor" x1="0.0500" y1="-0.0000" x2="42.9097" y2="-0.0000"/>
<line transform="translate(8.5358, 6.3728)" stroke-linejoin="round" stroke-linecap="round" stroke-width="0.1000" stroke="currentColor" x1="0.0500" y1="-0.0000" x2="42.9097" y2="-0.0000"/>
<line transform="translate(8.5358, 5.3728)" stroke-linejoin="round" stroke-linecap="round" stroke-width="0.1000" stroke="currentColor" x1="0.0500" y1="-0.0000" x2="42.9097" y2="-0.0000"/>
<line transform="translate(8.5358, 4.3728)" stroke-linejoin="round" stroke-linecap="round" stroke-width="0.1000" stroke="currentColor" x1="0.0500" y1="-0.0000" x2="42.9097" y2="-0.0000"/>
<line transform="translate(8.5358, 3.3728)" stroke-linejoin="round" stroke-linecap="round" stroke-width="0.1000" stroke="currentColor" x1="0.0500" y1="-0.0000" x2="42.9097" y2="-0.0000"/>
<rect transform="translate(38.5738, 5.3728)" x="-0.0650" y="-3.0029" width="0.1300" height="4.3168" ry="0.0400" fill="currentColor"/>
<g class="note">
<path transform="translate(37.3346, 6.8728) scale(0.0040, -0.0040)" d="M218 136c55 0 108 -28 108 -89c0 -71 -55 -121 -102 -149c-35 -21 -75 -34 -116 -34c-55 0 -108 28 -108 89c0 71 55 121 102 149c35 21 75 34 116 34z" fill="currentColor"/>
</g>
<rect transform="translate(34.9850, 5.3728)" x="-0.0650" y="0.6861" width="0.1300" height="3.1275" ry="0.0400" fill="currentColor"/>
<g class="note">
<path transform="translate(34.9200, 5.8728) scale(0.0040, -0.0040)" d="M218 136c55 0 108 -28 108 -89c0 -71 -55 -121 -102 -149c-35 -21 -75 -34 -116 -34c-55 0 -108 28 -108 89c0 71 55 121 102 149c35 21 75 34 116 34z" fill="currentColor"/>
</g>
<rect transform="translate(32.7308, 5.3728)" x="-0.0650" y="-0.3139" width="0.1300" height="4.2534" ry="0.0400" fill="currentColor"/>
<g class="note">
<path transform="translate(32.6658, 4.8728) scale(0.0040, -0.0040)" d="M218 136c55 0 108 -28 108 -89c0 -71 -55 -121 -102 -149c-35 -21 -75 -34 -116 -34c-55 0 -108 28 -108 89c0 71 55 121 102 149c35 21 75 34 116 34z" fill="currentColor"/>
</g>
<rect transform="translate(30.4766, 5.3728)" x="-0.0650" y="-1.8139" width="0.1300" height="5.8793" ry="0.0400" fill="currentColor"/>
<g class="note">
<path transform="translate(30.4116, 3.3728) scale(0.0040, -0.0040)" d="M218 136c55 0 108 -28 108 -89c0 -71 -55 -121 -102 -149c-35 -21 -75 -34 -116 -34c-55 0 -108 28 -108 89c0 71 55 121 102 149c35 21 75 34 116 34z" fill="currentColor"/>
</g>
<g class="beam">
<polygon transform="translate(17.1406, 8.5628)" stroke-linejoin="round" stroke-linecap="round" stroke-width="0.0800" fill="currentColor" stroke="currentColor" points="17.8695 -1.2000 17.8695 -0.8000 0.0400 0.2000 0.0400 -0.2000"/>
<polygon transform="translate(17.1406, 9.3728)" stroke-linejoin="round" stroke-linecap="round" stroke-width="0.0800" fill="currentColor" stroke="currentColor" points="17.8695 -1.2000 17.8695 -0.8000 0.0400 0.2000 0.0400 -0.2000"/>
<polygon transform="translate(17.1406, 10.1828)" stroke-linejoin="round" stroke-linecap="round" stroke-width="0.0800" fill="currentColor" stroke="currentColor" points="17.8695 -1.2000 17.8695 -0.8000 0.0400 0.2000 0.0400 -0.2000"/>
</g>
<g class="beam">
<polygon transform="translate(38.5088, 2.3728)" stroke-linejoin="round" stroke-linecap="round" stroke-width="0.0800" fill="currentColor" stroke="currentColor" points="11.2487 -0.7000 11.2487 -0.3000 0.0400 0.2000 0.0400 -0.2000"/>
<polygon transform="translate(43.6630, 2.9545)" stroke-linejoin="round" stroke-linecap="round" stroke-width="0.0800" fill="currentColor" stroke="currentColor" points="6.0945 -0.4717 6.0945 -0.0717 0.0400 0.2000 0.0400 -0.2000"/>
</g>
<line transform="translate(43.6630, 0.7988)" stroke-linejoin="round" stroke-linecap="round" stroke-width="0.1600" stroke="currentColor" x1="6.3343" y1="-0.2746" x2="6.3343" y2="0.4254"/>
<line transform="translate(43.6630, 0.7988)" stroke-linejoin="round" stroke-linecap="round" stroke-width="0.1600" stroke="currentColor" x1="-0.1998" y1="0.0087" x2="-0.1998" y2="0.7087"/>
<line transform="translate(43.6630, 0.7988)" stroke-linejoin="round" stroke-linecap="round" stroke-width="0.1600" stroke="currentColor" x1="6.3343" y1="-0.2746" x2="4.2295" y2="-0.1834"/>
<line transform="translate(43.6630, 0.7988)" stroke-linejoin="round" stroke-linecap="round" stroke-width="0.1600" stroke="currentColor" x1="-0.1998" y1="0.0087" x2="2.1048" y2="-0.0913"/>
<g class="tuplet">
<text transform="translate(46.1669, 1.2974)" font-family="serif" font-style="italic" font-size="1.7461" text-anchor="start" fill="currentColor">
<tspan>3</tspan>
</text>
</g>
<rect transform="translate(49.7325, 5.3728)" x="-0.0650" y="-3.4971" width="0.1300" height="3.8110" ry="0.0400" fill="currentColor"/>
<g class="note">
<path transform="translate(48.4933, 5.8728) scale(0.0040, -0.0040)" d="M218 136c55 0 108 -28 108 -89c0 -71 -55 -121 -102 -149c-35 -21 -75 -34 -116 -34c-55 0 -108 28 -108 89c0 71 55 121 102 149c35 21 75 34 116 34z" fill="currentColor"/>
</g>
<rect transform="translate(46.9803, 5.3728)" x="-0.0650" y="-3.3752" width="0.1300" height="2.6891" ry="0.0400" fill="currentColor"/>
<g class="note">
<path transform="translate(45.7410, 4.8728) scale(0.0040, -0.0040)" d="M218 136c55 0 108 -28 108 -89c0 -71 -55 -121 -102 -149c-35 -21 -75 -34 -116 -34c-55 0 -108 28 -108 89c0 71 55 121 102 149c35 21 75 34 116 34z" fill="currentColor"/>
</g>
<rect transform="translate(43.7280, 5.3728)" x="-0.0650" y="-3.2312" width="0.1300" height="3.5451" ry="0.0400" fill="currentColor"/>
<g class="note">
<path transform="translate(42.4888, 5.8728) scale(0.0040, -0.0040)" d="M218 136c55 0 108 -28 108 -89c0 -71 -55 -121 -102 -149c-35 -21 -75 -34 -116 -34c-55 0 -108 28 -108 89c0 71 55 121 102 149c35 21 75 34 116 34z" fill="currentColor"/>
</g>
<rect transform="translate(19.9598, 5.3728)" x="-0.0650" y="0.6861" width="0.1300" height="3.9665" ry="0.0400" fill="currentColor"/>
<g class="note">
<path transform="translate(19.8948, 5.8728) scale(0.0040, -0.0040)" d="M218 136c55 0 108 -28 108 -89c0 -71 -55 -121 -102 -149c-35 -21 -75 -34 -116 -34c-55 0 -108 28 -108 89c0 71 55 121 102 149c35 21 75 34 116 34z" fill="currentColor"/>
</g>
<rect transform="translate(17.2056, 5.3728)" x="-0.0650" y="1.6861" width="0.1300" height="3.1203" ry="0.0400" fill="currentColor"/>
<g class="meterSig">
<path transform="translate(13.5358, 5.3728) scale(0.0040, -0.0040)" d="M204 307c22 14 44 29 60 50c11 15 19 33 27 50c2 4 5 6 9 6c6 0 13 -5 13 -14v-245h72c10 0 15 -7 15 -14s-5 -15 -15 -15h-72v-8c0 -48 27 -94 72 -94c8 0 12 -5 12 -11s-4 -12 -12 -12c-44 0 -87 13 -131 13s-87 -13 -131 -13c-8 0 -12 6 -12 12s4 11 12 11
c45 0 73 46 73 94v8h-167c-23 0 -31 14 -31 23c0 3 1 5 2 6c80 93 138 207 138 330c0 9 6 16 13 16h3c23 -7 47 -13 71 -13s48 6 71 13c2 1 3 1 5 1c11 0 18 -10 12 -17l-284 -330h167v131c0 8 1 17 8 22z" fill="currentColor"/>
<path transform="translate(13.5358, 7.4214) scale(0.0040, -0.0040)" d="M204 307c22 14 44 29 60 50c11 15 19 33 27 50c2 4 5 6 9 6c6 0 13 -5 13 -14v-245h72c10 0 15 -7 15 -14s-5 -15 -15 -15h-72v-8c0 -48 27 -94 72 -94c8 0 12 -5 12 -11s-4 -12 -12 -12c-44 0 -87 13 -131 13s-87 -13 -131 -13c-8 0 -12 6 -12 12s4 11 12 11
c45 0 73 46 73 94v8h-167c-23 0 -31 14 -31 23c0 3 1 5 2 6c80 93 138 207 138 330c0 9 6 16 13 16h3c23 -7 47 -13 71 -13s48 6 71 13c2 1 3 1 5 1c11 0 18 -10 12 -17l-284 -330h167v131c0 8 1 17 8 22z" fill="currentColor"/>
</g>
<g class="clef">
<path transform="translate(9.3358, 6.3728) scale(0.0040, -0.0040)" d="M376 262c4 0 9 1 13 1c155 0 256 -128 256 -261c0 -76 -33 -154 -107 -210c-22 -17 -47 -28 -73 -36c3 -35 5 -70 5 -105c0 -19 -1 -39 -2 -58c-7 -120 -90 -228 -208 -228c-108 0 -195 88 -195 197c0 58 53 103 112 103c54 0 95 -47 95 -103c0 -52 -43 -95 -95 -95
c-11 0 -21 2 -31 6c26 -39 68 -65 117 -65c96 0 157 92 163 191c1 18 2 37 2 55c0 31 -1 61 -4 92c-29 -5 -58 -8 -89 -8c-188 0 -333 172 -333 374c0 177 131 306 248 441c-19 62 -37 125 -45 190c-6 52 -7 104 -7 156c0 115 55 224 149 292c3 2 7 3 10 3c4 0 7 0 10 -3
c71 -84 133 -245 133 -358c0 -143 -86 -255 -180 -364c21 -68 39 -138 56 -207zM461 -203c68 24 113 95 113 164c0 90 -66 179 -173 190c24 -116 46 -231 60 -354zM74 28c0 -135 129 -247 264 -247c28 0 55 2 82 6c-14 127 -37 245 -63 364c-79 -8 -124 -61 -124 -119
c0 -44 25 -91 81 -123c5 -5 7 -10 7 -15c0 -11 -10 -22 -22 -22c-3 0 -6 1 -9 2c-80 43 -117 115 -117 185c0 88 58 174 160 197c-14 58 -29 117 -46 175c-107 -121 -213 -243 -213 -403zM408 1045c-99 -48 -162 -149 -162 -259c0 -74 18 -133 36 -194
c80 97 146 198 146 324c0 55 -4 79 -20 129z" fill="currentColor"/>
</g>
<g class="note">
<path transform="translate(17.1406, 6.8728) scale(0.0040, -0.0040)" d="M218 136c55 0 108 -28 108 -89c0 -71 -55 -121 -102 -149c-35 -21 -75 -34 -116 -34c-55 0 -108 28 -108 89c0 71 55 121 102 149c35 21 75 34 116 34z" fill="currentColor"/>
</g>
<g class="note">
<path transform="translate(25.4032, 3.3728) scale(0.0040, -0.0040)" d="M218 136c55 0 108 -28 108 -89c0 -71 -55 -121 -102 -149c-35 -21 -75 -34 -116 -34c-55 0 -108 28 -108 89c0 71 55 121 102 149c35 21 75 34 116 34z" fill="currentColor"/>
</g>
<rect transform="translate(27.7224, 5.3728)" x="-0.0650" y="-0.3139" width="0.1300" height="4.5330" ry="0.0400" fill="currentColor"/>
<g class="note">
<path transform="translate(27.6574, 4.8728) scale(0.0040, -0.0040)" d="M218 136c55 0 108 -28 108 -89c0 -71 -55 -121 -102 -149c-35 -21 -75 -34 -116 -34c-55 0 -108 28 -108 89c0 71 55 121 102 149c35 21 75 34 116 34z" fill="currentColor"/>
</g>
<rect transform="translate(25.4682, 5.3728)" x="-0.0650" y="-1.8139" width="0.1300" height="6.1589" ry="0.0400" fill="currentColor"/>
<rect transform="translate(22.7140, 5.3728)" x="-0.0650" y="-0.3139" width="0.1300" height="4.8127" ry="0.0400" fill="currentColor"/>
<g class="note">
<path transform="translate(22.6490, 4.8728) scale(0.0040, -0.0040)" d="M218 136c55 0 108 -28 108 -89c0 -71 -55 -121 -102 -149c-35 -21 -75 -34 -116 -34c-55 0 -108 28 -108 89c0 71 55 121 102 149c35 21 75 34 116 34z" fill="currentColor"/>
</g>
</svg>
