<svg xmlns="http://www.w3.org/2000/svg" xmlns:xlink="http://www.w3.org/1999/xlink" version="1.2" width="125.68mm" height="43.22mm" viewBox="7.2484 0.0020 71.5174 24.5940">
<style text="style/css">
<![CDATA[
tspan { white-space: pre; }
]]>
</style>
<line transform="translate(8.5358, 11.2730)" stroke-linejoin="round" stroke-linecap="round" stroke-width="0.1000" stroke="currentColor" x1="0.0500" y1="-0.0000" x2="70.1799" y2="-0.0000"/>
<line transform="translate(8.5358, 10.2730)" stroke-linejoin="round" stroke-linecap="round" stroke-width="0.1000" stroke="currentColor" x1="0.0500" y1="-0.0000" x2="70.1799" y2="-0.0000"/>
<line transform="translate(8.5358, 9.2730)" stroke-linejoin="round" stroke-linecap="round" stroke-width="0.1000" stroke="currentColor" x1="0.0500" y1="-0.0000" x2="70.1799" y2="-0.0000"/>
<line transform="translate(8.5358, 8.2730)" stroke-linejoin="round" stroke-linecap="round" stroke-width="0.1000" stroke="currentColor" x1="0.0500" y1="-0.0000" x2="70.1799" y2="-0.0000"/>
<line transform="translate(8.5358, 7.2730)" stroke-linejoin="round" stroke-linecap="round" stroke-width="0.1000" stroke="currentColor" x1="0.0500" y1="-0.0000" x2="70.1799" y2="-0.0000"/>
<rect transform="translate(59.3773, 9.2730)" x="0.0000" y="-2.0000" width="0.1900" height="4.0500" ry="0.0000" fill="currentColor"/>
<rect transform="translate(59.3773, 20.0510)" x="0.0000" y="-2.0500" width="0.1900" height="4.0500" ry="0.0000" fill="currentColor"/>
<rect transform="translate(78.1658, 9.2730)" x="0.0000" y="-2.0000" width="0.6000" height="4.0500" ry="0.0000" fill="currentColor"/>
<rect transform="translate(77.6758, 9.2730)" x="0.0000" y="-2.0000" width="0.1900" height="4.0500" ry="0.0000" fill="currentColor"/>
<rect transform="translate(78.1658, 20.0510)" x="0.0000" y="-2.0500" width="0.6000" height="4.0500" ry="0.0000" fill="currentColor"/>
<rect transform="translate(77.6758, 20.0510)" x="0.0000" y="-2.0500" width="0.1900" height="4.0500" ry="0.0000" fill="currentColor"/>
<rect transform="translate(0.0000, 2.2730)" x="72.6955" y="-0.1000" width="1.9563" height="0.2000" ry="0.1000" fill="currentColor"/>
<rect transform="translate(0.0000, 3.2730)" x="72.6955" y="-0.1000" width="1.9563" height="0.2000" ry="0.1000" fill="currentColor"/>
<rect transform="translate(0.0000, 4.2730)" x="72.6955" y="-0.1000" width="1.9563" height="0.2000" ry="0.1000" fill="currentColor"/>
<rect transform="translate(0.0000, 5.2730)" x="72.6955" y="-0.1000" width="1.9563" height="0.2000" ry="0.1000" fill="currentColor"/>
<rect transform="translate(0.0000, 6.2730)" x="71.4563" y="-0.1000" width="3.1955" height="0.2000" ry="0.1000" fill="currentColor"/>
<rect transform="translate(0.0000, 12.2730)" x="72.6955" y="-0.1000" width="1.9563" height="0.2000" ry="0.1000" fill="currentColor"/>
<rect transform="translate(0.0000, 13.2730)" x="72.6955" y="-0.1000" width="1.9563" height="0.2000" ry="0.1000" fill="currentColor"/>
<rect transform="translate(0.0000, 6.2730)" x="67.2913" y="-0.1000" width="3.1955" height="0.2000" ry="0.1000" fill="currentColor"/>
<rect transform="translate(0.0000, 12.2730)" x="67.2913" y="-0.1000" width="1.9563" height="0.2000" ry="0.1000" fill="currentColor"/>
<rect transform="translate(0.0000, 13.2730)" x="67.2913" y="-0.1000" width="1.9563" height="0.2000" ry="0.1000" fill="currentColor"/>
<rect transform="translate(0.0000, 12.2730)" x="46.6344" y="-0.1000" width="1.9563" height="0.2000" ry="0.1000" fill="currentColor"/>
<rect transform="translate(0.0000, 13.2730)" x="46.6344" y="-0.1000" width="1.9563" height="0.2000" ry="0.1000" fill="currentColor"/>
<rect transform="translate(0.0000, 12.2730)" x="38.8718" y="-0.1000" width="1.9563" height="0.2000" ry="0.1000" fill="currentColor"/>
<rect transform="translate(0.0000, 13.2730)" x="38.8718" y="-0.1000" width="1.9563" height="0.2000" ry="0.1000" fill="currentColor"/>
<rect transform="translate(0.0000, 14.2730)" x="38.8718" y="-0.1000" width="1.9563" height="0.2000" ry="0.1000" fill="currentColor"/>
<rect transform="translate(0.0000, 17.0510)" x="61.4423" y="-0.1000" width="3.2090" height="0.2000" ry="0.1000" fill="currentColor"/>
<rect transform="translate(0.0000, 23.0510)" x="61.2730" y="-0.1000" width="2.0660" height="0.2000" ry="0.1000" fill="currentColor"/>
<rect transform="translate(0.0000, 24.0510)" x="61.2730" y="-0.1000" width="2.0660" height="0.2000" ry="0.1000" fill="currentColor"/>
<line transform="translate(8.5358, 22.0510)" stroke-linejoin="round" stroke-linecap="round" stroke-width="0.1000" stroke="currentColor" x1="0.0500" y1="-0.0000" x2="70.1799" y2="-0.0000"/>
<line transform="translate(8.5358, 21.0510)" stroke-linejoin="round" stroke-linecap="round" stroke-width="0.1000" stroke="currentColor" x1="0.0500" y1="-0.0000" x2="70.1799" y2="-0.0000"/>
<line transform="translate(8.5358, 20.0510)" stroke-linejoin="round" stroke-linecap="round" stroke-width="0.1000" stroke="currentColor" x1="0.0500" y1="-0.0000" x2="70.1799" y2="-0.0000"/>
<line transform="translate(8.5358, 19.0510)" stroke-linejoin="round" stroke-linecap="round" stroke-width="0.1000" stroke="currentColor" x1="0.0500" y1="-0.0000" x2="70.1799" y2="-0.0000"/>
<line transform="translate(8.5358, 18.0510)" stroke-linejoin="round" stroke-linecap="round" stroke-width="0.1000" stroke="currentColor" x1="0.0500" y1="-0.0000" x2="70.1799" y2="-0.0000"/>
<path transform="translate(62.3060, 13.7750) scale(0.0040, -0.0040)" d="M-67 48c0 37 30 67 67 67s67 -30 67 -67s-30 -67 -67 -67s-67 30 -67 67zM0 363c157 0 332 -176 332 -366c0 -9 -10 -15 -19 -15s-17 5 -19 18c-26 148 -146 262 -294 262s-268 -114 -294 -262c-2 -13 -10 -18 -19 -18s-19 6 -19 15c0 190 175 366 332 366z" fill="currentColor"/>
<g class="rest">
<path transform="translate(56.9773, 9.2730) scale(0.0040, -0.0040)" d="M66 -500l101 327c-34 -12 -70 -23 -106 -23c-46 0 -87 33 -87 79c0 40 32 72 72 72c25 0 49 -15 57 -39c10 -28 5 -59 34 -59c16 0 55 51 60 68l46 151c-34 -12 -68 -22 -104 -22c-46 0 -87 33 -87 79c0 40 33 72 73 72c25 0 48 -15 56 -39c10 -28 5 -59 34 -59
c15 0 50 49 57 63c6 12 23 12 28 0l-179 -670c-8 -7 -17 -10 -27 -10s-20 3 -28 10z" fill="currentColor"/>
</g>
<g class="note">
<path transform="translate(61.6173, 23.0510) scale(0.0040, -0.0040)" d="M314 65c0 24 -21 41 -42 41c-4 0 -8 0 -12 -1c-31 -9 -78 -40 -115 -64s-84 -53 -104 -78c-7 -8 -10 -18 -10 -28c0 -24 21 -41 42 -41c4 0 8 0 12 1c31 9 77 40 114 64s84 53 104 78c7 8 11 18 11 28zM262 136c46 0 82 -21 82 -71c0 -19 -4 -39 -10 -57
c-12 -37 -32 -72 -64 -94c-53 -36 -113 -50 -187 -50c-46 0 -83 21 -83 71c0 19 5 39 11 57c12 37 31 72 63 94c53 36 114 50 188 50z" fill="currentColor"/>
</g>
<g class="note">
<path transform="translate(61.6173, 20.5510) scale(0.0040, -0.0040)" d="M314 65c0 24 -21 41 -42 41c-4 0 -8 0 -12 -1c-31 -9 -78 -40 -115 -64s-84 -53 -104 -78c-7 -8 -10 -18 -10 -28c0 -24 21 -41 42 -41c4 0 8 0 12 1c31 9 77 40 114 64s84 53 104 78c7 8 11 18 11 28zM262 136c46 0 82 -21 82 -71c0 -19 -4 -39 -10 -57
c-12 -37 -32 -72 -64 -94c-53 -36 -113 -50 -187 -50c-46 0 -83 21 -83 71c0 19 5 39 11 57c12 37 31 72 63 94c53 36 114 50 188 50z" fill="currentColor"/>
</g>
<g class="note">
<path transform="translate(61.6173, 19.0510) scale(0.0040, -0.0040)" d="M314 65c0 24 -21 41 -42 41c-4 0 -8 0 -12 -1c-31 -9 -78 -40 -115 -64s-84 -53 -104 -78c-7 -8 -10 -18 -10 -28c0 -24 21 -41 42 -41c4 0 8 0 12 1c31 9 77 40 114 64s84 53 104 78c7 8 11 18 11 28zM262 136c46 0 82 -21 82 -71c0 -19 -4 -39 -10 -57
c-12 -37 -32 -72 -64 -94c-53 -36 -113 -50 -187 -50c-46 0 -83 21 -83 71c0 19 5 39 11 57c12 37 31 72 63 94c53 36 114 50 188 50z" fill="currentColor"/>
</g>
<g class="note">
<path transform="translate(61.6173, 24.0510) scale(0.0040, -0.0040)" d="M314 65c0 24 -21 41 -42 41c-4 0 -8 0 -12 -1c-31 -9 -78 -40 -115 -64s-84 -53 -104 -78c-7 -8 -10 -18 -10 -28c0 -24 21 -41 42 -41c4 0 8 0 12 1c31 9 77 40 114 64s84 53 104 78c7 8 11 18 11 28zM262 136c46 0 82 -21 82 -71c0 -19 -4 -39 -10 -57
c-12 -37 -32 -72 -64 -94c-53 -36 -113 -50 -187 -50c-46 0 -83 21 -83 71c0 19 5 39 11 57c12 37 31 72 63 94c53 36 114 50 188 50z" fill="currentColor"/>
</g>
<g class="note">
<path transform="translate(61.6173, 17.0510) scale(0.0040, -0.0040)" d="M314 65c0 24 -21 41 -42 41c-4 0 -8 0 -12 -1c-31 -9 -78 -40 -115 -64s-84 -53 -104 -78c-7 -8 -10 -18 -10 -28c0 -24 21 -41 42 -41c4 0 8 0 12 1c31 9 77 40 114 64s84 53 104 78c7 8 11 18 11 28zM262 136c46 0 82 -21 82 -71c0 -19 -4 -39 -10 -57
c-12 -37 -32 -72 -64 -94c-53 -36 -113 -50 -187 -50c-46 0 -83 21 -83 71c0 19 5 39 11 57c12 37 31 72 63 94c53 36 114 50 188 50z" fill="currentColor"/>
</g>
<g class="note">
<path transform="translate(62.9297, 16.5510) scale(0.0040, -0.0040)" d="M314 65c0 24 -21 41 -42 41c-4 0 -8 0 -12 -1c-31 -9 -78 -40 -115 -64s-84 -53 -104 -78c-7 -8 -10 -18 -10 -28c0 -24 21 -41 42 -41c4 0 8 0 12 1c31 9 77 40 114 64s84 53 104 78c7 8 11 18 11 28zM262 136c46 0 82 -21 82 -71c0 -19 -4 -39 -10 -57
c-12 -37 -32 -72 -64 -94c-53 -36 -113 -50 -187 -50c-46 0 -83 21 -83 71c0 19 5 39 11 57c12 37 31 72 63 94c53 36 114 50 188 50z" fill="currentColor"/>
</g>
<g class="beam">
<polygon transform="translate(17.1406, 14.6530)" stroke-linejoin="round" stroke-linecap="round" stroke-width="0.0800" fill="currentColor" stroke="currentColor" points="7.8526 -0.3900 7.8526 0.0100 0.0400 0.2000 0.0400 -0.2000"/>
<polygon transform="translate(17.1406, 15.4630)" stroke-linejoin="round" stroke-linecap="round" stroke-width="0.0800" fill="currentColor" stroke="currentColor" points="7.8526 -0.3900 7.8526 0.0100 0.0400 0.2000 0.0400 -0.2000"/>
</g>
<rect transform="translate(62.9297, 20.0510)" x="-0.0650" y="-6.0000" width="0.1300" height="9.7410" ry="0.0400" fill="currentColor"/>
<g class="clef">
<path transform="translate(46.6180, 8.2730) scale(0.0040, -0.0040)" d="M446 -100c0 23 18 41 41 41s41 -18 41 -41s-18 -41 -41 -41s-41 18 -41 41zM446 100c0 23 18 41 41 41s41 -18 41 -41s-18 -41 -41 -41s-41 18 -41 41zM179 213c140 0 241 -69 241 -201c0 -211 -210 -333 -411 -421c-3 -3 -6 -4 -9 -4c-7 0 -13 6 -13 13c0 3 1 6 4 9
c150 98 307 217 307 393c0 92 -38 185 -119 185c-52 0 -87 -38 -104 -90c5 1 10 2 15 2c44 0 80 -36 80 -80c0 -46 -35 -85 -80 -85c-48 0 -90 38 -90 85c0 104 77 194 179 194z" fill="currentColor"/>
</g>
<g class="note">
<path transform="translate(49.4647, 20.5510) scale(0.0040, -0.0040)" d="M218 136c55 0 108 -28 108 -89c0 -71 -55 -121 -102 -149c-35 -21 -75 -34 -116 -34c-55 0 -108 28 -108 89c0 71 55 121 102 149c35 21 75 34 116 34z" fill="currentColor"/>
</g>
<g class="clef">
<path transform="translate(46.6180, 19.0510) scale(0.0040, -0.0040)" d="M446 -100c0 23 18 41 41 41s41 -18 41 -41s-18 -41 -41 -41s-41 18 -41 41zM446 100c0 23 18 41 41 41s41 -18 41 -41s-18 -41 -41 -41s-41 18 -41 41zM179 213c140 0 241 -69 241 -201c0 -211 -210 -333 -411 -421c-3 -3 -6 -4 -9 -4c-7 0 -13 6 -13 13c0 3 1 6 4 9
c150 98 307 217 307 393c0 92 -38 185 -119 185c-52 0 -87 -38 -104 -90c5 1 10 2 15 2c44 0 80 -36 80 -80c0 -46 -35 -85 -80 -85c-48 0 -90 38 -90 85c0 104 77 194 179 194z" fill="currentColor"/>
</g>
<rect transform="translate(50.7039, 20.0510)" x="-0.0650" y="-5.8275" width="0.1300" height="6.1414" ry="0.0400" fill="currentColor"/>
<path transform="translate(60.1673, 17.0510) scale(0.0040, -0.0040)" d="M216 -312c0 -10 -8 -19 -18 -19s-19 9 -19 19v145l-83 -31v-158c0 -10 -9 -19 -19 -19s-18 9 -18 19v145l-32 -12c-2 -1 -5 -1 -7 -1c-11 0 -20 9 -20 20v60c0 8 5 16 13 19l46 16v160l-32 -11c-2 -1 -5 -1 -7 -1c-11 0 -20 9 -20 20v60c0 8 5 15 13 18l46 17v158
c0 10 8 19 18 19s19 -9 19 -19v-145l83 31v158c0 10 9 19 19 19s18 -9 18 -19v-145l32 12c2 1 5 1 7 1c11 0 20 -9 20 -20v-60c0 -8 -5 -16 -13 -19l-46 -16v-160l32 11c2 1 5 1 7 1c11 0 20 -9 20 -20v-60c0 -8 -5 -15 -13 -18l-46 -17v-158zM96 65v-160l83 30v160z" fill="currentColor"/>
<g class="note">
<path transform="translate(53.1431, 7.7730) scale(0.0040, -0.0040)" d="M218 136c55 0 108 -28 108 -89c0 -71 -55 -121 -102 -149c-35 -21 -75 -34 -116 -34c-55 0 -108 28 -108 89c0 71 55 121 102 149c35 21 75 34 116 34z" fill="currentColor"/>
</g>
<rect transform="translate(53.2081, 9.2730)" x="-0.0650" y="-1.3139" width="0.1300" height="6.4019" ry="0.0400" fill="currentColor"/>
<g class="note">
<path transform="translate(54.4731, 18.0510) scale(0.0040, -0.0040)" d="M218 136c55 0 108 -28 108 -89c0 -71 -55 -121 -102 -149c-35 -21 -75 -34 -116 -34c-55 0 -108 28 -108 89c0 71 55 121 102 149c35 21 75 34 116 34z" fill="currentColor"/>
</g>
<rect transform="translate(55.7123, 20.0510)" x="-0.0650" y="-7.1725" width="0.1300" height="4.9864" ry="0.0400" fill="currentColor"/>
<path transform="translate(73.6737, 1.4520) scale(0.0040, -0.0040)" d="M-67 48c0 37 30 67 67 67s67 -30 67 -67s-30 -67 -67 -67s-67 30 -67 67zM0 363c157 0 332 -176 332 -366c0 -9 -10 -15 -19 -15s-17 5 -19 18c-26 148 -146 262 -294 262s-268 -114 -294 -262c-2 -13 -10 -18 -19 -18s-19 6 -19 15c0 190 175 366 332 366z" fill="currentColor"/>
<g class="clef">
<path transform="translate(70.6237, 21.0510) scale(0.0040, -0.0040)" d="M518 1c0 -82 -56 -168 -141 -197c2 -27 3 -54 3 -81c0 -16 0 -33 -1 -49c-6 -99 -75 -186 -173 -186c-87 0 -159 72 -159 160c0 46 42 83 90 83c43 0 76 -38 76 -83c0 -42 -34 -76 -76 -76c-4 0 -6 0 -10 1c19 -26 47 -42 81 -42c75 0 124 72 129 149c1 15 1 30 1 45
c0 23 -1 46 -3 69c-22 -4 -44 -6 -67 -6c-151 0 -266 139 -266 302c0 144 101 254 191 367c-16 53 -31 105 -37 160c-5 42 -5 85 -5 128c0 93 42 181 115 239c3 2 6 3 9 3c4 0 8 -1 11 -4c57 -69 107 -202 107 -295c0 -115 -63 -207 -135 -297c17 -59 33 -119 47 -179h1
c2 0 4 1 6 1c126 0 206 -105 206 -212zM373 -155c50 20 81 75 81 125c0 68 -48 136 -127 147c19 -89 35 -178 46 -272zM63 19c0 -104 102 -188 208 -188c21 0 40 1 60 4c-11 98 -28 191 -48 283c-59 -7 -93 -48 -93 -92c0 -34 21 -70 64 -95c5 -5 6 -10 6 -15
c0 -11 -9 -22 -21 -22c-3 0 -6 1 -9 2c-65 35 -95 93 -95 150c0 71 46 141 128 161c-11 48 -24 95 -38 143c-82 -101 -162 -202 -162 -331zM319 860c-76 -44 -123 -124 -123 -211c0 -56 15 -104 29 -151c59 79 107 162 107 261c0 43 -2 61 -13 101z" fill="currentColor"/>
</g>
<rect transform="translate(73.0866, 9.2730)" x="-0.0650" y="-6.8139" width="0.1300" height="13.3139" ry="0.0400" fill="currentColor"/>
<g class="beam">
<polygon transform="translate(27.4074, 14.9630)" stroke-linejoin="round" stroke-linecap="round" stroke-width="0.0800" fill="currentColor" stroke="currentColor" points="7.6026 -0.5100 7.6026 -0.1100 0.0400 0.2000 0.0400 -0.2000"/>
<polygon transform="translate(27.4074, 15.7730)" stroke-linejoin="round" stroke-linecap="round" stroke-width="0.0800" fill="currentColor" stroke="currentColor" points="7.6026 -0.5100 7.6026 -0.1100 0.0400 0.2000 0.0400 -0.2000"/>
</g>
<g class="note">
<path transform="translate(73.0216, 5.7730) scale(0.0040, -0.0040)" d="M218 136c55 0 108 -28 108 -89c0 -71 -55 -121 -102 -149c-35 -21 -75 -34 -116 -34c-55 0 -108 28 -108 89c0 71 55 121 102 149c35 21 75 34 116 34z" fill="currentColor"/>
</g>
<g class="beam">
<polygon transform="translate(39.1979, 15.9630)" stroke-linejoin="round" stroke-linecap="round" stroke-width="0.0800" fill="currentColor" stroke="currentColor" points="7.8526 -0.8900 7.8526 -0.4900 0.0400 0.2000 0.0400 -0.2000"/>
<polygon transform="translate(39.1979, 16.7730)" stroke-linejoin="round" stroke-linecap="round" stroke-width="0.0800" fill="currentColor" stroke="currentColor" points="7.8526 -0.8900 7.8526 -0.4900 0.0400 0.2000 0.0400 -0.2000"/>
</g>
<g class="beam">
<polygon transform="translate(50.6389, 14.2410)" stroke-linejoin="round" stroke-linecap="round" stroke-width="0.0800" fill="currentColor" stroke="currentColor" points="5.0984 -1.5800 5.0984 -1.1800 0.0400 0.2000 0.0400 -0.2000"/>
<polygon transform="translate(50.6389, 15.0510)" stroke-linejoin="round" stroke-linecap="round" stroke-width="0.0800" fill="currentColor" stroke="currentColor" points="5.0984 -1.5800 5.0984 -1.1800 0.0400 0.2000 0.0400 -0.2000"/>
</g>
<g class="note">
<path transform="translate(67.6173, 13.2730) scale(0.0040, -0.0040)" d="M218 136c55 0 108 -28 108 -89c0 -71 -55 -121 -102 -149c-35 -21 -75 -34 -116 -34c-55 0 -108 28 -108 89c0 71 55 121 102 149c35 21 75 34 116 34z" fill="currentColor"/>
</g>
<g class="note">
<path transform="translate(67.6173, 12.2730) scale(0.0040, -0.0040)" d="M218 136c55 0 108 -28 108 -89c0 -71 -55 -121 -102 -149c-35 -21 -75 -34 -116 -34c-55 0 -108 28 -108 89c0 71 55 121 102 149c35 21 75 34 116 34z" fill="currentColor"/>
</g>
<g class="note">
<path transform="translate(67.6173, 9.7730) scale(0.0040, -0.0040)" d="M218 136c55 0 108 -28 108 -89c0 -71 -55 -121 -102 -149c-35 -21 -75 -34 -116 -34c-55 0 -108 28 -108 89c0 71 55 121 102 149c35 21 75 34 116 34z" fill="currentColor"/>
</g>
<g class="note">
<path transform="translate(67.6173, 8.2730) scale(0.0040, -0.0040)" d="M218 136c55 0 108 -28 108 -89c0 -71 -55 -121 -102 -149c-35 -21 -75 -34 -116 -34c-55 0 -108 28 -108 89c0 71 55 121 102 149c35 21 75 34 116 34z" fill="currentColor"/>
</g>
<g class="note">
<path transform="translate(67.6173, 6.2730) scale(0.0040, -0.0040)" d="M218 136c55 0 108 -28 108 -89c0 -71 -55 -121 -102 -149c-35 -21 -75 -34 -116 -34c-55 0 -108 28 -108 89c0 71 55 121 102 149c35 21 75 34 116 34z" fill="currentColor"/>
</g>
<g class="note">
<path transform="translate(68.8566, 5.7730) scale(0.0040, -0.0040)" d="M218 136c55 0 108 -28 108 -89c0 -71 -55 -121 -102 -149c-35 -21 -75 -34 -116 -34c-55 0 -108 28 -108 89c0 71 55 121 102 149c35 21 75 34 116 34z" fill="currentColor"/>
</g>
<path transform="translate(68.2694, 2.9970) scale(0.0040, -0.0040)" d="M-67 48c0 37 30 67 67 67s67 -30 67 -67s-30 -67 -67 -67s-67 30 -67 67zM0 363c157 0 332 -176 332 -366c0 -9 -10 -15 -19 -15s-17 5 -19 18c-26 148 -146 262 -294 262s-268 -114 -294 -262c-2 -13 -10 -18 -19 -18s-19 6 -19 15c0 190 175 366 332 366z" fill="currentColor"/>
<rect transform="translate(68.8566, 9.2730)" x="-0.0650" y="-6.0000" width="0.1300" height="9.8139" ry="0.0400" fill="currentColor"/>
<g class="note">
<path transform="translate(73.0216, 6.2730) scale(0.0040, -0.0040)" d="M218 136c55 0 108 -28 108 -89c0 -71 -55 -121 -102 -149c-35 -21 -75 -34 -116 -34c-55 0 -108 28 -108 89c0 71 55 121 102 149c35 21 75 34 116 34z" fill="currentColor"/>
</g>
<g class="note">
<path transform="translate(73.0216, 3.7730) scale(0.0040, -0.0040)" d="M218 136c55 0 108 -28 108 -89c0 -71 -55 -121 -102 -149c-35 -21 -75 -34 -116 -34c-55 0 -108 28 -108 89c0 71 55 121 102 149c35 21 75 34 116 34z" fill="currentColor"/>
</g>
<g class="note">
<path transform="translate(73.0216, 2.2730) scale(0.0040, -0.0040)" d="M218 136c55 0 108 -28 108 -89c0 -71 -55 -121 -102 -149c-35 -21 -75 -34 -116 -34c-55 0 -108 28 -108 89c0 71 55 121 102 149c35 21 75 34 116 34z" fill="currentColor"/>
</g>
<g class="note">
<path transform="translate(73.0216, 13.2730) scale(0.0040, -0.0040)" d="M218 136c55 0 108 -28 108 -89c0 -71 -55 -121 -102 -149c-35 -21 -75 -34 -116 -34c-55 0 -108 28 -108 89c0 71 55 121 102 149c35 21 75 34 116 34z" fill="currentColor"/>
</g>
<g class="note">
<path transform="translate(71.7823, 6.2730) scale(0.0040, -0.0040)" d="M218 136c55 0 108 -28 108 -89c0 -71 -55 -121 -102 -149c-35 -21 -75 -34 -116 -34c-55 0 -108 28 -108 89c0 71 55 121 102 149c35 21 75 34 116 34z" fill="currentColor"/>
</g>
<rect transform="translate(19.7098, 20.0510)" x="-0.0650" y="-5.4598" width="0.1300" height="5.7737" ry="0.0400" fill="currentColor"/>
<g class="note">
<path transform="translate(21.2248, 18.0510) scale(0.0040, -0.0040)" d="M218 136c55 0 108 -28 108 -89c0 -71 -55 -121 -102 -149c-35 -21 -75 -34 -116 -34c-55 0 -108 28 -108 89c0 71 55 121 102 149c35 21 75 34 116 34z" fill="currentColor"/>
</g>
<rect transform="translate(22.4640, 20.0510)" x="-0.0650" y="-5.5262" width="0.1300" height="3.3400" ry="0.0400" fill="currentColor"/>
<g class="note">
<path transform="translate(24.9032, 11.2730) scale(0.0040, -0.0040)" d="M218 136c55 0 108 -28 108 -89c0 -71 -55 -121 -102 -149c-35 -21 -75 -34 -116 -34c-55 0 -108 28 -108 89c0 71 55 121 102 149c35 21 75 34 116 34z" fill="currentColor"/>
</g>
<g class="note">
<path transform="translate(24.9032, 8.7730) scale(0.0040, -0.0040)" d="M218 136c55 0 108 -28 108 -89c0 -71 -55 -121 -102 -149c-35 -21 -75 -34 -116 -34c-55 0 -108 28 -108 89c0 71 55 121 102 149c35 21 75 34 116 34z" fill="currentColor"/>
</g>
<rect transform="translate(24.9682, 9.2730)" x="-0.0650" y="-0.3139" width="0.1300" height="6.3155" ry="0.0400" fill="currentColor"/>
<g class="note">
<path transform="translate(18.4706, 20.5510) scale(0.0040, -0.0040)" d="M218 136c55 0 108 -28 108 -89c0 -71 -55 -121 -102 -149c-35 -21 -75 -34 -116 -34c-55 0 -108 28 -108 89c0 71 55 121 102 149c35 21 75 34 116 34z" fill="currentColor"/>
</g>
<g class="note">
<path transform="translate(27.4074, 11.2730) scale(0.0040, -0.0040)" d="M218 136c55 0 108 -28 108 -89c0 -71 -55 -121 -102 -149c-35 -21 -75 -34 -116 -34c-55 0 -108 28 -108 89c0 71 55 121 102 149c35 21 75 34 116 34z" fill="currentColor"/>
</g>
<g class="note">
<path transform="translate(27.4074, 9.7730) scale(0.0040, -0.0040)" d="M218 136c55 0 108 -28 108 -89c0 -71 -55 -121 -102 -149c-35 -21 -75 -34 -116 -34c-55 0 -108 28 -108 89c0 71 55 121 102 149c35 21 75 34 116 34z" fill="currentColor"/>
</g>
<rect transform="translate(27.4724, 9.2730)" x="-0.0650" y="0.6861" width="0.1300" height="5.8113" ry="0.0400" fill="currentColor"/>
<rect transform="translate(47.0255, 9.2730)" x="-0.0650" y="3.6861" width="0.1300" height="3.1296" ry="0.0400" fill="currentColor"/>
<g class="note">
<path transform="translate(28.7374, 20.5510) scale(0.0040, -0.0040)" d="M218 136c55 0 108 -28 108 -89c0 -71 -55 -121 -102 -149c-35 -21 -75 -34 -116 -34c-55 0 -108 28 -108 89c0 71 55 121 102 149c35 21 75 34 116 34z" fill="currentColor"/>
</g>
<rect transform="translate(29.9766, 20.0510)" x="-0.0650" y="-5.1922" width="0.1300" height="5.5061" ry="0.0400" fill="currentColor"/>
<g class="clef">
<path transform="translate(9.3358, 19.0510) scale(0.0040, -0.0040)" d="M557 -125c0 28 23 51 51 51s51 -23 51 -51s-23 -51 -51 -51s-51 23 -51 51zM557 125c0 28 23 51 51 51s51 -23 51 -51s-23 -51 -51 -51s-51 23 -51 51zM232 263c172 0 293 -88 293 -251c0 -263 -263 -414 -516 -521c-3 -3 -6 -4 -9 -4c-7 0 -13 6 -13 13c0 3 1 6 4 9
c202 118 412 265 412 493c0 120 -63 235 -171 235c-74 0 -129 -54 -154 -126c11 5 22 8 34 8c55 0 100 -45 100 -100c0 -58 -44 -106 -100 -106c-60 0 -112 47 -112 106c0 133 102 244 232 244z" fill="currentColor"/>
</g>
<path transform="translate(8.1158, 14.6620) scale(0.0040, -0.0040)" d="M-16 -560c0 -300 -112 -592 -112 -876c0 -152 32 -292 140 -408c4 -4 4 -8 4 -12c0 -8 -8 -16 -16 -16c-4 0 -8 0 -12 4c-144 152 -192 356 -192 564c0 304 120 600 120 888c0 152 -32 292 -140 408c0 4 -4 4 -4 8s4 4 4 8c108 116 140 256 140 408
c0 288 -120 584 -120 888c0 208 48 412 192 564c4 4 8 4 12 4c8 0 16 -8 16 -16c0 -4 0 -8 -4 -12c-108 -116 -140 -256 -140 -408c0 -284 112 -576 112 -876c0 -208 -44 -408 -184 -560c140 -152 184 -352 184 -560z" fill="currentColor"/>
<rect transform="translate(8.4158, 14.6620)" x="0.0000" y="-7.4390" width="0.1600" height="14.8780" ry="0.0500" fill="currentColor"/>
<rect transform="translate(8.4758, 14.6620)" x="0.0000" y="-7.4390" width="0.1600" height="14.8780" ry="0.0500" fill="currentColor"/>
<g class="note">
<path transform="translate(17.1406, 10.7730) scale(0.0040, -0.0040)" d="M218 136c55 0 108 -28 108 -89c0 -71 -55 -121 -102 -149c-35 -21 -75 -34 -116 -34c-55 0 -108 28 -108 89c0 71 55 121 102 149c35 21 75 34 116 34z" fill="currentColor"/>
</g>
<g class="note">
<path transform="translate(17.1406, 8.7730) scale(0.0040, -0.0040)" d="M218 136c55 0 108 -28 108 -89c0 -71 -55 -121 -102 -149c-35 -21 -75 -34 -116 -34c-55 0 -108 28 -108 89c0 71 55 121 102 149c35 21 75 34 116 34z" fill="currentColor"/>
</g>
<g class="clef">
<path transform="translate(9.3358, 10.2730) scale(0.0040, -0.0040)" d="M376 262c4 0 9 1 13 1c155 0 256 -128 256 -261c0 -76 -33 -154 -107 -210c-22 -17 -47 -28 -73 -36c3 -35 5 -70 5 -105c0 -19 -1 -39 -2 -58c-7 -120 -90 -228 -208 -228c-108 0 -195 88 -195 197c0 58 53 103 112 103c54 0 95 -47 95 -103c0 -52 -43 -95 -95 -95
c-11 0 -21 2 -31 6c26 -39 68 -65 117 -65c96 0 157 92 163 191c1 18 2 37 2 55c0 31 -1 61 -4 92c-29 -5 -58 -8 -89 -8c-188 0 -333 172 -333 374c0 177 131 306 248 441c-19 62 -37 125 -45 190c-6 52 -7 104 -7 156c0 115 55 224 149 292c3 2 7 3 10 3c4 0 7 0 10 -3
c71 -84 133 -245 133 -358c0 -143 -86 -255 -180 -364c21 -68 39 -138 56 -207zM461 -203c68 24 113 95 113 164c0 90 -66 179 -173 190c24 -116 46 -231 60 -354zM74 28c0 -135 129 -247 264 -247c28 0 55 2 82 6c-14 127 -37 245 -63 364c-79 -8 -124 -61 -124 -119
c0 -44 25 -91 81 -123c5 -5 7 -10 7 -15c0 -11 -10 -22 -22 -22c-3 0 -6 1 -9 2c-80 43 -117 115 -117 185c0 88 58 174 160 197c-14 58 -29 117 -46 175c-107 -121 -213 -243 -213 -403zM408 1045c-99 -48 -162 -149 -162 -259c0 -74 18 -133 36 -194
c80 97 146 198 146 324c0 55 -4 79 -20 129z" fill="currentColor"/>
</g>
<g class="meterSig">
<path transform="translate(13.5358, 9.2730) scale(0.0040, -0.0040)" d="M204 307c22 14 44 29 60 50c11 15 19 33 27 50c2 4 5 6 9 6c6 0 13 -5 13 -14v-245h72c10 0 15 -7 15 -14s-5 -15 -15 -15h-72v-8c0 -48 27 -94 72 -94c8 0 12 -5 12 -11s-4 -12 -12 -12c-44 0 -87 13 -131 13s-87 -13 -131 -13c-8 0 -12 6 -12 12s4 11 12 11
c45 0 73 46 73 94v8h-167c-23 0 -31 14 -31 23c0 3 1 5 2 6c80 93 138 207 138 330c0 9 6 16 13 16h3c23 -7 47 -13 71 -13s48 6 71 13c2 1 3 1 5 1c11 0 18 -10 12 -17l-284 -330h167v131c0 8 1 17 8 22z" fill="currentColor"/>
<path transform="translate(13.5358, 11.3216) scale(0.0040, -0.0040)" d="M204 307c22 14 44 29 60 50c11 15 19 33 27 50c2 4 5 6 9 6c6 0 13 -5 13 -14v-245h72c10 0 15 -7 15 -14s-5 -15 -15 -15h-72v-8c0 -48 27 -94 72 -94c8 0 12 -5 12 -11s-4 -12 -12 -12c-44 0 -87 13 -131 13s-87 -13 -131 -13c-8 0 -12 6 -12 12s4 11 12 11
c45 0 73 46 73 94v8h-167c-23 0 -31 14 -31 23c0 3 1 5 2 6c80 93 138 207 138 330c0 9 6 16 13 16h3c23 -7 47 -13 71 -13s48 6 71 13c2 1 3 1 5 1c11 0 18 -10 12 -17l-284 -330h167v131c0 8 1 17 8 22z" fill="currentColor"/>
</g>
<g class="meterSig">
<path transform="translate(13.5358, 20.0510) scale(0.0040, -0.0040)" d="M204 307c22 14 44 29 60 50c11 15 19 33 27 50c2 4 5 6 9 6c6 0 13 -5 13 -14v-245h72c10 0 15 -7 15 -14s-5 -15 -15 -15h-72v-8c0 -48 27 -94 72 -94c8 0 12 -5 12 -11s-4 -12 -12 -12c-44 0 -87 13 -131 13s-87 -13 -131 -13c-8 0 -12 6 -12 12s4 11 12 11
c45 0 73 46 73 94v8h-167c-23 0 -31 14 -31 23c0 3 1 5 2 6c80 93 138 207 138 330c0 9 6 16 13 16h3c23 -7 47 -13 71 -13s48 6 71 13c2 1 3 1 5 1c11 0 18 -10 12 -17l-284 -330h167v131c0 8 1 17 8 22z" fill="currentColor"/>
<path transform="translate(13.5358, 22.0996) scale(0.0040, -0.0040)" d="M204 307c22 14 44 29 60 50c11 15 19 33 27 50c2 4 5 6 9 6c6 0 13 -5 13 -14v-245h72c10 0 15 -7 15 -14s-5 -15 -15 -15h-72v-8c0 -48 27 -94 72 -94c8 0 12 -5 12 -11s-4 -12 -12 -12c-44 0 -87 13 -131 13s-87 -13 -131 -13c-8 0 -12 6 -12 12s4 11 12 11
c45 0 73 46 73 94v8h-167c-23 0 -31 14 -31 23c0 3 1 5 2 6c80 93 138 207 138 330c0 9 6 16 13 16h3c23 -7 47 -13 71 -13s48 6 71 13c2 1 3 1 5 1c11 0 18 -10 12 -17l-284 -330h167v131c0 8 1 17 8 22z" fill="currentColor"/>
</g>
<rect transform="translate(17.2056, 9.2730)" x="-0.0650" y="-0.3139" width="0.1300" height="6.5023" ry="0.0400" fill="currentColor"/>
<rect transform="translate(41.7671, 20.0510)" x="-0.0650" y="-4.3126" width="0.1300" height="4.6265" ry="0.0400" fill="currentColor"/>
<g class="note">
<path transform="translate(39.1979, 11.7730) scale(0.0040, -0.0040)" d="M218 136c55 0 108 -28 108 -89c0 -71 -55 -121 -102 -149c-35 -21 -75 -34 -116 -34c-55 0 -108 28 -108 89c0 71 55 121 102 149c35 21 75 34 116 34z" fill="currentColor"/>
</g>
<g class="clef">
<path transform="translate(36.1458, 21.0510) scale(0.0040, -0.0040)" d="M518 1c0 -82 -56 -168 -141 -197c2 -27 3 -54 3 -81c0 -16 0 -33 -1 -49c-6 -99 -75 -186 -173 -186c-87 0 -159 72 -159 160c0 46 42 83 90 83c43 0 76 -38 76 -83c0 -42 -34 -76 -76 -76c-4 0 -6 0 -10 1c19 -26 47 -42 81 -42c75 0 124 72 129 149c1 15 1 30 1 45
c0 23 -1 46 -3 69c-22 -4 -44 -6 -67 -6c-151 0 -266 139 -266 302c0 144 101 254 191 367c-16 53 -31 105 -37 160c-5 42 -5 85 -5 128c0 93 42 181 115 239c3 2 6 3 9 3c4 0 8 -1 11 -4c57 -69 107 -202 107 -295c0 -115 -63 -207 -135 -297c17 -59 33 -119 47 -179h1
c2 0 4 1 6 1c126 0 206 -105 206 -212zM373 -155c50 20 81 75 81 125c0 68 -48 136 -127 147c19 -89 35 -178 46 -272zM63 19c0 -104 102 -188 208 -188c21 0 40 1 60 4c-11 98 -28 191 -48 283c-59 -7 -93 -48 -93 -92c0 -34 21 -70 64 -95c5 -5 6 -10 6 -15
c0 -11 -9 -22 -21 -22c-3 0 -6 1 -9 2c-65 35 -95 93 -95 150c0 71 46 141 128 161c-11 48 -24 95 -38 143c-82 -101 -162 -202 -162 -331zM319 860c-76 -44 -123 -124 -123 -211c0 -56 15 -104 29 -151c59 79 107 162 107 261c0 43 -2 61 -13 101z" fill="currentColor"/>
</g>
<rect transform="translate(39.2629, 9.2730)" x="-0.0650" y="2.6861" width="0.1300" height="4.8082" ry="0.0400" fill="currentColor"/>
<g class="note">
<path transform="translate(40.5279, 20.5510) scale(0.0040, -0.0040)" d="M218 136c55 0 108 -28 108 -89c0 -71 -55 -121 -102 -149c-35 -21 -75 -34 -116 -34c-55 0 -108 28 -108 89c0 71 55 121 102 149c35 21 75 34 116 34z" fill="currentColor"/>
</g>
<g class="note">
<path transform="translate(43.2821, 18.0510) scale(0.0040, -0.0040)" d="M218 136c55 0 108 -28 108 -89c0 -71 -55 -121 -102 -149c-35 -21 -75 -34 -116 -34c-55 0 -108 28 -108 89c0 71 55 121 102 149c35 21 75 34 116 34z" fill="currentColor"/>
</g>
<rect transform="translate(44.5213, 20.0510)" x="-0.0650" y="-4.5534" width="0.1300" height="2.3673" ry="0.0400" fill="currentColor"/>
<g class="note">
<path transform="translate(46.9605, 13.7730) scale(0.0040, -0.0040)" d="M218 136c55 0 108 -28 108 -89c0 -71 -55 -121 -102 -149c-35 -21 -75 -34 -116 -34c-55 0 -108 28 -108 89c0 71 55 121 102 149c35 21 75 34 116 34z" fill="currentColor"/>
</g>
<g class="note">
<path transform="translate(46.9605, 12.7730) scale(0.0040, -0.0040)" d="M218 136c55 0 108 -28 108 -89c0 -71 -55 -121 -102 -149c-35 -21 -75 -34 -116 -34c-55 0 -108 28 -108 89c0 71 55 121 102 149c35 21 75 34 116 34z" fill="currentColor"/>
</g>
<g class="note">
<path transform="translate(32.4158, 10.2730) scale(0.0040, -0.0040)" d="M218 136c55 0 108 -28 108 -89c0 -71 -55 -121 -102 -149c-35 -21 -75 -34 -116 -34c-55 0 -108 28 -108 89c0 71 55 121 102 149c35 21 75 34 116 34z" fill="currentColor"/>
</g>
<g class="note">
<path transform="translate(33.7458, 18.0510) scale(0.0040, -0.0040)" d="M218 136c55 0 108 -28 108 -89c0 -71 -55 -121 -102 -149c-35 -21 -75 -34 -116 -34c-55 0 -108 28 -108 89c0 71 55 121 102 149c35 21 75 34 116 34z" fill="currentColor"/>
</g>
<rect transform="translate(32.4808, 9.2730)" x="-0.0650" y="1.1861" width="0.1300" height="5.1081" ry="0.0400" fill="currentColor"/>
<rect transform="translate(34.9850, 20.0510)" x="-0.0650" y="-5.3954" width="0.1300" height="3.2093" ry="0.0400" fill="currentColor"/>
<g class="note">
<path transform="translate(32.4158, 11.7730) scale(0.0040, -0.0040)" d="M218 136c55 0 108 -28 108 -89c0 -71 -55 -121 -102 -149c-35 -21 -75 -34 -116 -34c-55 0 -108 28 -108 89c0 71 55 121 102 149c35 21 75 34 116 34z" fill="currentColor"/>
</g>
<g class="note">
<path transform="translate(39.1979, 14.2730) scale(0.0040, -0.0040)" d="M218 136c55 0 108 -28 108 -89c0 -71 -55 -121 -102 -149c-35 -21 -75 -34 -116 -34c-55 0 -108 28 -108 89c0 71 55 121 102 149c35 21 75 34 116 34z" fill="currentColor"/>
</g>
</svg>
