<svg xmlns="http://www.w3.org/2000/svg" xmlns:xlink="http://www.w3.org/1999/xlink" version="1.2" width="57.67mm" height="14.23mm" viewBox="0.0414 -0.0000 32.8183 8.0950">
<style text="style/css">
<![CDATA[
tspan { white-space: pre; }
]]>
</style>
<line transform="translate(8.5358, 6.5450)" stroke-linejoin="round" stroke-linecap="round" stroke-width="0.1000" stroke="currentColor" x1="0.0500" y1="-0.0000" x2="24.3239" y2="-0.0000"/>
<line transform="translate(8.5358, 5.5450)" stroke-linejoin="round" stroke-linecap="round" stroke-width="0.1000" stroke="currentColor" x1="0.0500" y1="-0.0000" x2="24.3239" y2="-0.0000"/>
<line transform="translate(8.5358, 4.5450)" stroke-linejoin="round" stroke-linecap="round" stroke-width="0.1000" stroke="currentColor" x1="0.0500" y1="-0.0000" x2="24.3239" y2="-0.0000"/>
<line transform="translate(8.5358, 3.5450)" stroke-linejoin="round" stroke-linecap="round" stroke-width="0.1000" stroke="currentColor" x1="0.0500" y1="-0.0000" x2="24.3239" y2="-0.0000"/>
<line transform="translate(8.5358, 2.5450)" stroke-linejoin="round" stroke-linecap="round" stroke-width="0.1000" stroke="currentColor" x1="0.0500" y1="-0.0000" x2="24.3239" y2="-0.0000"/>
<rect transform="translate(0.0000, 0.5450)" x="21.4169" y="-0.1000" width="2.0660" height="0.2000" ry="0.1000" fill="currentColor"/>
<rect transform="translate(0.0000, 1.5450)" x="21.4169" y="-0.1000" width="2.0660" height="0.2000" ry="0.1000" fill="currentColor"/>
<rect transform="translate(25.8937, 4.5450)" x="0.0000" y="-2.0000" width="0.1900" height="4.0000" ry="0.0000" fill="currentColor"/>
<g class="note">
<path transform="translate(27.1552, 2.0450) scale(0.0040, -0.0040)" d="M218 136c55 0 108 -28 108 -89c0 -71 -55 -121 -102 -149c-35 -21 -75 -34 -116 -34c-55 0 -108 28 -108 89c0 71 55 121 102 149c35 21 75 34 116 34z" fill="currentColor"/>
</g>
<rect transform="translate(27.2202, 4.5450)" x="-0.0650" y="-2.3139" width="0.1300" height="3.3139" ry="0.0400" fill="currentColor"/>
<g class="note">
<path transform="translate(29.9074, 3.0450) scale(0.0040, -0.0040)" d="M218 136c55 0 108 -28 108 -89c0 -71 -55 -121 -102 -149c-35 -21 -75 -34 -116 -34c-55 0 -108 28 -108 89c0 71 55 121 102 149c35 21 75 34 116 34z" fill="currentColor"/>
</g>
<rect transform="translate(29.9724, 4.5450)" x="-0.0650" y="-1.3139" width="0.1300" height="3.3139" ry="0.0400" fill="currentColor"/>
<g class="note">
<path transform="translate(21.7612, 0.5450) scale(0.0040, -0.0040)" d="M314 65c0 24 -21 41 -42 41c-4 0 -8 0 -12 -1c-31 -9 -78 -40 -115 -64s-84 -53 -104 -78c-7 -8 -10 -18 -10 -28c0 -24 21 -41 42 -41c4 0 8 0 12 1c31 9 77 40 114 64s84 53 104 78c7 8 11 18 11 28zM262 136c46 0 82 -21 82 -71c0 -19 -4 -39 -10 -57
c-12 -37 -32 -72 -64 -94c-53 -36 -113 -50 -187 -50c-46 0 -83 21 -83 71c0 19 5 39 11 57c12 37 31 72 63 94c53 36 114 50 188 50z" fill="currentColor"/>
</g>
<text transform="translate(0.0414, 5.3644)" font-family="serif" font-size="2.2001" text-anchor="start" fill="currentColor">
<tspan>Violino</tspan>
</text>
<g class="note">
<path transform="translate(17.2358, 4.0450) scale(0.0040, -0.0040)" d="M314 65c0 24 -21 41 -42 41c-4 0 -8 0 -12 -1c-31 -9 -78 -40 -115 -64s-84 -53 -104 -78c-7 -8 -10 -18 -10 -28c0 -24 21 -41 42 -41c4 0 8 0 12 1c31 9 77 40 114 64s84 53 104 78c7 8 11 18 11 28zM262 136c46 0 82 -21 82 -71c0 -19 -4 -39 -10 -57
c-12 -37 -32 -72 -64 -94c-53 -36 -113 -50 -187 -50c-46 0 -83 21 -83 71c0 19 5 39 11 57c12 37 31 72 63 94c53 36 114 50 188 50z" fill="currentColor"/>
</g>
<g class="clef">
<path transform="translate(9.3358, 5.5450) scale(0.0040, -0.0040)" d="M376 262c4 0 9 1 13 1c155 0 256 -128 256 -261c0 -76 -33 -154 -107 -210c-22 -17 -47 -28 -73 -36c3 -35 5 -70 5 -105c0 -19 -1 -39 -2 -58c-7 -120 -90 -228 -208 -228c-108 0 -195 88 -195 197c0 58 53 103 112 103c54 0 95 -47 95 -103c0 -52 -43 -95 -95 -95
c-11 0 -21 2 -31 6c26 -39 68 -65 117 -65c96 0 157 92 163 191c1 18 2 37 2 55c0 31 -1 61 -4 92c-29 -5 -58 -8 -89 -8c-188 0 -333 172 -333 374c0 177 131 306 248 441c-19 62 -37 125 -45 190c-6 52 -7 104 -7 156c0 115 55 224 149 292c3 2 7 3 10 3c4 0 7 0 10 -3
c71 -84 133 -245 133 -358c0 -143 -86 -255 -180 -364c21 -68 39 -138 56 -207zM461 -203c68 24 113 95 113 164c0 90 -66 179 -173 190c24 -116 46 -231 60 -354zM74 28c0 -135 129 -247 264 -247c28 0 55 2 82 6c-14 127 -37 245 -63 364c-79 -8 -124 -61 -124 -119
c0 -44 25 -91 81 -123c5 -5 7 -10 7 -15c0 -11 -10 -22 -22 -22c-3 0 -6 1 -9 2c-80 43 -117 115 -117 185c0 88 58 174 160 197c-14 58 -29 117 -46 175c-107 -121 -213 -243 -213 -403zM408 1045c-99 -48 -162 -149 -162 -259c0 -74 18 -133 36 -194
c80 97 146 198 146 324c0 55 -4 79 -20 129z" fill="currentColor"/>
</g>
<g class="meterSig">
<path transform="translate(13.5358, 4.5450) scale(0.0040, -0.0040)" d="M359 27c-49 0 -75 42 -75 75c0 38 27 77 72 77c4 0 9 0 14 -1c-28 37 -72 59 -120 59h-13v-474c4 0 9 -1 13 -1c80 0 139 70 158 151c2 7 7 10 12 10c6 0 13 -4 13 -12c0 -94 -105 -174 -183 -174c-4 0 -9 1 -13 1v-78c0 -6 -4 -10 -10 -10h-17c-6 0 -10 4 -10 10v81
c-51 8 -99 29 -134 66c-49 51 -66 122 -66 193s17 142 66 193c35 37 83 58 134 66v81c0 6 4 10 10 10h17c6 0 10 -4 10 -10v-78h13c87 0 160 -64 175 -150c1 -5 1 -9 1 -13c0 -40 -30 -72 -67 -72zM200 -230v460c-58 -22 -63 -87 -63 -179v-51v-51c0 -92 5 -157 63 -179z
" fill="currentColor"/>
</g>
<rect transform="translate(17.3008, 4.5450)" x="-0.0650" y="-0.2410" width="0.1300" height="3.2410" ry="0.0400" fill="currentColor"/>
<rect transform="translate(21.8262, 4.5450)" x="-0.0650" y="-3.7410" width="0.1300" height="3.7410" ry="0.0400" fill="currentColor"/>
</svg>
