<svg xmlns="http://www.w3.org/2000/svg" xmlns:xlink="http://www.w3.org/1999/xlink" version="1.2" width="175.00mm" height="21.33mm" viewBox="8.5358 -0.0002 99.5846 12.1369">
<style text="style/css">
<![CDATA[
tspan { white-space: pre; }
]]>
</style>
<line transform="translate(8.5358, 10.1918)" stroke-linejoin="round" stroke-linecap="round" stroke-width="0.1000" stroke="currentColor" x1="0.0500" y1="-0.0000" x2="99.5346" y2="-0.0000"/>
<line transform="translate(8.5358, 9.1918)" stroke-linejoin="round" stroke-linecap="round" stroke-width="0.1000" stroke="currentColor" x1="0.0500" y1="-0.0000" x2="99.5346" y2="-0.0000"/>
<line transform="translate(8.5358, 8.1918)" stroke-linejoin="round" stroke-linecap="round" stroke-width="0.1000" stroke="currentColor" x1="0.0500" y1="-0.0000" x2="99.5346" y2="-0.0000"/>
<line transform="translate(8.5358, 7.1918)" stroke-linejoin="round" stroke-linecap="round" stroke-width="0.1000" stroke="currentColor" x1="0.0500" y1="-0.0000" x2="99.5346" y2="-0.0000"/>
<line transform="translate(8.5358, 6.1918)" stroke-linejoin="round" stroke-linecap="round" stroke-width="0.1000" stroke="currentColor" x1="0.0500" y1="-0.0000" x2="99.5346" y2="-0.0000"/>
<rect transform="translate(0.0000, 11.1918)" x="101.6534" y="-0.1000" width="1.2534" height="0.2000" ry="0.1000" fill="currentColor"/>
<rect transform="translate(0.0000, 5.1918)" x="76.7786" y="-0.1000" width="1.3768" height="0.2000" ry="0.1000" fill="currentColor"/>
<rect transform="translate(0.0000, 5.1918)" x="74.4315" y="-0.1000" width="1.3768" height="0.2000" ry="0.1000" fill="currentColor"/>
<rect transform="translate(0.0000, 4.1918)" x="72.1283" y="-0.1000" width="1.3329" height="0.2000" ry="0.1000" fill="currentColor"/>
<rect transform="translate(0.0000, 5.1918)" x="72.0843" y="-0.1000" width="1.3768" height="0.2000" ry="0.1000" fill="currentColor"/>
<rect transform="translate(0.0000, 4.1918)" x="69.7372" y="-0.1000" width="1.3768" height="0.2000" ry="0.1000" fill="currentColor"/>
<rect transform="translate(0.0000, 5.1918)" x="69.7372" y="-0.1000" width="1.3768" height="0.2000" ry="0.1000" fill="currentColor"/>
<rect transform="translate(107.5205, 8.1918)" x="0.0000" y="-2.0000" width="0.6000" height="4.0000" ry="0.0000" fill="currentColor"/>
<rect transform="translate(107.0305, 8.1918)" x="0.0000" y="-2.0000" width="0.1900" height="4.0000" ry="0.0000" fill="currentColor"/>
<path transform="translate(71.5228, 4.1918) scale(0.0025, -0.0025)" d="M-9 375c9 5 19 8 29 8s19 -3 28 -8l-3 -202l97 26c2 0 3 1 5 1c11 0 20 -9 20 -20l8 -555c-9 -5 -18 -8 -28 -8s-20 3 -29 8l3 202l-96 -26c-2 0 -3 -1 -5 -1c-11 0 -20 9 -20 20zM126 108l-82 -22l-3 -194l82 22z" fill="currentColor"/>
<rect transform="translate(80.2081, 8.1918)" x="-0.0650" y="-6.9661" width="0.1300" height="4.3517" ry="0.0400" fill="currentColor"/>
<g class="note" id="p1cgd5n1536g16800v1b5s1">
<path transform="translate(79.3552, 5.6918) scale(0.0028, -0.0028)" d="M208 139c61 0 117 -33 117 -99c0 -71 -52 -119 -99 -147c-34 -20 -71 -32 -110 -32c-61 0 -116 33 -116 99c0 71 51 119 98 147c34 20 71 32 110 32z" fill="currentColor"/>
</g>
<rect transform="translate(77.8610, 8.1918)" x="-0.0650" y="-7.2228" width="0.1300" height="4.1084" ry="0.0400" fill="currentColor"/>
<g class="note" id="p1cad5n1536g16800v1b5s1">
<path transform="translate(77.0081, 5.1918) scale(0.0028, -0.0028)" d="M208 139c61 0 117 -33 117 -99c0 -71 -52 -119 -99 -147c-34 -20 -71 -32 -110 -32c-61 0 -116 33 -116 99c0 71 51 119 98 147c34 20 71 32 110 32z" fill="currentColor"/>
</g>
<rect transform="translate(75.5138, 8.1918)" x="-0.0650" y="-7.4795" width="0.1300" height="3.8651" ry="0.0400" fill="currentColor"/>
<g class="note" id="p1cbd5n1536g16800v1b5s1">
<path transform="translate(74.6609, 4.6918) scale(0.0028, -0.0028)" d="M208 139c61 0 117 -33 117 -99c0 -71 -52 -119 -99 -147c-34 -20 -71 -32 -110 -32c-61 0 -116 33 -116 99c0 71 51 119 98 147c34 20 71 32 110 32z" fill="currentColor"/>
</g>
<rect transform="translate(84.9024, 8.1918)" x="-0.0650" y="-6.4527" width="0.1300" height="4.8383" ry="0.0400" fill="currentColor"/>
<rect transform="translate(62.5457, 8.1918)" x="-0.0650" y="-0.3139" width="0.1300" height="3.3139" ry="0.0400" fill="currentColor"/>
<rect transform="translate(87.2495, 8.1918)" x="-0.0650" y="-6.1960" width="0.1300" height="5.0816" ry="0.0400" fill="currentColor"/>
<g class="note" id="p1cdd5n1536g16800v1b5s1">
<path transform="translate(86.3966, 7.1918) scale(0.0028, -0.0028)" d="M208 139c61 0 117 -33 117 -99c0 -71 -52 -119 -99 -147c-34 -20 -71 -32 -110 -32c-61 0 -116 33 -116 99c0 71 51 119 98 147c34 20 71 32 110 32z" fill="currentColor"/>
</g>
<g class="note" id="p1ced5n1536g16800v1b5s1">
<path transform="translate(84.0495, 6.6918) scale(0.0028, -0.0028)" d="M208 139c61 0 117 -33 117 -99c0 -71 -52 -119 -99 -147c-34 -20 -71 -32 -110 -32c-61 0 -116 33 -116 99c0 71 51 119 98 147c34 20 71 32 110 32z" fill="currentColor"/>
</g>
<path transform="translate(80.9114, 6.1918) scale(0.0025, -0.0025)" d="M-9 375c9 5 19 8 29 8s19 -3 28 -8l-3 -202l97 26c2 0 3 1 5 1c11 0 20 -9 20 -20l8 -555c-9 -5 -18 -8 -28 -8s-20 3 -29 8l3 202l-96 -26c-2 0 -3 -1 -5 -1c-11 0 -20 9 -20 20zM126 108l-82 -22l-3 -194l82 22z" fill="currentColor"/>
<rect transform="translate(82.5552, 8.1918)" x="-0.0650" y="-6.7094" width="0.1300" height="4.5950" ry="0.0400" fill="currentColor"/>
<g class="note" id="p1cfd5n1536g16800v1b5s1">
<path transform="translate(81.7024, 6.1918) scale(0.0028, -0.0028)" d="M208 139c61 0 117 -33 117 -99c0 -71 -52 -119 -99 -147c-34 -20 -71 -32 -110 -32c-61 0 -116 33 -116 99c0 71 51 119 98 147c34 20 71 32 110 32z" fill="currentColor"/>
</g>
<rect transform="translate(67.6546, 8.1918)" x="-0.0650" y="-3.5260" width="0.1300" height="2.4115" ry="0.0400" fill="currentColor"/>
<g class="note" id="p1cdd5n256g10500v1b4s1">
<path transform="translate(66.8017, 7.1918) scale(0.0028, -0.0028)" d="M208 139c61 0 117 -33 117 -99c0 -71 -52 -119 -99 -147c-34 -20 -71 -32 -110 -32c-61 0 -116 33 -116 99c0 71 51 119 98 147c34 20 71 32 110 32z" fill="currentColor"/>
</g>
<path transform="translate(64.7928, 7.6918) scale(0.0025, -0.0025)" d="M-9 375c9 5 19 8 29 8s19 -3 28 -8l-3 -202l97 26c2 0 3 1 5 1c11 0 20 -9 20 -20l8 -555c-9 -5 -18 -8 -28 -8s-20 3 -29 8l3 202l-96 -26c-2 0 -3 -1 -5 -1c-11 0 -20 9 -20 20zM126 108l-82 -22l-3 -194l82 22z" fill="currentColor"/>
<rect transform="translate(66.4367, 8.1918)" x="-0.0650" y="-4.0123" width="0.1300" height="3.3979" ry="0.0400" fill="currentColor"/>
<g class="note" id="p1ccd5n256g10500v1b4s1">
<path transform="translate(65.5838, 7.6918) scale(0.0028, -0.0028)" d="M208 139c61 0 117 -33 117 -99c0 -71 -52 -119 -99 -147c-34 -20 -71 -32 -110 -32c-61 0 -116 33 -116 99c0 71 51 119 98 147c34 20 71 32 110 32z" fill="currentColor"/>
</g>
<rect transform="translate(65.2806, 8.1918)" x="-0.0650" y="-4.4740" width="0.1300" height="1.8596" ry="0.0400" fill="currentColor"/>
<g class="note" id="p1cgd5n256g10500v1b4s1">
<path transform="translate(64.4277, 5.6918) scale(0.0028, -0.0028)" d="M208 139c61 0 117 -33 117 -99c0 -71 -52 -119 -99 -147c-34 -20 -71 -32 -110 -32c-61 0 -116 33 -116 99c0 71 51 119 98 147c34 20 71 32 110 32z" fill="currentColor"/>
</g>
<rect transform="translate(70.8195, 8.1918)" x="-0.0650" y="-7.9929" width="0.1300" height="3.3785" ry="0.0400" fill="currentColor"/>
<rect transform="translate(73.1667, 8.1918)" x="-0.0650" y="-7.7362" width="0.1300" height="3.6218" ry="0.0400" fill="currentColor"/>
<g class="note" id="p1ccd6n1536g16800v1b5s1">
<path transform="translate(72.3138, 4.1918) scale(0.0028, -0.0028)" d="M208 139c61 0 117 -33 117 -99c0 -71 -52 -119 -99 -147c-34 -20 -71 -32 -110 -32c-61 0 -116 33 -116 99c0 71 51 119 98 147c34 20 71 32 110 32z" fill="currentColor"/>
</g>
<g class="note" id="p1cdd6n1536g16800v1b5s1">
<path transform="translate(69.9666, 3.6918) scale(0.0028, -0.0028)" d="M208 139c61 0 117 -33 117 -99c0 -71 -52 -119 -99 -147c-34 -20 -71 -32 -110 -32c-61 0 -116 33 -116 99c0 71 51 119 98 147c34 20 71 32 110 32z" fill="currentColor"/>
</g>
<rect transform="translate(68.0846, 8.1918)" x="-0.0650" y="-0.3139" width="0.1300" height="3.3139" ry="0.0400" fill="currentColor"/>
<g class="note" id="p1ccd5n256v1b4s1">
<path transform="translate(68.0196, 7.6918) scale(0.0040, -0.0040)" d="M218 136c55 0 108 -28 108 -89c0 -71 -55 -121 -102 -149c-35 -21 -75 -34 -116 -34c-55 0 -108 28 -108 89c0 71 55 121 102 149c35 21 75 34 116 34z" fill="currentColor"/>
</g>
<rect transform="translate(104.3691, 8.1918)" x="-0.0650" y="-1.0000" width="0.1300" height="3.2410" ry="0.0400" fill="currentColor"/>
<g class="note" id="p1cdd4n1536v1b5s1">
<path transform="translate(103.0568, 10.6918) scale(0.0040, -0.0040)" d="M314 65c0 24 -21 41 -42 41c-4 0 -8 0 -12 -1c-31 -9 -78 -40 -115 -64s-84 -53 -104 -78c-7 -8 -10 -18 -10 -28c0 -24 21 -41 42 -41c4 0 8 0 12 1c31 9 77 40 114 64s84 53 104 78c7 8 11 18 11 28zM262 136c46 0 82 -21 82 -71c0 -19 -4 -39 -10 -57
c-12 -37 -32 -72 -64 -94c-53 -36 -113 -50 -187 -50c-46 0 -83 21 -83 71c0 19 5 39 11 57c12 37 31 72 63 94c53 36 114 50 188 50z" fill="currentColor"/>
</g>
<path transform="translate(101.0479, 11.1918) scale(0.0025, -0.0025)" d="M-9 375c9 5 19 8 29 8s19 -3 28 -8l-3 -202l97 26c2 0 3 1 5 1c11 0 20 -9 20 -20l8 -555c-9 -5 -18 -8 -28 -8s-20 3 -29 8l3 202l-96 -26c-2 0 -3 -1 -5 -1c-11 0 -20 9 -20 20zM126 108l-82 -22l-3 -194l82 22z" fill="currentColor"/>
<rect transform="translate(102.6918, 8.1918)" x="-0.0650" y="-4.5071" width="0.1300" height="7.3927" ry="0.0400" fill="currentColor"/>
<g class="note" id="p1ccd4n1536g16800v1b5s1">
<path transform="translate(101.8389, 11.1918) scale(0.0028, -0.0028)" d="M208 139c61 0 117 -33 117 -99c0 -71 -52 -119 -99 -147c-34 -20 -71 -32 -110 -32c-61 0 -116 33 -116 99c0 71 51 119 98 147c34 20 71 32 110 32z" fill="currentColor"/>
</g>
<rect transform="translate(101.5357, 8.1918)" x="-0.0650" y="-4.6335" width="0.1300" height="5.5191" ry="0.0400" fill="currentColor"/>
<g class="beam">
<polygon transform="translate(65.2156, 3.6918)" stroke-linejoin="round" stroke-linecap="round" stroke-width="0.0800" fill="currentColor" stroke="currentColor" points="2.4640 0.8480 2.4640 1.1520 0.0400 0.1520 0.0400 -0.1520"/>
</g>
<g class="beam">
<polygon transform="translate(70.7545, 0.1918)" stroke-linejoin="round" stroke-linecap="round" stroke-width="0.0800" fill="currentColor" stroke="currentColor" points="31.9622 3.3480 31.9622 3.6520 0.0400 0.1520 0.0400 -0.1520"/>
<polygon transform="translate(89.5317, 2.9440)" stroke-linejoin="round" stroke-linecap="round" stroke-width="0.0800" fill="currentColor" stroke="currentColor" points="13.1851 1.2944 13.1851 1.5984 0.0400 0.1520 0.0400 -0.1520"/>
<polygon transform="translate(97.9087, 4.5589)" stroke-linejoin="round" stroke-linecap="round" stroke-width="0.0800" fill="currentColor" stroke="currentColor" points="4.8081 0.3782 4.8081 0.6822 0.0400 0.1520 0.0400 -0.1520"/>
<polygon transform="translate(101.4707, 5.6471)" stroke-linejoin="round" stroke-linecap="round" stroke-width="0.0800" fill="currentColor" stroke="currentColor" points="1.2461 -0.0113 1.2461 0.2927 0.0400 0.1520 0.0400 -0.1520"/>
</g>
<g class="note" id="p1ccd5n1536g16800v1b5s2">
<path transform="translate(95.1707, 7.6918) scale(0.0028, -0.0028)" d="M208 139c61 0 117 -33 117 -99c0 -71 -52 -119 -99 -147c-34 -20 -71 -32 -110 -32c-61 0 -116 33 -116 99c0 71 51 119 98 147c34 20 71 32 110 32z" fill="currentColor"/>
</g>
<path transform="translate(92.1166, 8.6918) scale(0.0025, -0.0025)" d="M34 33l-1 -58v-10c0 -21 2 -43 5 -64c41 38 85 80 85 136c0 31 -13 63 -40 63c-31 0 -48 -33 -49 -67zM-18 -142l-14 583c10 6 21 9 32 9s22 -3 32 -9l-8 -333c25 27 60 42 97 42c49 0 79 -52 79 -106c0 -76 -78 -117 -133 -169c-19 -18 -27 -52 -55 -52
c-17 0 -30 17 -30 35z" fill="currentColor"/>
<rect transform="translate(93.8234, 8.1918)" x="-0.0650" y="-5.4770" width="0.1300" height="5.8626" ry="0.0400" fill="currentColor"/>
<g class="note" id="p1cad4n1536g16800v1b5s1">
<path transform="translate(92.9705, 8.6918) scale(0.0028, -0.0028)" d="M208 139c61 0 117 -33 117 -99c0 -71 -52 -119 -99 -147c-34 -20 -71 -32 -110 -32c-61 0 -116 33 -116 99c0 71 51 119 98 147c34 20 71 32 110 32z" fill="currentColor"/>
</g>
<rect transform="translate(96.0236, 8.1918)" x="-0.0650" y="-5.2364" width="0.1300" height="4.6220" ry="0.0400" fill="currentColor"/>
<rect transform="translate(91.5468, 8.1918)" x="-0.0650" y="-5.7260" width="0.1300" height="5.6116" ry="0.0400" fill="currentColor"/>
<g class="note" id="p1cbd4n1536g16800v1b5s1">
<path transform="translate(90.6939, 8.1918) scale(0.0028, -0.0028)" d="M208 139c61 0 117 -33 117 -99c0 -71 -52 -119 -99 -147c-34 -20 -71 -32 -110 -32c-61 0 -116 33 -116 99c0 71 51 119 98 147c34 20 71 32 110 32z" fill="currentColor"/>
</g>
<rect transform="translate(89.5967, 8.1918)" x="-0.0650" y="-5.9393" width="0.1300" height="5.3249" ry="0.0400" fill="currentColor"/>
<g class="note" id="p1cgd4n1536g16800v1b5s1">
<path transform="translate(100.6828, 9.1918) scale(0.0028, -0.0028)" d="M208 139c61 0 117 -33 117 -99c0 -71 -52 -119 -99 -147c-34 -20 -71 -32 -110 -32c-61 0 -116 33 -116 99c0 71 51 119 98 147c34 20 71 32 110 32z" fill="currentColor"/>
</g>
<path transform="translate(98.3387, 9.6918) scale(0.0025, -0.0025)" d="M-9 375c9 5 19 8 29 8s19 -3 28 -8l-3 -202l97 26c2 0 3 1 5 1c11 0 20 -9 20 -20l8 -555c-9 -5 -18 -8 -28 -8s-20 3 -29 8l3 202l-96 -26c-2 0 -3 -1 -5 -1c-11 0 -20 9 -20 20zM126 108l-82 -22l-3 -194l82 22z" fill="currentColor"/>
<rect transform="translate(99.9825, 8.1918)" x="-0.0650" y="-4.8034" width="0.1300" height="6.1890" ry="0.0400" fill="currentColor"/>
<g class="note" id="p1cfd4n1536g16800v1b5s2">
<path transform="translate(99.1297, 9.6918) scale(0.0028, -0.0028)" d="M208 139c61 0 117 -33 117 -99c0 -71 -52 -119 -99 -147c-34 -20 -71 -32 -110 -32c-61 0 -116 33 -116 99c0 71 51 119 98 147c34 20 71 32 110 32z" fill="currentColor"/>
</g>
<g class="note" id="p1ccd5n1536g16800v1b5s1">
<path transform="translate(88.7438, 7.6918) scale(0.0028, -0.0028)" d="M208 139c61 0 117 -33 117 -99c0 -71 -52 -119 -99 -147c-34 -20 -71 -32 -110 -32c-61 0 -116 33 -116 99c0 71 51 119 98 147c34 20 71 32 110 32z" fill="currentColor"/>
</g>
<rect transform="translate(97.9737, 8.1918)" x="-0.0650" y="-5.0231" width="0.1300" height="4.9087" ry="0.0400" fill="currentColor"/>
<g class="note" id="p1cbd4n1536g16800v1b5s2">
<path transform="translate(97.1208, 8.1918) scale(0.0028, -0.0028)" d="M208 139c61 0 117 -33 117 -99c0 -71 -52 -119 -99 -147c-34 -20 -71 -32 -110 -32c-61 0 -116 33 -116 99c0 71 51 119 98 147c34 20 71 32 110 32z" fill="currentColor"/>
</g>
<g class="note" id="p1ccd5n0v1b4s1">
<path transform="translate(62.4807, 7.6918) scale(0.0040, -0.0040)" d="M218 136c55 0 108 -28 108 -89c0 -71 -55 -121 -102 -149c-35 -21 -75 -34 -116 -34c-55 0 -108 28 -108 89c0 71 55 121 102 149c35 21 75 34 116 34z" fill="currentColor"/>
</g>
<rect transform="translate(35.6885, 8.1918)" x="-0.0650" y="-1.0000" width="0.1300" height="3.3139" ry="0.0400" fill="currentColor"/>
<g class="note" id="p1cdd4n1024v1b2s1">
<path transform="translate(34.4493, 10.6918) scale(0.0040, -0.0040)" d="M218 136c55 0 108 -28 108 -89c0 -71 -55 -121 -102 -149c-35 -21 -75 -34 -116 -34c-55 0 -108 28 -108 89c0 71 55 121 102 149c35 21 75 34 116 34z" fill="currentColor"/>
</g>
<g class="note" id="p1ced4n0g6900v1b3s1">
<path transform="translate(37.1540, 10.1918) scale(0.0028, -0.0028)" d="M208 139c61 0 117 -33 117 -99c0 -71 -52 -119 -99 -147c-34 -20 -71 -32 -110 -32c-61 0 -116 33 -116 99c0 71 51 119 98 147c34 20 71 32 110 32z" fill="currentColor"/>
</g>
<path transform="translate(33.8486, 7.4318) scale(0.0028, -0.0028)" d="M0 0c0 -196 207 -334 207 -530c0 -71 -15 -140 -41 -206c-5 -10 -14 -13 -23 -13c-14 0 -28 10 -28 26c0 2 1 3 1 5c26 59 42 123 42 188c0 101 -90 205 -158 280h-21v250h21z" fill="currentColor"/>
<rect transform="translate(33.7836, 8.1918)" x="-0.0650" y="-0.8000" width="0.1300" height="2.6856" ry="0.0400" fill="currentColor"/>
<g class="note" id="p1ced4n1024g6300v1b2s1">
<path transform="translate(32.9307, 10.1918) scale(0.0028, -0.0028)" d="M208 139c61 0 117 -33 117 -99c0 -71 -52 -119 -99 -147c-34 -20 -71 -32 -110 -32c-61 0 -116 33 -116 99c0 71 51 119 98 147c34 20 71 32 110 32z" fill="currentColor"/>
</g>
<g class="note" id="p1cdd4n0v1b2s1">
<path transform="translate(17.3919, 10.6918) scale(0.0040, -0.0040)" d="M314 65c0 24 -21 41 -42 41c-4 0 -8 0 -12 -1c-31 -9 -78 -40 -115 -64s-84 -53 -104 -78c-7 -8 -10 -18 -10 -28c0 -24 21 -41 42 -41c4 0 8 0 12 1c31 9 77 40 114 64s84 53 104 78c7 8 11 18 11 28zM262 136c46 0 82 -21 82 -71c0 -19 -4 -39 -10 -57
c-12 -37 -32 -72 -64 -94c-53 -36 -113 -50 -187 -50c-46 0 -83 21 -83 71c0 19 5 39 11 57c12 37 31 72 63 94c53 36 114 50 188 50z" fill="currentColor"/>
</g>
<rect transform="translate(18.7043, 8.1918)" x="-0.0650" y="-1.0000" width="0.1300" height="3.2410" ry="0.0400" fill="currentColor"/>
<rect transform="translate(40.1036, 8.1918)" x="-0.0650" y="-0.2410" width="0.1300" height="3.2410" ry="0.0400" fill="currentColor"/>
<rect transform="translate(43.8668, 8.1918)" x="-0.0650" y="-1.3000" width="0.1300" height="2.6856" ry="0.0400" fill="currentColor"/>
<path transform="translate(38.9926, 7.6918) scale(0.0040, -0.0040)" d="M-8 375c8 4 17 7 26 7s16 -3 24 -7l-2 -183l106 20h3c10 0 18 -7 18 -17l7 -570c-8 -4 -16 -7 -25 -7s-17 3 -25 7l3 183l-106 -20h-3c-10 0 -18 7 -18 17zM131 112l-92 -17l-3 -207l92 17z" fill="currentColor"/>
<g class="note" id="p1ccd5n0v1b3s1">
<path transform="translate(40.0386, 7.6918) scale(0.0040, -0.0040)" d="M314 65c0 24 -21 41 -42 41c-4 0 -8 0 -12 -1c-31 -9 -78 -40 -115 -64s-84 -53 -104 -78c-7 -8 -10 -18 -10 -28c0 -24 21 -41 42 -41c4 0 8 0 12 1c31 9 77 40 114 64s84 53 104 78c7 8 11 18 11 28zM262 136c46 0 82 -21 82 -71c0 -19 -4 -39 -10 -57
c-12 -37 -32 -72 -64 -94c-53 -36 -113 -50 -187 -50c-46 0 -83 21 -83 71c0 19 5 39 11 57c12 37 31 72 63 94c53 36 114 50 188 50z" fill="currentColor"/>
</g>
<path transform="translate(38.0719, 7.4318) scale(0.0028, -0.0028)" d="M0 0c0 -196 207 -334 207 -530c0 -71 -15 -140 -41 -206c-5 -10 -14 -13 -23 -13c-14 0 -28 10 -28 26c0 2 1 3 1 5c26 59 42 123 42 188c0 101 -90 205 -158 280h-21v250h21z" fill="currentColor"/>
<rect transform="translate(38.0069, 8.1918)" x="-0.0650" y="-0.8000" width="0.1300" height="2.6856" ry="0.0400" fill="currentColor"/>
<g class="note" id="p1cad4n256g4500v1b2s1">
<path transform="translate(20.7382, 8.6918) scale(0.0028, -0.0028)" d="M208 139c61 0 117 -33 117 -99c0 -71 -52 -119 -99 -147c-34 -20 -71 -32 -110 -32c-61 0 -116 33 -116 99c0 71 51 119 98 147c34 20 71 32 110 32z" fill="currentColor"/>
</g>
<path transform="translate(25.6163, 6.4318) scale(0.0028, -0.0028)" d="M0 0c0 -196 207 -334 207 -530c0 -71 -15 -140 -41 -206c-5 -10 -14 -13 -23 -13c-14 0 -28 10 -28 26c0 2 1 3 1 5c26 59 42 123 42 188c0 101 -90 205 -158 280h-21v250h21z" fill="currentColor"/>
<rect transform="translate(25.5513, 8.1918)" x="-0.0650" y="-1.8000" width="0.1300" height="2.6856" ry="0.0400" fill="currentColor"/>
<g class="note" id="p1cgd4n512g5100v1b2s1">
<path transform="translate(24.6984, 9.1918) scale(0.0028, -0.0028)" d="M208 139c61 0 117 -33 117 -99c0 -71 -52 -119 -99 -147c-34 -20 -71 -32 -110 -32c-61 0 -116 33 -116 99c0 71 51 119 98 147c34 20 71 32 110 32z" fill="currentColor"/>
</g>
<rect transform="translate(21.5911, 8.1918)" x="-0.0650" y="-2.3000" width="0.1300" height="2.6856" ry="0.0400" fill="currentColor"/>
<g class="note" id="p1cdd4n512v1b2s1">
<path transform="translate(25.8545, 10.6918) scale(0.0040, -0.0040)" d="M218 136c55 0 108 -28 108 -89c0 -71 -55 -121 -102 -149c-35 -21 -75 -34 -116 -34c-55 0 -108 28 -108 89c0 71 55 121 102 149c35 21 75 34 116 34z" fill="currentColor"/>
</g>
<rect transform="translate(23.1336, 8.1918)" x="-0.0650" y="-1.0000" width="0.1300" height="3.3139" ry="0.0400" fill="currentColor"/>
<g class="note" id="p1cdd4n256v1b2s1">
<path transform="translate(21.8943, 10.6918) scale(0.0040, -0.0040)" d="M218 136c55 0 108 -28 108 -89c0 -71 -55 -121 -102 -149c-35 -21 -75 -34 -116 -34c-55 0 -108 28 -108 89c0 71 55 121 102 149c35 21 75 34 116 34z" fill="currentColor"/>
</g>
<path transform="translate(21.6561, 5.9318) scale(0.0028, -0.0028)" d="M0 0c0 -196 207 -334 207 -530c0 -71 -15 -140 -41 -206c-5 -10 -14 -13 -23 -13c-14 0 -28 10 -28 26c0 2 1 3 1 5c26 59 42 123 42 188c0 101 -90 205 -158 280h-21v250h21z" fill="currentColor"/>
<path transform="translate(29.9259, 6.9318) scale(0.0028, -0.0028)" d="M0 0c0 -196 207 -334 207 -530c0 -71 -15 -140 -41 -206c-5 -10 -14 -13 -23 -13c-14 0 -28 10 -28 26c0 2 1 3 1 5c26 59 42 123 42 188c0 101 -90 205 -158 280h-21v250h21z" fill="currentColor"/>
<rect transform="translate(31.4651, 8.1918)" x="-0.0650" y="-1.0000" width="0.1300" height="3.3139" ry="0.0400" fill="currentColor"/>
<g class="note" id="p1cdd4n768v1b2s1">
<path transform="translate(30.2259, 10.6918) scale(0.0040, -0.0040)" d="M218 136c55 0 108 -28 108 -89c0 -71 -55 -121 -102 -149c-35 -21 -75 -34 -116 -34c-55 0 -108 28 -108 89c0 71 55 121 102 149c35 21 75 34 116 34z" fill="currentColor"/>
</g>
<path transform="translate(28.2171, 9.6918) scale(0.0025, -0.0025)" d="M-9 375c9 5 19 8 29 8s19 -3 28 -8l-3 -202l97 26c2 0 3 1 5 1c11 0 20 -9 20 -20l8 -555c-9 -5 -18 -8 -28 -8s-20 3 -29 8l3 202l-96 -26c-2 0 -3 -1 -5 -1c-11 0 -20 9 -20 20zM126 108l-82 -22l-3 -194l82 22z" fill="currentColor"/>
<g class="note" id="p1cfd4n256g7500v1b3s1">
<path transform="translate(43.0139, 9.6918) scale(0.0028, -0.0028)" d="M208 139c61 0 117 -33 117 -99c0 -71 -52 -119 -99 -147c-34 -20 -71 -32 -110 -32c-61 0 -116 33 -116 99c0 71 51 119 98 147c34 20 71 32 110 32z" fill="currentColor"/>
</g>
<rect transform="translate(29.8609, 8.1918)" x="-0.0650" y="-1.3000" width="0.1300" height="2.6856" ry="0.0400" fill="currentColor"/>
<g class="note" id="p1cfd4n768g5700v1b2s1">
<path transform="translate(29.0080, 9.6918) scale(0.0028, -0.0028)" d="M208 139c61 0 117 -33 117 -99c0 -71 -52 -119 -99 -147c-34 -20 -71 -32 -110 -32c-61 0 -116 33 -116 99c0 71 51 119 98 147c34 20 71 32 110 32z" fill="currentColor"/>
</g>
<rect transform="translate(27.0937, 8.1918)" x="-0.0650" y="-1.0000" width="0.1300" height="3.3139" ry="0.0400" fill="currentColor"/>
<g color="rgb(100%, 100%, 0%)">
<rect transform="translate(51.1514, 8.1918)" x="-0.0650" y="-0.3139" width="0.1300" height="3.3139" ry="0.0400" fill="currentColor"/>
</g>
<path transform="translate(57.2563, 5.5318) scale(0.0028, -0.0028)" d="M0 0c0 -196 207 -334 207 -530c0 -71 -15 -140 -41 -206c-5 -10 -14 -13 -23 -13c-14 0 -28 10 -28 26c0 2 1 3 1 5c26 59 42 123 42 188c0 101 -90 205 -158 280h-21v250h21z" fill="currentColor"/>
<rect transform="translate(57.1913, 8.1918)" x="-0.0650" y="-2.7000" width="0.1300" height="2.5856" ry="0.0400" fill="currentColor"/>
<g class="note" id="p1cbd4n1024g9300v1b3s1">
<path transform="translate(56.3384, 8.1918) scale(0.0028, -0.0028)" d="M208 139c61 0 117 -33 117 -99c0 -71 -52 -119 -99 -147c-34 -20 -71 -32 -110 -32c-61 0 -116 33 -116 99c0 71 51 119 98 147c34 20 71 32 110 32z" fill="currentColor"/>
</g>
<g color="rgb(100%, 100%, 0%)">
<path transform="translate(51.2164, 11.1518) scale(0.0040, -0.0040)" d="M0 205c91 51 211 131 211 233c0 24 -5 48 -14 70c-79 -89 -197 -160 -197 -283v-20zM267 663c0 -44 -16 -82 -39 -116c16 -35 25 -71 25 -109c0 -181 -253 -257 -253 -438h-16v500h16v-70c97 49 224 128 224 233c0 21 -5 42 -13 62c-3 16 10 27 23 27c30 0 33 -63 33 -89
z" fill="currentColor"/>
</g>
<g class="note" id="p1ccd5n768v1b3s1">
<g color="rgb(100%, 100%, 0%)">
<path transform="translate(51.0864, 7.6918) scale(0.0040, -0.0040)" d="M218 136c55 0 108 -28 108 -89c0 -71 -55 -121 -102 -149c-35 -21 -75 -34 -116 -34c-55 0 -108 28 -108 89c0 71 55 121 102 149c35 21 75 34 116 34z" fill="currentColor"/>
</g>
</g>
<g class="note" id="p1cbd4n0g3900v1b2s1">
<path transform="translate(16.2358, 8.1918) scale(0.0028, -0.0028)" d="M208 139c61 0 117 -33 117 -99c0 -71 -52 -119 -99 -147c-34 -20 -71 -32 -110 -32c-61 0 -116 33 -116 99c0 71 51 119 98 147c34 20 71 32 110 32z" fill="currentColor"/>
</g>
<g class="clef">
<path transform="translate(9.3358, 9.1918) scale(0.0040, -0.0040)" d="M376 262c4 0 9 1 13 1c155 0 256 -128 256 -261c0 -76 -33 -154 -107 -210c-22 -17 -47 -28 -73 -36c3 -35 5 -70 5 -105c0 -19 -1 -39 -2 -58c-7 -120 -90 -228 -208 -228c-108 0 -195 88 -195 197c0 58 53 103 112 103c54 0 95 -47 95 -103c0 -52 -43 -95 -95 -95
c-11 0 -21 2 -31 6c26 -39 68 -65 117 -65c96 0 157 92 163 191c1 18 2 37 2 55c0 31 -1 61 -4 92c-29 -5 -58 -8 -89 -8c-188 0 -333 172 -333 374c0 177 131 306 248 441c-19 62 -37 125 -45 190c-6 52 -7 104 -7 156c0 115 55 224 149 292c3 2 7 3 10 3c4 0 7 0 10 -3
c71 -84 133 -245 133 -358c0 -143 -86 -255 -180 -364c21 -68 39 -138 56 -207zM461 -203c68 24 113 95 113 164c0 90 -66 179 -173 190c24 -116 46 -231 60 -354zM74 28c0 -135 129 -247 264 -247c28 0 55 2 82 6c-14 127 -37 245 -63 364c-79 -8 -124 -61 -124 -119
c0 -44 25 -91 81 -123c5 -5 7 -10 7 -15c0 -11 -10 -22 -22 -22c-3 0 -6 1 -9 2c-80 43 -117 115 -117 185c0 88 58 174 160 197c-14 58 -29 117 -46 175c-107 -121 -213 -243 -213 -403zM408 1045c-99 -48 -162 -149 -162 -259c0 -74 18 -133 36 -194
c80 97 146 198 146 324c0 55 -4 79 -20 129z" fill="currentColor"/>
</g>
<path transform="translate(53.7657, 5.9318) scale(0.0028, -0.0028)" d="M0 0c0 -196 207 -334 207 -530c0 -71 -15 -140 -41 -206c-5 -10 -14 -13 -23 -13c-14 0 -28 10 -28 26c0 2 1 3 1 5c26 59 42 123 42 188c0 101 -90 205 -158 280h-21v250h21z" fill="currentColor"/>
<rect transform="translate(53.7007, 8.1918)" x="-0.0650" y="-2.3000" width="0.1300" height="2.6856" ry="0.0400" fill="currentColor"/>
<path transform="translate(61.6600, 5.9318) scale(0.0028, -0.0028)" d="M-148 -571c-18 0 -32 14 -32 32c0 9 4 17 11 23l357 290c5 5 11 7 18 7c18 0 32 -14 32 -32c0 -9 -4 -17 -11 -23l-357 -290c-5 -5 -11 -7 -18 -7z" fill="currentColor"/>
<path transform="translate(61.6600, 5.9318) scale(0.0028, -0.0028)" d="M0 0c0 -196 207 -334 207 -530c0 -71 -15 -140 -41 -206c-5 -10 -14 -13 -23 -13c-14 0 -28 10 -28 26c0 2 1 3 1 5c26 59 42 123 42 188c0 101 -90 205 -158 280h-21v250h21z" fill="currentColor"/>
<rect transform="translate(61.5950, 8.1918)" x="-0.0650" y="-2.3000" width="0.1300" height="2.6856" ry="0.0400" fill="currentColor"/>
<g class="note" id="p1cad4n0g9900v1b4s1">
<path transform="translate(60.7421, 8.6918) scale(0.0028, -0.0028)" d="M208 139c61 0 117 -33 117 -99c0 -71 -52 -119 -99 -147c-34 -20 -71 -32 -110 -32c-61 0 -116 33 -116 99c0 71 51 119 98 147c34 20 71 32 110 32z" fill="currentColor"/>
</g>
<rect transform="translate(58.1420, 8.1918)" x="-0.0650" y="-0.3139" width="0.1300" height="3.3139" ry="0.0400" fill="currentColor"/>
<g class="note" id="p1ccd5n1024v1b3s1">
</g>
<g class="note" id="p1cad4n768g8700v1b3s1">
<path transform="translate(52.8478, 8.6918) scale(0.0028, -0.0028)" d="M208 139c61 0 117 -33 117 -99c0 -71 -52 -119 -99 -147c-34 -20 -71 -32 -110 -32c-61 0 -116 33 -116 99c0 71 51 119 98 147c34 20 71 32 110 32z" fill="currentColor"/>
</g>
<path transform="translate(17.1537, 5.5318) scale(0.0028, -0.0028)" d="M0 0c0 -196 207 -334 207 -530c0 -71 -15 -140 -41 -206c-5 -10 -14 -13 -23 -13c-14 0 -28 10 -28 26c0 2 1 3 1 5c26 59 42 123 42 188c0 101 -90 205 -158 280h-21v250h21z" fill="currentColor"/>
<path transform="translate(44.8525, 7.6918) scale(0.0040, -0.0040)" d="M-8 375c8 4 17 7 26 7s16 -3 24 -7l-2 -183l106 20h3c10 0 18 -7 18 -17l7 -570c-8 -4 -16 -7 -25 -7s-17 3 -25 7l3 183l-106 -20h-3c-10 0 -18 7 -18 17zM131 112l-92 -17l-3 -207l92 17z" fill="currentColor"/>
<rect transform="translate(45.9635, 8.1918)" x="-0.0650" y="-0.3139" width="0.1300" height="3.3139" ry="0.0400" fill="currentColor"/>
<g class="note" id="p1cgd4n512g8100v1b3s1">
<path transform="translate(48.4441, 9.1918) scale(0.0028, -0.0028)" d="M208 139c61 0 117 -33 117 -99c0 -71 -52 -119 -99 -147c-34 -20 -71 -32 -110 -32c-61 0 -116 33 -116 99c0 71 51 119 98 147c34 20 71 32 110 32z" fill="currentColor"/>
</g>
<g class="note" id="p1ccd5n256v1b3s1">
<path transform="translate(45.8985, 7.6918) scale(0.0040, -0.0040)" d="M218 136c55 0 108 -28 108 -89c0 -71 -55 -121 -102 -149c-35 -21 -75 -34 -116 -34c-55 0 -108 28 -108 89c0 71 55 121 102 149c35 21 75 34 116 34z" fill="currentColor"/>
</g>
<path transform="translate(42.2230, 9.6918) scale(0.0025, -0.0025)" d="M-9 375c9 5 19 8 29 8s19 -3 28 -8l-3 -202l97 26c2 0 3 1 5 1c11 0 20 -9 20 -20l8 -555c-9 -5 -18 -8 -28 -8s-20 3 -29 8l3 202l-96 -26c-2 0 -3 -1 -5 -1c-11 0 -20 9 -20 20zM126 108l-82 -22l-3 -194l82 22z" fill="currentColor"/>
<path transform="translate(43.9318, 6.9318) scale(0.0028, -0.0028)" d="M0 0c0 -196 207 -334 207 -530c0 -71 -15 -140 -41 -206c-5 -10 -14 -13 -23 -13c-14 0 -28 10 -28 26c0 2 1 3 1 5c26 59 42 123 42 188c0 101 -90 205 -158 280h-21v250h21z" fill="currentColor"/>
<rect transform="translate(17.0887, 8.1918)" x="-0.0650" y="-2.7000" width="0.1300" height="2.5856" ry="0.0400" fill="currentColor"/>
<g class="keySig">
<path transform="translate(12.8358, 6.1918) scale(0.0040, -0.0040)" d="M216 -312c0 -10 -8 -19 -18 -19s-19 9 -19 19v145l-83 -31v-158c0 -10 -9 -19 -19 -19s-18 9 -18 19v145l-32 -12c-2 -1 -5 -1 -7 -1c-11 0 -20 9 -20 20v60c0 8 5 16 13 19l46 16v160l-32 -11c-2 -1 -5 -1 -7 -1c-11 0 -20 9 -20 20v60c0 8 5 15 13 18l46 17v158
c0 10 8 19 18 19s19 -9 19 -19v-145l83 31v158c0 10 9 19 19 19s18 -9 18 -19v-145l32 12c2 1 5 1 7 1c11 0 20 -9 20 -20v-60c0 -8 -5 -16 -13 -19l-46 -16v-160l32 11c2 1 5 1 7 1c11 0 20 -9 20 -20v-60c0 -8 -5 -15 -13 -18l-46 -17v-158zM96 65v-160l83 30v160z" fill="currentColor"/>
<path transform="translate(13.9358, 7.6918) scale(0.0040, -0.0040)" d="M216 -312c0 -10 -8 -19 -18 -19s-19 9 -19 19v145l-83 -31v-158c0 -10 -9 -19 -19 -19s-18 9 -18 19v145l-32 -12c-2 -1 -5 -1 -7 -1c-11 0 -20 9 -20 20v60c0 8 5 16 13 19l46 16v160l-32 -11c-2 -1 -5 -1 -7 -1c-11 0 -20 9 -20 20v60c0 8 5 15 13 18l46 17v158
c0 10 8 19 18 19s19 -9 19 -19v-145l83 31v158c0 10 9 19 19 19s18 -9 18 -19v-145l32 12c2 1 5 1 7 1c11 0 20 -9 20 -20v-60c0 -8 -5 -16 -13 -19l-46 -16v-160l32 11c2 1 5 1 7 1c11 0 20 -9 20 -20v-60c0 -8 -5 -15 -13 -18l-46 -17v-158zM96 65v-160l83 30v160z" fill="currentColor"/>
</g>
<rect transform="translate(50.2477, 8.1918)" x="-0.0650" y="-0.3139" width="0.1300" height="3.3139" ry="0.0400" fill="currentColor"/>
<g class="note" id="p1ccd5n512v1b3s1">
<path transform="translate(50.1827, 7.6918) scale(0.0040, -0.0040)" d="M218 136c55 0 108 -28 108 -89c0 -71 -55 -121 -102 -149c-35 -21 -75 -34 -116 -34c-55 0 -108 28 -108 89c0 71 55 121 102 149c35 21 75 34 116 34z" fill="currentColor"/>
</g>
<rect transform="translate(49.2970, 8.1918)" x="-0.0650" y="-1.8000" width="0.1300" height="2.6856" ry="0.0400" fill="currentColor"/>
<path transform="translate(49.3620, 6.4318) scale(0.0028, -0.0028)" d="M0 0c0 -196 207 -334 207 -530c0 -71 -15 -140 -41 -206c-5 -10 -14 -13 -23 -13c-14 0 -28 10 -28 26c0 2 1 3 1 5c26 59 42 123 42 188c0 101 -90 205 -158 280h-21v250h21z" fill="currentColor"/>
</svg>
