<svg xmlns="http://www.w3.org/2000/svg" xmlns:xlink="http://www.w3.org/1999/xlink" version="1.2" width="146.31mm" height="35.31mm" viewBox="-0.4286 -0.0000 83.2560 20.0921">
<style text="style/css">
<![CDATA[
tspan { white-space: pre; }
]]>
</style>
<rect transform="translate(51.3407, 5.6621)" x="0.0000" y="-2.0000" width="0.1900" height="4.0500" ry="0.0000" fill="currentColor"/>
<rect transform="translate(51.3407, 14.6621)" x="0.0000" y="-2.0500" width="0.1900" height="4.0500" ry="0.0000" fill="currentColor"/>
<rect transform="translate(82.6374, 5.6621)" x="0.0000" y="-2.0000" width="0.1900" height="4.0500" ry="0.0000" fill="currentColor"/>
<rect transform="translate(82.6374, 14.6621)" x="0.0000" y="-2.0500" width="0.1900" height="4.0500" ry="0.0000" fill="currentColor"/>
<line transform="translate(8.5358, 16.6621)" stroke-linejoin="round" stroke-linecap="round" stroke-width="0.1000" stroke="currentColor" x1="0.0500" y1="-0.0000" x2="74.2416" y2="-0.0000"/>
<line transform="translate(8.5358, 15.6621)" stroke-linejoin="round" stroke-linecap="round" stroke-width="0.1000" stroke="currentColor" x1="0.0500" y1="-0.0000" x2="74.2416" y2="-0.0000"/>
<line transform="translate(8.5358, 14.6621)" stroke-linejoin="round" stroke-linecap="round" stroke-width="0.1000" stroke="currentColor" x1="0.0500" y1="-0.0000" x2="74.2416" y2="-0.0000"/>
<line transform="translate(8.5358, 13.6621)" stroke-linejoin="round" stroke-linecap="round" stroke-width="0.1000" stroke="currentColor" x1="0.0500" y1="-0.0000" x2="74.2416" y2="-0.0000"/>
<line transform="translate(8.5358, 12.6621)" stroke-linejoin="round" stroke-linecap="round" stroke-width="0.1000" stroke="currentColor" x1="0.0500" y1="-0.0000" x2="74.2416" y2="-0.0000"/>
<rect transform="translate(0.0000, 11.6621)" x="57.6131" y="-0.1000" width="1.9563" height="0.2000" ry="0.1000" fill="currentColor"/>
<rect transform="translate(0.0000, 11.6621)" x="46.3501" y="-0.1000" width="1.9563" height="0.2000" ry="0.1000" fill="currentColor"/>
<rect transform="translate(0.0000, 11.6621)" x="41.3417" y="-0.1000" width="1.9563" height="0.2000" ry="0.1000" fill="currentColor"/>
<rect transform="translate(0.0000, 2.6621)" x="72.6384" y="-0.1000" width="1.9563" height="0.2000" ry="0.1000" fill="currentColor"/>
<line transform="translate(8.5358, 7.6621)" stroke-linejoin="round" stroke-linecap="round" stroke-width="0.1000" stroke="currentColor" x1="0.0500" y1="-0.0000" x2="74.2416" y2="-0.0000"/>
<line transform="translate(8.5358, 6.6621)" stroke-linejoin="round" stroke-linecap="round" stroke-width="0.1000" stroke="currentColor" x1="0.0500" y1="-0.0000" x2="74.2416" y2="-0.0000"/>
<line transform="translate(8.5358, 5.6621)" stroke-linejoin="round" stroke-linecap="round" stroke-width="0.1000" stroke="currentColor" x1="0.0500" y1="-0.0000" x2="74.2416" y2="-0.0000"/>
<line transform="translate(8.5358, 4.6621)" stroke-linejoin="round" stroke-linecap="round" stroke-width="0.1000" stroke="currentColor" x1="0.0500" y1="-0.0000" x2="74.2416" y2="-0.0000"/>
<line transform="translate(8.5358, 3.6621)" stroke-linejoin="round" stroke-linecap="round" stroke-width="0.1000" stroke="currentColor" x1="0.0500" y1="-0.0000" x2="74.2416" y2="-0.0000"/>
<rect transform="translate(63.0126, 5.6621)" x="-0.0650" y="-0.8139" width="0.1300" height="2.8163" ry="0.0400" fill="currentColor"/>
<g class="note" id="d414233e558">
<path transform="translate(62.9476, 12.1621) scale(0.0040, -0.0040)" d="M218 136c55 0 108 -28 108 -89c0 -71 -55 -121 -102 -149c-35 -21 -75 -34 -116 -34c-55 0 -108 28 -108 89c0 71 55 121 102 149c35 21 75 34 116 34z" fill="currentColor"/>
</g>
<g class="artic">
<path transform="translate(63.5997, 3.1621) scale(0.0040, -0.0040)" d="M-50 0c0 28 22 50 50 50s50 -22 50 -50s-22 -50 -50 -50s-50 22 -50 50z" fill="currentColor"/>
</g>
<g class="note" id="d414233e400">
<path transform="translate(62.9476, 4.6621) scale(0.0040, -0.0040)" d="M218 136c55 0 108 -28 108 -89c0 -71 -55 -121 -102 -149c-35 -21 -75 -34 -116 -34c-55 0 -108 28 -108 89c0 71 55 121 102 149c35 21 75 34 116 34z" fill="currentColor"/>
</g>
<rect transform="translate(60.2584, 14.6621)" x="-0.0650" y="0.6861" width="0.1300" height="3.4038" ry="0.0400" fill="currentColor"/>
<g class="note" id="d414233e540">
<path transform="translate(60.1934, 15.1621) scale(0.0040, -0.0040)" d="M218 136c55 0 108 -28 108 -89c0 -71 -55 -121 -102 -149c-35 -21 -75 -34 -116 -34c-55 0 -108 28 -108 89c0 71 55 121 102 149c35 21 75 34 116 34z" fill="currentColor"/>
</g>
<rect transform="translate(67.5210, 5.6621)" x="-0.0650" y="-0.3139" width="0.1300" height="2.3066" ry="0.0400" fill="currentColor"/>
<g class="note" id="d414233e596">
<path transform="translate(67.4560, 17.1621) scale(0.0040, -0.0040)" d="M218 136c55 0 108 -28 108 -89c0 -71 -55 -121 -102 -149c-35 -21 -75 -34 -116 -34c-55 0 -108 28 -108 89c0 71 55 121 102 149c35 21 75 34 116 34z" fill="currentColor"/>
</g>
<g class="artic">
<path transform="translate(68.1081, 4.1621) scale(0.0040, -0.0040)" d="M-50 0c0 28 22 50 50 50s50 -22 50 -50s-22 -50 -50 -50s-50 22 -50 50z" fill="currentColor"/>
</g>
<g class="note" id="d414233e421">
<path transform="translate(67.4560, 5.1621) scale(0.0040, -0.0040)" d="M218 136c55 0 108 -28 108 -89c0 -71 -55 -121 -102 -149c-35 -21 -75 -34 -116 -34c-55 0 -108 28 -108 89c0 71 55 121 102 149c35 21 75 34 116 34z" fill="currentColor"/>
</g>
<rect transform="translate(63.0126, 14.6621)" x="-0.0650" y="-2.3139" width="0.1300" height="6.0835" ry="0.0400" fill="currentColor"/>
<rect transform="translate(65.2668, 14.6621)" x="-0.0650" y="0.6861" width="0.1300" height="2.8215" ry="0.0400" fill="currentColor"/>
<g class="note" id="d414233e578">
<path transform="translate(65.2018, 15.1621) scale(0.0040, -0.0040)" d="M218 136c55 0 108 -28 108 -89c0 -71 -55 -121 -102 -149c-35 -21 -75 -34 -116 -34c-55 0 -108 28 -108 89c0 71 55 121 102 149c35 21 75 34 116 34z" fill="currentColor"/>
</g>
<rect transform="translate(52.4957, 14.6621)" x="-0.0650" y="2.6861" width="0.1300" height="2.3063" ry="0.0400" fill="currentColor"/>
<g class="beam">
<polygon transform="translate(21.1340, 18.8521)" stroke-linejoin="round" stroke-linecap="round" stroke-width="0.0800" fill="currentColor" stroke="currentColor" points="12.8611 -1.7000 12.8611 -1.3000 0.0400 0.2000 0.0400 -0.2000"/>
<polygon transform="translate(21.1340, 19.6621)" stroke-linejoin="round" stroke-linecap="round" stroke-width="0.0800" fill="currentColor" stroke="currentColor" points="12.8611 -1.7000 12.8611 -1.3000 0.0400 0.2000 0.0400 -0.2000"/>
</g>
<g class="note" id="d414233e381">
<path transform="translate(57.9392, 5.1621) scale(0.0040, -0.0040)" d="M218 136c55 0 108 -28 108 -89c0 -71 -55 -121 -102 -149c-35 -21 -75 -34 -116 -34c-55 0 -108 28 -108 89c0 71 55 121 102 149c35 21 75 34 116 34z" fill="currentColor"/>
</g>
<rect transform="translate(58.0042, 14.6621)" x="-0.0650" y="-2.8139" width="0.1300" height="7.1659" ry="0.0400" fill="currentColor"/>
<rect transform="translate(58.0042, 5.6621)" x="-0.0650" y="-0.3139" width="0.1300" height="2.5015" ry="0.0400" fill="currentColor"/>
<g class="note" id="d414233e522">
<path transform="translate(57.9392, 11.6621) scale(0.0040, -0.0040)" d="M218 136c55 0 108 -28 108 -89c0 -71 -55 -121 -102 -149c-35 -21 -75 -34 -116 -34c-55 0 -108 28 -108 89c0 71 55 121 102 149c35 21 75 34 116 34z" fill="currentColor"/>
</g>
<g class="artic">
<path transform="translate(58.5913, 4.1621) scale(0.0040, -0.0040)" d="M-50 0c0 28 22 50 50 50s50 -22 50 -50s-22 -50 -50 -50s-50 22 -50 50z" fill="currentColor"/>
</g>
<rect transform="translate(55.2500, 14.6621)" x="-0.0650" y="0.6861" width="0.1300" height="3.9861" ry="0.0400" fill="currentColor"/>
<g class="note" id="d414233e504">
<path transform="translate(55.1850, 15.1621) scale(0.0040, -0.0040)" d="M218 136c55 0 108 -28 108 -89c0 -71 -55 -121 -102 -149c-35 -21 -75 -34 -116 -34c-55 0 -108 28 -108 89c0 71 55 121 102 149c35 21 75 34 116 34z" fill="currentColor"/>
</g>
<rect transform="translate(80.2921, 14.6621)" x="-0.0650" y="0.6861" width="0.1300" height="2.8215" ry="0.0400" fill="currentColor"/>
<g class="note" id="d414233e691">
<path transform="translate(80.2271, 15.1621) scale(0.0040, -0.0040)" d="M218 136c55 0 108 -28 108 -89c0 -71 -55 -121 -102 -149c-35 -21 -75 -34 -116 -34c-55 0 -108 28 -108 89c0 71 55 121 102 149c35 21 75 34 116 34z" fill="currentColor"/>
</g>
<rect transform="translate(78.0379, 14.6621)" x="-0.0650" y="-2.3139" width="0.1300" height="6.0835" ry="0.0400" fill="currentColor"/>
<g class="beam">
<polygon transform="translate(57.9392, 7.8521)" stroke-linejoin="round" stroke-linecap="round" stroke-width="0.0800" fill="currentColor" stroke="currentColor" points="5.0984 -0.3900 5.0984 0.0100 0.0400 0.2000 0.0400 -0.2000"/>
</g>
<g class="slur">
<path transform="translate(21.1340, 14.6621)" stroke-width="0.0800" stroke-linejoin="round" stroke-linecap="round" stroke="currentColor" fill="currentColor" d="M0.5848 -1.0450C2.3571 -2.9240 11.0941 -4.2922 13.3559 -3.0450L13.3559 -3.0450C11.1127 -4.1737 2.3756 -2.8054 0.5848 -1.0450z"/>
</g>
<g class="beam">
<polygon transform="translate(27.8167, 3.8521)" stroke-linejoin="round" stroke-linecap="round" stroke-width="0.0800" fill="currentColor" stroke="currentColor" points="5.0984 -0.3900 5.0984 0.0100 0.0400 0.2000 0.0400 -0.2000"/>
</g>
<g class="slur">
<path transform="translate(26.6425, 5.6621)" stroke-width="0.0800" stroke-linejoin="round" stroke-linecap="round" stroke="currentColor" fill="currentColor" d="M0.6824 3.5450C1.9057 4.5130 4.6141 4.3237 5.6908 3.1950L5.6908 3.1950C4.6057 4.2040 1.8973 4.3933 0.6824 3.5450z"/>
</g>
<g class="beam">
<polygon transform="translate(36.1593, 19.0421)" stroke-linejoin="round" stroke-linecap="round" stroke-width="0.0800" fill="currentColor" stroke="currentColor" points="12.8611 -1.8900 12.8611 -1.4900 0.0400 0.2000 0.0400 -0.2000"/>
<polygon transform="translate(36.1593, 19.8521)" stroke-linejoin="round" stroke-linecap="round" stroke-width="0.0800" fill="currentColor" stroke="currentColor" points="12.8611 -1.8900 12.8611 -1.4900 0.0400 0.2000 0.0400 -0.2000"/>
</g>
<g class="slur">
<path transform="translate(36.1593, 14.6621)" stroke-width="0.0800" stroke-linejoin="round" stroke-linecap="round" stroke="currentColor" fill="currentColor" d="M0.5848 -2.0450C2.3571 -3.9240 11.0941 -5.2922 13.3559 -4.0450L13.3559 -4.0450C11.1127 -5.1737 2.3756 -3.8054 0.5848 -2.0450z"/>
</g>
<g class="beam">
<polygon transform="translate(42.8420, 2.8521)" stroke-linejoin="round" stroke-linecap="round" stroke-width="0.0800" fill="currentColor" stroke="currentColor" points="5.0984 -0.3900 5.0984 0.0100 0.0400 0.2000 0.0400 -0.2000"/>
</g>
<g class="slur">
<path transform="translate(41.6677, 5.6621)" stroke-width="0.0800" stroke-linejoin="round" stroke-linecap="round" stroke="currentColor" fill="currentColor" d="M0.6824 2.5450C1.9057 3.5130 4.6141 3.3237 5.6908 2.1950L5.6908 2.1950C4.6057 3.2040 1.8973 3.3933 0.6824 2.5450z"/>
</g>
<g class="beam">
<polygon transform="translate(52.4307, 18.8521)" stroke-linejoin="round" stroke-linecap="round" stroke-width="0.0800" fill="currentColor" stroke="currentColor" points="12.8611 -1.7000 12.8611 -1.3000 0.0400 0.2000 0.0400 -0.2000"/>
<polygon transform="translate(52.4307, 19.6621)" stroke-linejoin="round" stroke-linecap="round" stroke-width="0.0800" fill="currentColor" stroke="currentColor" points="12.8611 -1.7000 12.8611 -1.3000 0.0400 0.2000 0.0400 -0.2000"/>
</g>
<g class="beam">
<polygon transform="translate(67.4560, 7.6621)" stroke-linejoin="round" stroke-linecap="round" stroke-width="0.0800" fill="currentColor" stroke="currentColor" points="10.6068 -1.3900 10.6068 -0.9900 0.0400 0.2000 0.0400 -0.2000"/>
</g>
<g class="beam">
<polygon transform="translate(67.4560, 18.8521)" stroke-linejoin="round" stroke-linecap="round" stroke-width="0.0800" fill="currentColor" stroke="currentColor" points="12.8611 -1.7000 12.8611 -1.3000 0.0400 0.2000 0.0400 -0.2000"/>
<polygon transform="translate(67.4560, 19.6621)" stroke-linejoin="round" stroke-linecap="round" stroke-width="0.0800" fill="currentColor" stroke="currentColor" points="12.8611 -1.7000 12.8611 -1.3000 0.0400 0.2000 0.0400 -0.2000"/>
</g>
<rect transform="translate(73.0294, 5.6621)" x="-0.0650" y="-2.8139" width="0.1300" height="4.1910" ry="0.0400" fill="currentColor"/>
<g class="note" id="d414233e632">
<path transform="translate(72.9644, 12.6621) scale(0.0040, -0.0040)" d="M218 136c55 0 108 -28 108 -89c0 -71 -55 -121 -102 -149c-35 -21 -75 -34 -116 -34c-55 0 -108 28 -108 89c0 71 55 121 102 149c35 21 75 34 116 34z" fill="currentColor"/>
</g>
<g class="artic">
<path transform="translate(73.6165, 1.7171) scale(0.0040, -0.0040)" d="M-50 0c0 28 22 50 50 50s50 -22 50 -50s-22 -50 -50 -50s-50 22 -50 50z" fill="currentColor"/>
</g>
<g class="note" id="d414233e445">
<path transform="translate(72.9644, 2.6621) scale(0.0040, -0.0040)" d="M218 136c55 0 108 -28 108 -89c0 -71 -55 -121 -102 -149c-35 -21 -75 -34 -116 -34c-55 0 -108 28 -108 89c0 71 55 121 102 149c35 21 75 34 116 34z" fill="currentColor"/>
</g>
<rect transform="translate(70.2752, 14.6621)" x="-0.0650" y="0.6861" width="0.1300" height="3.9861" ry="0.0400" fill="currentColor"/>
<g class="note" id="d414233e614">
<path transform="translate(70.2102, 15.1621) scale(0.0040, -0.0040)" d="M218 136c55 0 108 -28 108 -89c0 -71 -55 -121 -102 -149c-35 -21 -75 -34 -116 -34c-55 0 -108 28 -108 89c0 71 55 121 102 149c35 21 75 34 116 34z" fill="currentColor"/>
</g>
<rect transform="translate(67.5210, 14.6621)" x="-0.0650" y="2.6861" width="0.1300" height="2.3063" ry="0.0400" fill="currentColor"/>
<rect transform="translate(78.0379, 5.6621)" x="-0.0650" y="-2.3139" width="0.1300" height="3.1312" ry="0.0400" fill="currentColor"/>
<g class="note" id="d414233e670">
<path transform="translate(77.9729, 12.1621) scale(0.0040, -0.0040)" d="M218 136c55 0 108 -28 108 -89c0 -71 -55 -121 -102 -149c-35 -21 -75 -34 -116 -34c-55 0 -108 28 -108 89c0 71 55 121 102 149c35 21 75 34 116 34z" fill="currentColor"/>
</g>
<g class="artic">
<path transform="translate(78.6250, 2.2171) scale(0.0040, -0.0040)" d="M-50 0c0 28 22 50 50 50s50 -22 50 -50s-22 -50 -50 -50s-50 22 -50 50z" fill="currentColor"/>
</g>
<g class="note" id="d414233e466">
<path transform="translate(77.9729, 3.1621) scale(0.0040, -0.0040)" d="M218 136c55 0 108 -28 108 -89c0 -71 -55 -121 -102 -149c-35 -21 -75 -34 -116 -34c-55 0 -108 28 -108 89c0 71 55 121 102 149c35 21 75 34 116 34z" fill="currentColor"/>
</g>
<rect transform="translate(75.2836, 14.6621)" x="-0.0650" y="0.6861" width="0.1300" height="3.4038" ry="0.0400" fill="currentColor"/>
<g class="note" id="d414233e652">
<path transform="translate(75.2186, 15.1621) scale(0.0040, -0.0040)" d="M218 136c55 0 108 -28 108 -89c0 -71 -55 -121 -102 -149c-35 -21 -75 -34 -116 -34c-55 0 -108 28 -108 89c0 71 55 121 102 149c35 21 75 34 116 34z" fill="currentColor"/>
</g>
<rect transform="translate(73.0294, 14.6621)" x="-0.0650" y="-1.8139" width="0.1300" height="6.1659" ry="0.0400" fill="currentColor"/>
<rect transform="translate(28.9617, 14.6621)" x="-0.0650" y="0.6861" width="0.1300" height="3.4038" ry="0.0400" fill="currentColor"/>
<g class="note" id="d414233e204">
<path transform="translate(28.8967, 15.1621) scale(0.0040, -0.0040)" d="M218 136c55 0 108 -28 108 -89c0 -71 -55 -121 -102 -149c-35 -21 -75 -34 -116 -34c-55 0 -108 28 -108 89c0 71 55 121 102 149c35 21 75 34 116 34z" fill="currentColor"/>
</g>
<rect transform="translate(26.7075, 14.6621)" x="-0.0650" y="-1.8139" width="0.1300" height="6.1659" ry="0.0400" fill="currentColor"/>
<rect transform="translate(27.8817, 5.6621)" x="-0.0650" y="-1.8124" width="0.1300" height="3.1263" ry="0.0400" fill="currentColor"/>
<g class="note" id="d414233e184">
<path transform="translate(26.6425, 12.6621) scale(0.0040, -0.0040)" d="M218 136c55 0 108 -28 108 -89c0 -71 -55 -121 -102 -149c-35 -21 -75 -34 -116 -34c-55 0 -108 28 -108 89c0 71 55 121 102 149c35 21 75 34 116 34z" fill="currentColor"/>
</g>
<g class="artic">
<path transform="translate(27.2946, 8.1621) scale(0.0040, -0.0040)" d="M-50 0c0 28 22 50 50 50s50 -22 50 -50s-22 -50 -50 -50s-50 22 -50 50z" fill="currentColor"/>
</g>
<g class="note" id="d414233e38">
<path transform="translate(26.6425, 7.1621) scale(0.0040, -0.0040)" d="M218 136c55 0 108 -28 108 -89c0 -71 -55 -121 -102 -149c-35 -21 -75 -34 -116 -34c-55 0 -108 28 -108 89c0 71 55 121 102 149c35 21 75 34 116 34z" fill="currentColor"/>
</g>
<rect transform="translate(33.9701, 14.6621)" x="-0.0650" y="0.6861" width="0.1300" height="2.8215" ry="0.0400" fill="currentColor"/>
<g class="note" id="d414233e242">
<path transform="translate(33.9051, 15.1621) scale(0.0040, -0.0040)" d="M218 136c55 0 108 -28 108 -89c0 -71 -55 -121 -102 -149c-35 -21 -75 -34 -116 -34c-55 0 -108 28 -108 89c0 71 55 121 102 149c35 21 75 34 116 34z" fill="currentColor"/>
</g>
<rect transform="translate(31.7159, 14.6621)" x="-0.0650" y="-2.3139" width="0.1300" height="6.0835" ry="0.0400" fill="currentColor"/>
<rect transform="translate(32.8901, 5.6621)" x="-0.0650" y="-1.9976" width="0.1300" height="2.8115" ry="0.0400" fill="currentColor"/>
<g class="note" id="d414233e222">
<path transform="translate(31.6509, 12.1621) scale(0.0040, -0.0040)" d="M218 136c55 0 108 -28 108 -89c0 -71 -55 -121 -102 -149c-35 -21 -75 -34 -116 -34c-55 0 -108 28 -108 89c0 71 55 121 102 149c35 21 75 34 116 34z" fill="currentColor"/>
</g>
<g class="artic">
<path transform="translate(32.3030, 8.1621) scale(0.0040, -0.0040)" d="M-50 0c0 28 22 50 50 50s50 -22 50 -50s-22 -50 -50 -50s-50 22 -50 50z" fill="currentColor"/>
</g>
<g class="note" id="d414233e62">
<path transform="translate(31.6509, 6.6621) scale(0.0040, -0.0040)" d="M218 136c55 0 108 -28 108 -89c0 -71 -55 -121 -102 -149c-35 -21 -75 -34 -116 -34c-55 0 -108 28 -108 89c0 71 55 121 102 149c35 21 75 34 116 34z" fill="currentColor"/>
</g>
<g class="rest" id="d414233e30">
<path transform="translate(21.1340, 5.6621) scale(0.0040, -0.0040)" d="M72 -250l117 326c-34 -12 -69 -22 -105 -22c-46 0 -87 33 -87 79c0 40 33 72 73 72c25 0 48 -15 56 -39c10 -28 6 -59 35 -59c16 0 54 48 61 63c6 12 23 12 28 0l-123 -420c-8 -7 -17 -10 -27 -10s-20 3 -28 10z" fill="currentColor"/>
</g>
<g class="tempo">
<text transform="translate(17.6659, 1.6389)" font-family="serif" font-weight="bold" font-size="2.2001" text-anchor="start" fill="currentColor">
<tspan>Allegro</tspan>
</text>
<text transform="translate(27.1773, 1.6389)" font-family="serif" font-weight="bold" font-size="2.2001" text-anchor="start" fill="currentColor">
<tspan>molto</tspan>
</text>
<text transform="translate(34.8791, 1.6389)" font-family="serif" font-weight="bold" font-size="2.2001" text-anchor="start" fill="currentColor">
<tspan>agitato</tspan>
</text>
</g>
<g class="meterSig">
<path transform="translate(17.7171, 14.6621) scale(0.0040, -0.0040)" d="M170 256c-51 0 -53 -44 -53 -102v-14v-15c0 -58 2 -102 53 -102c57 0 61 51 61 117s-4 116 -61 116zM117 266c17 7 34 13 53 13c101 0 170 -44 170 -139s-69 -140 -170 -140c-112 0 -170 124 -170 250c0 128 72 250 190 250c71 0 138 -39 138 -103c0 -36 -29 -66 -65 -66
s-66 30 -66 66c0 24 39 25 39 49c0 20 -23 31 -46 31c-66 0 -75 -65 -75 -139c0 -24 2 -48 2 -72z" fill="currentColor"/>
<path transform="translate(17.6659, 16.6766) scale(0.0040, -0.0040)" d="M259 288c27 29 49 62 49 102c0 55 -57 87 -117 87c-47 0 -75 -36 -75 -71c0 -20 10 -40 30 -52zM289 271c55 -31 83 -79 83 -127c0 -73 -66 -144 -189 -144c-94 0 -183 54 -183 140c0 50 39 85 76 120c-41 28 -61 67 -61 106c0 68 61 134 176 134c81 0 161 -38 161 -110
c0 -47 -30 -85 -63 -119zM106 242c-33 -29 -62 -59 -62 -102c0 -69 66 -117 139 -117c54 0 86 42 86 83c0 24 -10 48 -35 62z" fill="currentColor"/>
</g>
<g class="keySig">
<path transform="translate(12.9558, 15.6621) scale(0.0040, -0.0040)" d="M27 41l-1 -66v-11c0 -22 1 -44 4 -66c45 38 93 80 93 139c0 33 -14 67 -43 67c-31 0 -52 -30 -53 -63zM-15 -138l-12 595c8 5 18 8 27 8s19 -3 27 -8l-7 -345c25 21 58 34 91 34c52 0 89 -48 89 -102c0 -80 -86 -117 -147 -169c-15 -13 -24 -38 -45 -38
c-13 0 -23 11 -23 25z" fill="currentColor"/>
<path transform="translate(13.8759, 14.1621) scale(0.0040, -0.0040)" d="M27 41l-1 -66v-11c0 -22 1 -44 4 -66c45 38 93 80 93 139c0 33 -14 67 -43 67c-31 0 -52 -30 -53 -63zM-15 -138l-12 595c8 5 18 8 27 8s19 -3 27 -8l-7 -345c25 21 58 34 91 34c52 0 89 -48 89 -102c0 -80 -86 -117 -147 -169c-15 -13 -24 -38 -45 -38
c-13 0 -23 11 -23 25z" fill="currentColor"/>
<path transform="translate(14.7959, 16.1621) scale(0.0040, -0.0040)" d="M27 41l-1 -66v-11c0 -22 1 -44 4 -66c45 38 93 80 93 139c0 33 -14 67 -43 67c-31 0 -52 -30 -53 -63zM-15 -138l-12 595c8 5 18 8 27 8s19 -3 27 -8l-7 -345c25 21 58 34 91 34c52 0 89 -48 89 -102c0 -80 -86 -117 -147 -169c-15 -13 -24 -38 -45 -38
c-13 0 -23 11 -23 25z" fill="currentColor"/>
<path transform="translate(15.7159, 14.6621) scale(0.0040, -0.0040)" d="M27 41l-1 -66v-11c0 -22 1 -44 4 -66c45 38 93 80 93 139c0 33 -14 67 -43 67c-31 0 -52 -30 -53 -63zM-15 -138l-12 595c8 5 18 8 27 8s19 -3 27 -8l-7 -345c25 21 58 34 91 34c52 0 89 -48 89 -102c0 -80 -86 -117 -147 -169c-15 -13 -24 -38 -45 -38
c-13 0 -23 11 -23 25z" fill="currentColor"/>
</g>
<g class="clef">
<path transform="translate(9.3358, 13.6621) scale(0.0040, -0.0040)" d="M557 -125c0 28 23 51 51 51s51 -23 51 -51s-23 -51 -51 -51s-51 23 -51 51zM557 125c0 28 23 51 51 51s51 -23 51 -51s-23 -51 -51 -51s-51 23 -51 51zM232 263c172 0 293 -88 293 -251c0 -263 -263 -414 -516 -521c-3 -3 -6 -4 -9 -4c-7 0 -13 6 -13 13c0 3 1 6 4 9
c202 118 412 265 412 493c0 120 -63 235 -171 235c-74 0 -129 -54 -154 -126c11 5 22 8 34 8c55 0 100 -45 100 -100c0 -58 -44 -106 -100 -106c-60 0 -112 47 -112 106c0 133 102 244 232 244z" fill="currentColor"/>
</g>
<g class="note" id="d414233e148">
<path transform="translate(21.1340, 17.1621) scale(0.0040, -0.0040)" d="M218 136c55 0 108 -28 108 -89c0 -71 -55 -121 -102 -149c-35 -21 -75 -34 -116 -34c-55 0 -108 28 -108 89c0 71 55 121 102 149c35 21 75 34 116 34z" fill="currentColor"/>
</g>
<g class="meterSig">
<path transform="translate(17.7171, 5.6621) scale(0.0040, -0.0040)" d="M170 256c-51 0 -53 -44 -53 -102v-14v-15c0 -58 2 -102 53 -102c57 0 61 51 61 117s-4 116 -61 116zM117 266c17 7 34 13 53 13c101 0 170 -44 170 -139s-69 -140 -170 -140c-112 0 -170 124 -170 250c0 128 72 250 190 250c71 0 138 -39 138 -103c0 -36 -29 -66 -65 -66
s-66 30 -66 66c0 24 39 25 39 49c0 20 -23 31 -46 31c-66 0 -75 -65 -75 -139c0 -24 2 -48 2 -72z" fill="currentColor"/>
<path transform="translate(17.6659, 7.6766) scale(0.0040, -0.0040)" d="M259 288c27 29 49 62 49 102c0 55 -57 87 -117 87c-47 0 -75 -36 -75 -71c0 -20 10 -40 30 -52zM289 271c55 -31 83 -79 83 -127c0 -73 -66 -144 -189 -144c-94 0 -183 54 -183 140c0 50 39 85 76 120c-41 28 -61 67 -61 106c0 68 61 134 176 134c81 0 161 -38 161 -110
c0 -47 -30 -85 -63 -119zM106 242c-33 -29 -62 -59 -62 -102c0 -69 66 -117 139 -117c54 0 86 42 86 83c0 24 -10 48 -35 62z" fill="currentColor"/>
</g>
<g class="keySig">
<path transform="translate(12.9558, 5.6621) scale(0.0040, -0.0040)" d="M27 41l-1 -66v-11c0 -22 1 -44 4 -66c45 38 93 80 93 139c0 33 -14 67 -43 67c-31 0 -52 -30 -53 -63zM-15 -138l-12 595c8 5 18 8 27 8s19 -3 27 -8l-7 -345c25 21 58 34 91 34c52 0 89 -48 89 -102c0 -80 -86 -117 -147 -169c-15 -13 -24 -38 -45 -38
c-13 0 -23 11 -23 25z" fill="currentColor"/>
<path transform="translate(13.8759, 4.1621) scale(0.0040, -0.0040)" d="M27 41l-1 -66v-11c0 -22 1 -44 4 -66c45 38 93 80 93 139c0 33 -14 67 -43 67c-31 0 -52 -30 -53 -63zM-15 -138l-12 595c8 5 18 8 27 8s19 -3 27 -8l-7 -345c25 21 58 34 91 34c52 0 89 -48 89 -102c0 -80 -86 -117 -147 -169c-15 -13 -24 -38 -45 -38
c-13 0 -23 11 -23 25z" fill="currentColor"/>
<path transform="translate(14.7959, 6.1621) scale(0.0040, -0.0040)" d="M27 41l-1 -66v-11c0 -22 1 -44 4 -66c45 38 93 80 93 139c0 33 -14 67 -43 67c-31 0 -52 -30 -53 -63zM-15 -138l-12 595c8 5 18 8 27 8s19 -3 27 -8l-7 -345c25 21 58 34 91 34c52 0 89 -48 89 -102c0 -80 -86 -117 -147 -169c-15 -13 -24 -38 -45 -38
c-13 0 -23 11 -23 25z" fill="currentColor"/>
<path transform="translate(15.7159, 4.6621) scale(0.0040, -0.0040)" d="M27 41l-1 -66v-11c0 -22 1 -44 4 -66c45 38 93 80 93 139c0 33 -14 67 -43 67c-31 0 -52 -30 -53 -63zM-15 -138l-12 595c8 5 18 8 27 8s19 -3 27 -8l-7 -345c25 21 58 34 91 34c52 0 89 -48 89 -102c0 -80 -86 -117 -147 -169c-15 -13 -24 -38 -45 -38
c-13 0 -23 11 -23 25z" fill="currentColor"/>
</g>
<g class="clef">
<path transform="translate(9.3358, 6.6621) scale(0.0040, -0.0040)" d="M376 262c4 0 9 1 13 1c155 0 256 -128 256 -261c0 -76 -33 -154 -107 -210c-22 -17 -47 -28 -73 -36c3 -35 5 -70 5 -105c0 -19 -1 -39 -2 -58c-7 -120 -90 -228 -208 -228c-108 0 -195 88 -195 197c0 58 53 103 112 103c54 0 95 -47 95 -103c0 -52 -43 -95 -95 -95
c-11 0 -21 2 -31 6c26 -39 68 -65 117 -65c96 0 157 92 163 191c1 18 2 37 2 55c0 31 -1 61 -4 92c-29 -5 -58 -8 -89 -8c-188 0 -333 172 -333 374c0 177 131 306 248 441c-19 62 -37 125 -45 190c-6 52 -7 104 -7 156c0 115 55 224 149 292c3 2 7 3 10 3c4 0 7 0 10 -3
c71 -84 133 -245 133 -358c0 -143 -86 -255 -180 -364c21 -68 39 -138 56 -207zM461 -203c68 24 113 95 113 164c0 90 -66 179 -173 190c24 -116 46 -231 60 -354zM74 28c0 -135 129 -247 264 -247c28 0 55 2 82 6c-14 127 -37 245 -63 364c-79 -8 -124 -61 -124 -119
c0 -44 25 -91 81 -123c5 -5 7 -10 7 -15c0 -11 -10 -22 -22 -22c-3 0 -6 1 -9 2c-80 43 -117 115 -117 185c0 88 58 174 160 197c-14 58 -29 117 -46 175c-107 -121 -213 -243 -213 -403zM408 1045c-99 -48 -162 -149 -162 -259c0 -74 18 -133 36 -194
c80 97 146 198 146 324c0 55 -4 79 -20 129z" fill="currentColor"/>
</g>
<rect transform="translate(8.4758, 10.1621)" x="0.0000" y="-6.5500" width="0.1600" height="13.1000" ry="0.0500" fill="currentColor"/>
<path transform="translate(8.1758, 10.1621) scale(0.0040, -0.0040)" d="M-15 -498c0 -261 -102 -516 -102 -765c0 -135 30 -261 129 -360c3 -3 3 -9 3 -12c0 -9 -6 -18 -15 -18c-3 0 -9 3 -12 6c-132 135 -177 312 -177 501c0 267 108 528 108 780c0 135 -33 261 -129 360c-3 3 -3 3 -3 6s0 3 3 6c96 99 129 225 129 360
c0 252 -108 513 -108 780c0 189 45 366 177 501c3 3 9 6 12 6c9 0 15 -9 15 -18c0 -3 0 -9 -3 -12c-99 -99 -129 -225 -129 -360c0 -249 102 -504 102 -765c0 -186 -45 -363 -174 -498c129 -135 174 -312 174 -498z" fill="currentColor"/>
<text transform="translate(-0.4286, 10.9474)" font-family="serif" font-size="2.2001" text-anchor="start" fill="currentColor">
<tspan>Piano</tspan>
</text>
<rect transform="translate(23.9533, 14.6621)" x="-0.0650" y="0.6861" width="0.1300" height="3.9861" ry="0.0400" fill="currentColor"/>
<g class="note" id="d414233e166">
<path transform="translate(23.8883, 15.1621) scale(0.0040, -0.0040)" d="M218 136c55 0 108 -28 108 -89c0 -71 -55 -121 -102 -149c-35 -21 -75 -34 -116 -34c-55 0 -108 28 -108 89c0 71 55 121 102 149c35 21 75 34 116 34z" fill="currentColor"/>
</g>
<rect transform="translate(21.1990, 14.6621)" x="-0.0650" y="2.6861" width="0.1300" height="2.3063" ry="0.0400" fill="currentColor"/>
<g class="note" id="d414233e315">
<path transform="translate(43.9220, 15.1621) scale(0.0040, -0.0040)" d="M218 136c55 0 108 -28 108 -89c0 -71 -55 -121 -102 -149c-35 -21 -75 -34 -116 -34c-55 0 -108 28 -108 89c0 71 55 121 102 149c35 21 75 34 116 34z" fill="currentColor"/>
</g>
<rect transform="translate(47.9154, 5.6621)" x="-0.0650" y="-2.9976" width="0.1300" height="2.8115" ry="0.0400" fill="currentColor"/>
<g class="note" id="d414233e333">
<path transform="translate(46.6762, 11.1621) scale(0.0040, -0.0040)" d="M218 136c55 0 108 -28 108 -89c0 -71 -55 -121 -102 -149c-35 -21 -75 -34 -116 -34c-55 0 -108 28 -108 89c0 71 55 121 102 149c35 21 75 34 116 34z" fill="currentColor"/>
</g>
<g class="artic">
<path transform="translate(47.3283, 7.1621) scale(0.0040, -0.0040)" d="M-50 0c0 28 22 50 50 50s50 -22 50 -50s-22 -50 -50 -50s-50 22 -50 50z" fill="currentColor"/>
</g>
<g class="note" id="d414233e110">
<path transform="translate(46.6762, 5.6621) scale(0.0040, -0.0040)" d="M218 136c55 0 108 -28 108 -89c0 -71 -55 -121 -102 -149c-35 -21 -75 -34 -116 -34c-55 0 -108 28 -108 89c0 71 55 121 102 149c35 21 75 34 116 34z" fill="currentColor"/>
</g>
<rect transform="translate(43.9870, 14.6621)" x="-0.0650" y="0.6861" width="0.1300" height="3.4785" ry="0.0400" fill="currentColor"/>
<rect transform="translate(41.7327, 14.6621)" x="-0.0650" y="-2.8139" width="0.1300" height="7.2738" ry="0.0400" fill="currentColor"/>
<g class="note" id="d414233e353">
<path transform="translate(48.9304, 15.1621) scale(0.0040, -0.0040)" d="M218 136c55 0 108 -28 108 -89c0 -71 -55 -121 -102 -149c-35 -21 -75 -34 -116 -34c-55 0 -108 28 -108 89c0 71 55 121 102 149c35 21 75 34 116 34z" fill="currentColor"/>
</g>
<g class="note" id="d414233e486">
<path transform="translate(52.4307, 17.1621) scale(0.0040, -0.0040)" d="M218 136c55 0 108 -28 108 -89c0 -71 -55 -121 -102 -149c-35 -21 -75 -34 -116 -34c-55 0 -108 28 -108 89c0 71 55 121 102 149c35 21 75 34 116 34z" fill="currentColor"/>
</g>
<g class="rest" id="d414233e373">
<path transform="translate(52.4307, 5.6621) scale(0.0040, -0.0040)" d="M72 -250l117 326c-34 -12 -69 -22 -105 -22c-46 0 -87 33 -87 79c0 40 33 72 73 72c25 0 48 -15 56 -39c10 -28 6 -59 35 -59c16 0 54 48 61 63c6 12 23 12 28 0l-123 -420c-8 -7 -17 -10 -27 -10s-20 3 -28 10z" fill="currentColor"/>
</g>
<rect transform="translate(48.9954, 14.6621)" x="-0.0650" y="0.6861" width="0.1300" height="2.8224" ry="0.0400" fill="currentColor"/>
<rect transform="translate(46.7412, 14.6621)" x="-0.0650" y="-3.3139" width="0.1300" height="7.1177" ry="0.0400" fill="currentColor"/>
<rect transform="translate(38.9785, 14.6621)" x="-0.0650" y="0.6861" width="0.1300" height="4.1346" ry="0.0400" fill="currentColor"/>
<g class="note" id="d414233e279">
<path transform="translate(38.9135, 15.1621) scale(0.0040, -0.0040)" d="M218 136c55 0 108 -28 108 -89c0 -71 -55 -121 -102 -149c-35 -21 -75 -34 -116 -34c-55 0 -108 28 -108 89c0 71 55 121 102 149c35 21 75 34 116 34z" fill="currentColor"/>
</g>
<rect transform="translate(36.2243, 14.6621)" x="-0.0650" y="2.6861" width="0.1300" height="2.4954" ry="0.0400" fill="currentColor"/>
<g class="note" id="d414233e260">
<path transform="translate(36.1593, 17.1621) scale(0.0040, -0.0040)" d="M218 136c55 0 108 -28 108 -89c0 -71 -55 -121 -102 -149c-35 -21 -75 -34 -116 -34c-55 0 -108 28 -108 89c0 71 55 121 102 149c35 21 75 34 116 34z" fill="currentColor"/>
</g>
<g class="rest" id="d414233e81">
<path transform="translate(36.1593, 5.6621) scale(0.0040, -0.0040)" d="M72 -250l117 326c-34 -12 -69 -22 -105 -22c-46 0 -87 33 -87 79c0 40 33 72 73 72c25 0 48 -15 56 -39c10 -28 6 -59 35 -59c16 0 54 48 61 63c6 12 23 12 28 0l-123 -420c-8 -7 -17 -10 -27 -10s-20 3 -28 10z" fill="currentColor"/>
</g>
<g class="note" id="d414233e89">
<path transform="translate(41.6677, 6.1621) scale(0.0040, -0.0040)" d="M218 136c55 0 108 -28 108 -89c0 -71 -55 -121 -102 -149c-35 -21 -75 -34 -116 -34c-55 0 -108 28 -108 89c0 71 55 121 102 149c35 21 75 34 116 34z" fill="currentColor"/>
</g>
<g class="artic">
<path transform="translate(42.3198, 7.1621) scale(0.0040, -0.0040)" d="M-50 0c0 28 22 50 50 50s50 -22 50 -50s-22 -50 -50 -50s-50 22 -50 50z" fill="currentColor"/>
</g>
<g class="note" id="d414233e297">
<path transform="translate(41.6677, 11.6621) scale(0.0040, -0.0040)" d="M218 136c55 0 108 -28 108 -89c0 -71 -55 -121 -102 -149c-35 -21 -75 -34 -116 -34c-55 0 -108 28 -108 89c0 71 55 121 102 149c35 21 75 34 116 34z" fill="currentColor"/>
</g>
<rect transform="translate(42.9070, 5.6621)" x="-0.0650" y="-2.8124" width="0.1300" height="3.1263" ry="0.0400" fill="currentColor"/>
</svg>
