<svg xmlns="http://www.w3.org/2000/svg" xmlns:xlink="http://www.w3.org/1999/xlink" version="1.2" width="56.81mm" height="12.92mm" viewBox="8.5358 -0.0240 32.3260 7.3500">
<style text="style/css">
<![CDATA[
tspan { white-space: pre; }
]]>
</style>
<line transform="translate(8.5358, 5.7760)" stroke-linejoin="round" stroke-linecap="round" stroke-width="0.1000" stroke="currentColor" x1="0.0500" y1="-0.0000" x2="32.3260" y2="-0.0000"/>
<line transform="translate(8.5358, 4.7760)" stroke-linejoin="round" stroke-linecap="round" stroke-width="0.1000" stroke="currentColor" x1="0.0500" y1="-0.0000" x2="32.3260" y2="-0.0000"/>
<line transform="translate(8.5358, 3.7760)" stroke-linejoin="round" stroke-linecap="round" stroke-width="0.1000" stroke="currentColor" x1="0.0500" y1="-0.0000" x2="32.3260" y2="-0.0000"/>
<line transform="translate(8.5358, 2.7760)" stroke-linejoin="round" stroke-linecap="round" stroke-width="0.1000" stroke="currentColor" x1="0.0500" y1="-0.0000" x2="32.3260" y2="-0.0000"/>
<line transform="translate(8.5358, 1.7760)" stroke-linejoin="round" stroke-linecap="round" stroke-width="0.1000" stroke="currentColor" x1="0.0500" y1="-0.0000" x2="32.3260" y2="-0.0000"/>
<rect transform="translate(27.0218, 3.7760)" x="0.0000" y="-2.0000" width="0.1900" height="4.0000" ry="0.0000" fill="currentColor"/>
<rect transform="translate(26.5318, 3.7760)" x="0.0000" y="-2.0000" width="0.1900" height="4.0000" ry="0.0000" fill="currentColor"/>
<rect transform="translate(35.4018, 3.7760)" x="0.0000" y="-2.0000" width="0.1900" height="4.0000" ry="0.0000" fill="currentColor"/>
<rect transform="translate(34.9118, 3.7760)" x="0.0000" y="-2.0000" width="0.1900" height="4.0000" ry="0.0000" fill="currentColor"/>
<g class="multiRest">
<path transform="translate(30.3118, 2.7760) scale(0.0040, -0.0040)" d="M365 -156h-355c-6 0 -10 4 -10 10v136c0 6 4 10 10 10h355c6 0 10 -4 10 -10v-136c0 -6 -4 -10 -10 -10z" fill="currentColor"/>
</g>
<g class="multiRest">
<path transform="translate(18.6858, 2.7760) scale(0.0040, -0.0040)" d="M365 -156h-355c-6 0 -10 4 -10 10v136c0 6 4 10 10 10h355c6 0 10 -4 10 -10v-136c0 -6 -4 -10 -10 -10z" fill="currentColor"/>
</g>
<g class="clef">
<path transform="translate(9.3358, 4.7760) scale(0.0040, -0.0040)" d="M376 262c4 0 9 1 13 1c155 0 256 -128 256 -261c0 -76 -33 -154 -107 -210c-22 -17 -47 -28 -73 -36c3 -35 5 -70 5 -105c0 -19 -1 -39 -2 -58c-7 -120 -90 -228 -208 -228c-108 0 -195 88 -195 197c0 58 53 103 112 103c54 0 95 -47 95 -103c0 -52 -43 -95 -95 -95
c-11 0 -21 2 -31 6c26 -39 68 -65 117 -65c96 0 157 92 163 191c1 18 2 37 2 55c0 31 -1 61 -4 92c-29 -5 -58 -8 -89 -8c-188 0 -333 172 -333 374c0 177 131 306 248 441c-19 62 -37 125 -45 190c-6 52 -7 104 -7 156c0 115 55 224 149 292c3 2 7 3 10 3c4 0 7 0 10 -3
c71 -84 133 -245 133 -358c0 -143 -86 -255 -180 -364c21 -68 39 -138 56 -207zM461 -203c68 24 113 95 113 164c0 90 -66 179 -173 190c24 -116 46 -231 60 -354zM74 28c0 -135 129 -247 264 -247c28 0 55 2 82 6c-14 127 -37 245 -63 364c-79 -8 -124 -61 -124 -119
c0 -44 25 -91 81 -123c5 -5 7 -10 7 -15c0 -11 -10 -22 -22 -22c-3 0 -6 1 -9 2c-80 43 -117 115 -117 185c0 88 58 174 160 197c-14 58 -29 117 -46 175c-107 -121 -213 -243 -213 -403zM408 1045c-99 -48 -162 -149 -162 -259c0 -74 18 -133 36 -194
c80 97 146 198 146 324c0 55 -4 79 -20 129z" fill="currentColor"/>
</g>
<g class="meterSig">
<path transform="translate(13.5358, 3.7760) scale(0.0040, -0.0040)" d="M359 27c-49 0 -75 42 -75 75c0 38 27 77 72 77c4 0 9 0 14 -1c-28 37 -72 59 -120 59h-13v-474c4 0 9 -1 13 -1c80 0 139 70 158 151c2 7 7 10 12 10c6 0 13 -4 13 -12c0 -94 -105 -174 -183 -174c-4 0 -9 1 -13 1v-78c0 -6 -4 -10 -10 -10h-17c-6 0 -10 4 -10 10v81
c-51 8 -99 29 -134 66c-49 51 -66 122 -66 193s17 142 66 193c35 37 83 58 134 66v81c0 6 4 10 10 10h17c6 0 10 -4 10 -10v-78h13c87 0 160 -64 175 -150c1 -5 1 -9 1 -13c0 -40 -30 -72 -67 -72zM200 -230v460c-58 -22 -63 -87 -63 -179v-51v-51c0 -92 5 -157 63 -179z
" fill="currentColor"/>
</g>
<g class="clef">
<path transform="translate(23.6358, 3.7760) scale(0.0040, -0.0040)" d="M265 0c0 -25 3 -57 33 -57c24 0 44 27 69 27c98 0 182 -74 182 -170c0 -134 -70 -200 -205 -200c-65 0 -121 49 -121 113c0 33 27 60 60 60s61 -27 61 -60c0 -30 -36 -31 -36 -61c0 -17 17 -28 36 -28c91 0 108 72 108 176c0 86 -11 146 -85 146c-55 0 -90 -56 -90 -116
c0 -8 -6 -12 -12 -12s-13 4 -13 12c0 59 -24 115 -66 155v-375c0 -6 -4 -10 -10 -10h-17c-6 0 -10 4 -10 10v780c0 6 4 10 10 10h17c6 0 10 -4 10 -10v-375c42 40 66 96 66 155c0 8 7 12 13 12s12 -4 12 -12c0 -60 35 -116 90 -116c74 0 85 60 85 146
c0 104 -17 175 -108 175c-19 0 -36 -10 -36 -27c0 -30 36 -31 36 -61c0 -33 -28 -60 -61 -60s-60 27 -60 60c0 64 56 113 121 113c135 0 205 -66 205 -200c0 -96 -84 -170 -182 -170c-25 0 -45 27 -69 27c-30 0 -33 -32 -33 -57zM102 -400h-92c-6 0 -10 4 -10 10v780
c0 6 4 10 10 10h92c6 0 10 -4 10 -10v-780c0 -6 -4 -10 -10 -10z" fill="currentColor"/>
</g>
</svg>
