<svg xmlns="http://www.w3.org/2000/svg" xmlns:xlink="http://www.w3.org/1999/xlink" version="1.2" width="24.84mm" height="95.06mm" viewBox="6.0979 -0.0159 14.1351 54.0947">
<style text="style/css">
<![CDATA[
tspan { white-space: pre; }
]]>
</style>
<line transform="translate(8.5358, 3.8122)" stroke-linejoin="round" stroke-linecap="round" stroke-width="0.1000" stroke="currentColor" x1="8.5858" y1="-0.0000" x2="11.6972" y2="-0.0000"/>
<line transform="translate(8.5358, 3.1522)" stroke-linejoin="round" stroke-linecap="round" stroke-width="0.1000" stroke="currentColor" x1="8.5858" y1="-0.0000" x2="11.6972" y2="-0.0000"/>
<line transform="translate(8.5358, 2.4922)" stroke-linejoin="round" stroke-linecap="round" stroke-width="0.1000" stroke="currentColor" x1="8.5858" y1="-0.0000" x2="11.6972" y2="-0.0000"/>
<line transform="translate(8.5358, 1.8322)" stroke-linejoin="round" stroke-linecap="round" stroke-width="0.1000" stroke="currentColor" x1="8.5858" y1="-0.0000" x2="11.6972" y2="-0.0000"/>
<line transform="translate(8.5358, 1.1722)" stroke-linejoin="round" stroke-linecap="round" stroke-width="0.1000" stroke="currentColor" x1="8.5858" y1="-0.0000" x2="11.6972" y2="-0.0000"/>
<line transform="translate(8.5358, 53.9922)" stroke-linejoin="round" stroke-linecap="round" stroke-width="0.1000" stroke="currentColor" x1="8.5858" y1="-0.0000" x2="11.6972" y2="-0.0000"/>
<line transform="translate(8.5358, 52.9922)" stroke-linejoin="round" stroke-linecap="round" stroke-width="0.1000" stroke="currentColor" x1="8.5858" y1="-0.0000" x2="11.6972" y2="-0.0000"/>
<line transform="translate(8.5358, 51.9922)" stroke-linejoin="round" stroke-linecap="round" stroke-width="0.1000" stroke="currentColor" x1="8.5858" y1="-0.0000" x2="11.6972" y2="-0.0000"/>
<line transform="translate(8.5358, 50.9922)" stroke-linejoin="round" stroke-linecap="round" stroke-width="0.1000" stroke="currentColor" x1="8.5858" y1="-0.0000" x2="11.6972" y2="-0.0000"/>
<line transform="translate(8.5358, 49.9922)" stroke-linejoin="round" stroke-linecap="round" stroke-width="0.1000" stroke="currentColor" x1="8.5858" y1="-0.0000" x2="11.6972" y2="-0.0000"/>
<line transform="translate(8.5358, 44.9922)" stroke-linejoin="round" stroke-linecap="round" stroke-width="0.1000" stroke="currentColor" x1="8.5858" y1="-0.0000" x2="11.6972" y2="-0.0000"/>
<line transform="translate(8.5358, 43.9922)" stroke-linejoin="round" stroke-linecap="round" stroke-width="0.1000" stroke="currentColor" x1="8.5858" y1="-0.0000" x2="11.6972" y2="-0.0000"/>
<line transform="translate(8.5358, 42.9922)" stroke-linejoin="round" stroke-linecap="round" stroke-width="0.1000" stroke="currentColor" x1="8.5858" y1="-0.0000" x2="11.6972" y2="-0.0000"/>
<line transform="translate(8.5358, 41.9922)" stroke-linejoin="round" stroke-linecap="round" stroke-width="0.1000" stroke="currentColor" x1="8.5858" y1="-0.0000" x2="11.6972" y2="-0.0000"/>
<line transform="translate(8.5358, 40.9922)" stroke-linejoin="round" stroke-linecap="round" stroke-width="0.1000" stroke="currentColor" x1="8.5858" y1="-0.0000" x2="11.6972" y2="-0.0000"/>
<line transform="translate(8.5358, 34.4922)" stroke-linejoin="round" stroke-linecap="round" stroke-width="0.1000" stroke="currentColor" x1="8.5858" y1="-0.0000" x2="11.6972" y2="-0.0000"/>
<line transform="translate(8.5358, 33.4922)" stroke-linejoin="round" stroke-linecap="round" stroke-width="0.1000" stroke="currentColor" x1="8.5858" y1="-0.0000" x2="11.6972" y2="-0.0000"/>
<line transform="translate(8.5358, 32.4922)" stroke-linejoin="round" stroke-linecap="round" stroke-width="0.1000" stroke="currentColor" x1="8.5858" y1="-0.0000" x2="11.6972" y2="-0.0000"/>
<line transform="translate(8.5358, 31.4922)" stroke-linejoin="round" stroke-linecap="round" stroke-width="0.1000" stroke="currentColor" x1="8.5858" y1="-0.0000" x2="11.6972" y2="-0.0000"/>
<line transform="translate(8.5358, 30.4922)" stroke-linejoin="round" stroke-linecap="round" stroke-width="0.1000" stroke="currentColor" x1="8.5858" y1="-0.0000" x2="11.6972" y2="-0.0000"/>
<line transform="translate(8.5358, 23.3122)" stroke-linejoin="round" stroke-linecap="round" stroke-width="0.1000" stroke="currentColor" x1="8.5858" y1="-0.0000" x2="11.6972" y2="-0.0000"/>
<line transform="translate(8.5358, 22.6522)" stroke-linejoin="round" stroke-linecap="round" stroke-width="0.1000" stroke="currentColor" x1="8.5858" y1="-0.0000" x2="11.6972" y2="-0.0000"/>
<line transform="translate(8.5358, 21.9922)" stroke-linejoin="round" stroke-linecap="round" stroke-width="0.1000" stroke="currentColor" x1="8.5858" y1="-0.0000" x2="11.6972" y2="-0.0000"/>
<line transform="translate(8.5358, 21.3322)" stroke-linejoin="round" stroke-linecap="round" stroke-width="0.1000" stroke="currentColor" x1="8.5858" y1="-0.0000" x2="11.6972" y2="-0.0000"/>
<line transform="translate(8.5358, 20.6722)" stroke-linejoin="round" stroke-linecap="round" stroke-width="0.1000" stroke="currentColor" x1="8.5858" y1="-0.0000" x2="11.6972" y2="-0.0000"/>
<line transform="translate(8.5358, 14.3122)" stroke-linejoin="round" stroke-linecap="round" stroke-width="0.1000" stroke="currentColor" x1="8.5858" y1="-0.0000" x2="11.6972" y2="-0.0000"/>
<line transform="translate(8.5358, 13.6522)" stroke-linejoin="round" stroke-linecap="round" stroke-width="0.1000" stroke="currentColor" x1="8.5858" y1="-0.0000" x2="11.6972" y2="-0.0000"/>
<line transform="translate(8.5358, 12.9922)" stroke-linejoin="round" stroke-linecap="round" stroke-width="0.1000" stroke="currentColor" x1="8.5858" y1="-0.0000" x2="11.6972" y2="-0.0000"/>
<line transform="translate(8.5358, 12.3322)" stroke-linejoin="round" stroke-linecap="round" stroke-width="0.1000" stroke="currentColor" x1="8.5858" y1="-0.0000" x2="11.6972" y2="-0.0000"/>
<line transform="translate(8.5358, 11.6722)" stroke-linejoin="round" stroke-linecap="round" stroke-width="0.1000" stroke="currentColor" x1="8.5858" y1="-0.0000" x2="11.6972" y2="-0.0000"/>
<g class="clef">
<path transform="translate(9.0638, 33.4922) scale(0.0040, -0.0040)" d="M376 262c4 0 9 1 13 1c155 0 256 -128 256 -261c0 -76 -33 -154 -107 -210c-22 -17 -47 -28 -73 -36c3 -35 5 -70 5 -105c0 -19 -1 -39 -2 -58c-7 -120 -90 -228 -208 -228c-108 0 -195 88 -195 197c0 58 53 103 112 103c54 0 95 -47 95 -103c0 -52 -43 -95 -95 -95
c-11 0 -21 2 -31 6c26 -39 68 -65 117 -65c96 0 157 92 163 191c1 18 2 37 2 55c0 31 -1 61 -4 92c-29 -5 -58 -8 -89 -8c-188 0 -333 172 -333 374c0 177 131 306 248 441c-19 62 -37 125 -45 190c-6 52 -7 104 -7 156c0 115 55 224 149 292c3 2 7 3 10 3c4 0 7 0 10 -3
c71 -84 133 -245 133 -358c0 -143 -86 -255 -180 -364c21 -68 39 -138 56 -207zM461 -203c68 24 113 95 113 164c0 90 -66 179 -173 190c24 -116 46 -231 60 -354zM74 28c0 -135 129 -247 264 -247c28 0 55 2 82 6c-14 127 -37 245 -63 364c-79 -8 -124 -61 -124 -119
c0 -44 25 -91 81 -123c5 -5 7 -10 7 -15c0 -11 -10 -22 -22 -22c-3 0 -6 1 -9 2c-80 43 -117 115 -117 185c0 88 58 174 160 197c-14 58 -29 117 -46 175c-107 -121 -213 -243 -213 -403zM408 1045c-99 -48 -162 -149 -162 -259c0 -74 18 -133 36 -194
c80 97 146 198 146 324c0 55 -4 79 -20 129z" fill="currentColor"/>
</g>
<g class="clef">
<path transform="translate(9.0638, 50.9922) scale(0.0040, -0.0040)" d="M557 -125c0 28 23 51 51 51s51 -23 51 -51s-23 -51 -51 -51s-51 23 -51 51zM557 125c0 28 23 51 51 51s51 -23 51 -51s-23 -51 -51 -51s-51 23 -51 51zM232 263c172 0 293 -88 293 -251c0 -263 -263 -414 -516 -521c-3 -3 -6 -4 -9 -4c-7 0 -13 6 -13 13c0 3 1 6 4 9
c202 118 412 265 412 493c0 120 -63 235 -171 235c-74 0 -129 -54 -154 -126c11 5 22 8 34 8c55 0 100 -45 100 -100c0 -58 -44 -106 -100 -106c-60 0 -112 47 -112 106c0 133 102 244 232 244z" fill="currentColor"/>
</g>
<path transform="translate(6.8658, 17.4922) scale(0.0040, -0.0040)" d="M-18 -447c0 -234 -90 -459 -90 -678c0 -123 30 -234 120 -321c3 -3 3 -9 3 -12c0 -9 -6 -15 -15 -15c-3 0 -9 0 -12 3c-123 117 -165 279 -165 450c0 237 96 468 96 693c0 120 -27 234 -117 321c-3 3 -3 3 -3 6s0 3 3 6c90 87 117 201 117 321c0 225 -96 456 -96 693
c0 171 42 333 165 450c3 3 9 3 12 3c9 0 15 -6 15 -15c0 -3 0 -9 -3 -12c-90 -87 -120 -198 -120 -321c0 -219 90 -444 90 -678c0 -168 -42 -330 -159 -447c117 -117 159 -279 159 -447z" fill="currentColor"/>
<path transform="translate(7.1658, 0.8972) scale(0.0040, -0.0040)" d="M450 333c9 0 16 -8 16 -16c0 -3 -1 -6 -3 -9c-99 -144 -215 -364 -388 -364h-75v87c0 14 11 25 25 25h50c159 0 271 136 362 270c3 4 8 7 13 7z" fill="currentColor"/>
<path transform="translate(7.1658, 23.5872) scale(0.0040, -0.0040)" d="M466 -317c0 -8 -7 -16 -16 -16c-5 0 -10 3 -13 7c-91 134 -203 270 -362 270h-50c-14 0 -25 11 -25 25v87h75c173 0 289 -220 388 -364c2 -3 3 -6 3 -9z" fill="currentColor"/>
<rect transform="translate(7.1658, 12.2422)" x="0.0000" y="-11.1650" width="0.4500" height="22.3300" ry="0.0000" fill="currentColor"/>
<path transform="translate(8.1158, 47.4922) scale(0.0040, -0.0040)" d="M-15 -498c0 -261 -102 -516 -102 -765c0 -135 30 -261 129 -360c3 -3 3 -9 3 -12c0 -9 -6 -18 -15 -18c-3 0 -9 3 -12 6c-132 135 -177 312 -177 501c0 267 108 528 108 780c0 135 -33 261 -129 360c-3 3 -3 3 -3 6s0 3 3 6c96 99 129 225 129 360
c0 252 -108 513 -108 780c0 189 45 366 177 501c3 3 9 6 12 6c9 0 15 -9 15 -18c0 -3 0 -9 -3 -12c-99 -99 -129 -225 -129 -360c0 -249 102 -504 102 -765c0 -186 -45 -363 -174 -498c129 -135 174 -312 174 -498z" fill="currentColor"/>
<rect transform="translate(8.4158, 27.5822)" x="0.0000" y="-26.4600" width="0.1600" height="52.9200" ry="0.0500" fill="currentColor"/>
<rect transform="translate(8.4758, 27.5822)" x="0.0000" y="-26.4600" width="0.1600" height="52.9200" ry="0.0500" fill="currentColor"/>
<g class="clef">
<path transform="translate(9.0638, 3.1522) scale(0.0026, -0.0026)" d="M335 -267c-189 0 -333 175 -333 379c0 176 126 308 239 444c-22 62 -42 124 -51 189c-7 53 -9 106 -9 160c0 112 54 218 145 284c5 3 11 5 16 5c6 0 11 -2 16 -6c73 -82 137 -243 137 -356c0 -141 -80 -253 -170 -362c22 -67 41 -135 58 -203h7c158 0 259 -130 259 -265
c0 -77 -33 -156 -108 -213c-22 -16 -46 -28 -71 -36c2 -31 4 -63 4 -94c0 -22 -1 -44 -2 -66c-7 -123 -93 -231 -214 -231c-109 0 -197 88 -197 197c0 58 53 104 112 104c54 0 95 -48 95 -104c0 -52 -43 -95 -95 -95c-7 0 -13 1 -20 3c25 -34 64 -56 108 -56
c94 0 155 91 161 189c1 20 2 41 2 61c0 27 -1 53 -3 80c-28 -5 -56 -8 -86 -8zM466 -199c63 25 105 94 105 158c0 85 -61 169 -159 185c23 -112 42 -223 54 -343zM338 -217c27 0 54 2 80 6c-12 125 -32 241 -57 357c-78 -7 -123 -59 -123 -116c0 -42 25 -87 78 -118
c6 -5 8 -12 8 -18c0 -13 -11 -25 -25 -25c-3 0 -7 0 -11 2c-82 44 -119 116 -119 188c0 91 60 180 165 203c-14 55 -30 109 -47 163c-103 -123 -206 -246 -206 -405c0 -130 126 -237 257 -237zM398 1030c-99 -44 -162 -141 -162 -249c0 -67 24 -125 43 -179
c76 97 138 199 138 322c0 46 -4 65 -19 106z" fill="currentColor"/>
</g>
<g class="clef">
<path transform="translate(9.0638, 13.6522) scale(0.0026, -0.0026)" d="M335 -267c-189 0 -333 175 -333 379c0 176 126 308 239 444c-22 62 -42 124 -51 189c-7 53 -9 106 -9 160c0 112 54 218 145 284c5 3 11 5 16 5c6 0 11 -2 16 -6c73 -82 137 -243 137 -356c0 -141 -80 -253 -170 -362c22 -67 41 -135 58 -203h7c158 0 259 -130 259 -265
c0 -77 -33 -156 -108 -213c-22 -16 -46 -28 -71 -36c2 -31 4 -63 4 -94c0 -22 -1 -44 -2 -66c-7 -123 -93 -231 -214 -231c-109 0 -197 88 -197 197c0 58 53 104 112 104c54 0 95 -48 95 -104c0 -52 -43 -95 -95 -95c-7 0 -13 1 -20 3c25 -34 64 -56 108 -56
c94 0 155 91 161 189c1 20 2 41 2 61c0 27 -1 53 -3 80c-28 -5 -56 -8 -86 -8zM466 -199c63 25 105 94 105 158c0 85 -61 169 -159 185c23 -112 42 -223 54 -343zM338 -217c27 0 54 2 80 6c-12 125 -32 241 -57 357c-78 -7 -123 -59 -123 -116c0 -42 25 -87 78 -118
c6 -5 8 -12 8 -18c0 -13 -11 -25 -25 -25c-3 0 -7 0 -11 2c-82 44 -119 116 -119 188c0 91 60 180 165 203c-14 55 -30 109 -47 163c-103 -123 -206 -246 -206 -405c0 -130 126 -237 257 -237zM398 1030c-99 -44 -162 -141 -162 -249c0 -67 24 -125 43 -179
c76 97 138 199 138 322c0 46 -4 65 -19 106z" fill="currentColor"/>
</g>
<g class="clef">
<path transform="translate(9.0638, 22.6522) scale(0.0026, -0.0026)" d="M335 -267c-189 0 -333 175 -333 379c0 176 126 308 239 444c-22 62 -42 124 -51 189c-7 53 -9 106 -9 160c0 112 54 218 145 284c5 3 11 5 16 5c6 0 11 -2 16 -6c73 -82 137 -243 137 -356c0 -141 -80 -253 -170 -362c22 -67 41 -135 58 -203h7c158 0 259 -130 259 -265
c0 -77 -33 -156 -108 -213c-22 -16 -46 -28 -71 -36c2 -31 4 -63 4 -94c0 -22 -1 -44 -2 -66c-7 -123 -93 -231 -214 -231c-109 0 -197 88 -197 197c0 58 53 104 112 104c54 0 95 -48 95 -104c0 -52 -43 -95 -95 -95c-7 0 -13 1 -20 3c25 -34 64 -56 108 -56
c94 0 155 91 161 189c1 20 2 41 2 61c0 27 -1 53 -3 80c-28 -5 -56 -8 -86 -8zM466 -199c63 25 105 94 105 158c0 85 -61 169 -159 185c23 -112 42 -223 54 -343zM338 -217c27 0 54 2 80 6c-12 125 -32 241 -57 357c-78 -7 -123 -59 -123 -116c0 -42 25 -87 78 -118
c6 -5 8 -12 8 -18c0 -13 -11 -25 -25 -25c-3 0 -7 0 -11 2c-82 44 -119 116 -119 188c0 91 60 180 165 203c-14 55 -30 109 -47 163c-103 -123 -206 -246 -206 -405c0 -130 126 -237 257 -237zM398 1030c-99 -44 -162 -141 -162 -249c0 -67 24 -125 43 -179
c76 97 138 199 138 322c0 46 -4 65 -19 106z" fill="currentColor"/>
</g>
<g class="clef">
<path transform="translate(9.0638, 43.9922) scale(0.0040, -0.0040)" d="M376 262c4 0 9 1 13 1c155 0 256 -128 256 -261c0 -76 -33 -154 -107 -210c-22 -17 -47 -28 -73 -36c3 -35 5 -70 5 -105c0 -19 -1 -39 -2 -58c-7 -120 -90 -228 -208 -228c-108 0 -195 88 -195 197c0 58 53 103 112 103c54 0 95 -47 95 -103c0 -52 -43 -95 -95 -95
c-11 0 -21 2 -31 6c26 -39 68 -65 117 -65c96 0 157 92 163 191c1 18 2 37 2 55c0 31 -1 61 -4 92c-29 -5 -58 -8 -89 -8c-188 0 -333 172 -333 374c0 177 131 306 248 441c-19 62 -37 125 -45 190c-6 52 -7 104 -7 156c0 115 55 224 149 292c3 2 7 3 10 3c4 0 7 0 10 -3
c71 -84 133 -245 133 -358c0 -143 -86 -255 -180 -364c21 -68 39 -138 56 -207zM461 -203c68 24 113 95 113 164c0 90 -66 179 -173 190c24 -116 46 -231 60 -354zM74 28c0 -135 129 -247 264 -247c28 0 55 2 82 6c-14 127 -37 245 -63 364c-79 -8 -124 -61 -124 -119
c0 -44 25 -91 81 -123c5 -5 7 -10 7 -15c0 -11 -10 -22 -22 -22c-3 0 -6 1 -9 2c-80 43 -117 115 -117 185c0 88 58 174 160 197c-14 58 -29 117 -46 175c-107 -121 -213 -243 -213 -403zM408 1045c-99 -48 -162 -149 -162 -259c0 -74 18 -133 36 -194
c80 97 146 198 146 324c0 55 -4 79 -20 129z" fill="currentColor"/>
</g>
</svg>
