<svg xmlns="http://www.w3.org/2000/svg" xmlns:xlink="http://www.w3.org/1999/xlink" version="1.2" width="177.11mm" height="38.08mm" viewBox="7.3376 -0.0572 100.7828 21.6691">
<style text="style/css">
<![CDATA[
tspan { white-space: pre; }
]]>
</style>
<line transform="translate(8.5358, 8.7275)" stroke-linejoin="round" stroke-linecap="round" stroke-width="0.1000" stroke="currentColor" x1="0.0500" y1="-0.0000" x2="99.5346" y2="-0.0000"/>
<line transform="translate(8.5358, 7.7275)" stroke-linejoin="round" stroke-linecap="round" stroke-width="0.1000" stroke="currentColor" x1="0.0500" y1="-0.0000" x2="99.5346" y2="-0.0000"/>
<line transform="translate(8.5358, 6.7275)" stroke-linejoin="round" stroke-linecap="round" stroke-width="0.1000" stroke="currentColor" x1="0.0500" y1="-0.0000" x2="99.5346" y2="-0.0000"/>
<line transform="translate(8.5358, 5.7275)" stroke-linejoin="round" stroke-linecap="round" stroke-width="0.1000" stroke="currentColor" x1="0.0500" y1="-0.0000" x2="99.5346" y2="-0.0000"/>
<line transform="translate(8.5358, 4.7275)" stroke-linejoin="round" stroke-linecap="round" stroke-width="0.1000" stroke="currentColor" x1="0.0500" y1="-0.0000" x2="99.5346" y2="-0.0000"/>
<rect transform="translate(76.6764, 16.6161)" x="0.0000" y="-2.0500" width="0.1900" height="4.0500" ry="0.0000" fill="currentColor"/>
<rect transform="translate(107.9305, 6.7275)" x="0.0000" y="-2.0000" width="0.1900" height="4.0500" ry="0.0000" fill="currentColor"/>
<rect transform="translate(76.6764, 6.7275)" x="0.0000" y="-2.0000" width="0.1900" height="4.0500" ry="0.0000" fill="currentColor"/>
<rect transform="translate(107.9305, 16.6161)" x="0.0000" y="-2.0500" width="0.1900" height="4.0500" ry="0.0000" fill="currentColor"/>
<line transform="translate(8.5358, 18.6161)" stroke-linejoin="round" stroke-linecap="round" stroke-width="0.1000" stroke="currentColor" x1="0.0500" y1="-0.0000" x2="99.5346" y2="-0.0000"/>
<line transform="translate(8.5358, 17.6161)" stroke-linejoin="round" stroke-linecap="round" stroke-width="0.1000" stroke="currentColor" x1="0.0500" y1="-0.0000" x2="99.5346" y2="-0.0000"/>
<line transform="translate(8.5358, 16.6161)" stroke-linejoin="round" stroke-linecap="round" stroke-width="0.1000" stroke="currentColor" x1="0.0500" y1="-0.0000" x2="99.5346" y2="-0.0000"/>
<line transform="translate(8.5358, 15.6161)" stroke-linejoin="round" stroke-linecap="round" stroke-width="0.1000" stroke="currentColor" x1="0.0500" y1="-0.0000" x2="99.5346" y2="-0.0000"/>
<line transform="translate(8.5358, 14.6161)" stroke-linejoin="round" stroke-linecap="round" stroke-width="0.1000" stroke="currentColor" x1="0.0500" y1="-0.0000" x2="99.5346" y2="-0.0000"/>
<rect transform="translate(0.0000, 12.6161)" x="97.1081" y="-0.1000" width="1.8053" height="0.2000" ry="0.1000" fill="currentColor"/>
<rect transform="translate(0.0000, 13.6161)" x="96.9571" y="-0.1000" width="1.9563" height="0.2000" ry="0.1000" fill="currentColor"/>
<rect transform="translate(0.0000, 13.6161)" x="89.6750" y="-0.1000" width="1.8291" height="0.2000" ry="0.1000" fill="currentColor"/>
<rect transform="translate(0.0000, 12.6161)" x="31.7413" y="-0.1000" width="1.9563" height="0.2000" ry="0.1000" fill="currentColor"/>
<rect transform="translate(0.0000, 13.6161)" x="31.7413" y="-0.1000" width="1.9563" height="0.2000" ry="0.1000" fill="currentColor"/>
<rect transform="translate(0.0000, 9.7275)" x="78.6652" y="-0.1000" width="1.8291" height="0.2000" ry="0.1000" fill="currentColor"/>
<rect transform="translate(0.0000, 3.7275)" x="35.7710" y="-0.1000" width="1.9563" height="0.2000" ry="0.1000" fill="currentColor"/>
<rect transform="translate(0.0000, 2.7275)" x="32.7852" y="-0.1000" width="1.9563" height="0.2000" ry="0.1000" fill="currentColor"/>
<rect transform="translate(0.0000, 3.7275)" x="32.7852" y="-0.1000" width="1.9563" height="0.2000" ry="0.1000" fill="currentColor"/>
<rect transform="translate(0.0000, 3.7275)" x="29.6536" y="-0.1000" width="1.9563" height="0.2000" ry="0.1000" fill="currentColor"/>
<rect transform="translate(0.0000, 2.7275)" x="26.4178" y="-0.1000" width="1.9563" height="0.2000" ry="0.1000" fill="currentColor"/>
<rect transform="translate(0.0000, 3.7275)" x="26.4178" y="-0.1000" width="1.9563" height="0.2000" ry="0.1000" fill="currentColor"/>
<rect transform="translate(0.0000, 2.7275)" x="23.2862" y="-0.1000" width="1.9563" height="0.2000" ry="0.1000" fill="currentColor"/>
<rect transform="translate(0.0000, 3.7275)" x="23.2862" y="-0.1000" width="1.9563" height="0.2000" ry="0.1000" fill="currentColor"/>
<rect transform="translate(0.0000, 1.7275)" x="20.2014" y="-0.1000" width="1.8053" height="0.2000" ry="0.1000" fill="currentColor"/>
<rect transform="translate(0.0000, 2.7275)" x="20.0503" y="-0.1000" width="1.9563" height="0.2000" ry="0.1000" fill="currentColor"/>
<rect transform="translate(0.0000, 3.7275)" x="20.0503" y="-0.1000" width="1.9563" height="0.2000" ry="0.1000" fill="currentColor"/>
<rect transform="translate(0.0000, 1.7275)" x="16.8145" y="-0.1000" width="1.9563" height="0.2000" ry="0.1000" fill="currentColor"/>
<rect transform="translate(0.0000, 2.7275)" x="16.8145" y="-0.1000" width="1.9563" height="0.2000" ry="0.1000" fill="currentColor"/>
<rect transform="translate(0.0000, 3.7275)" x="16.8145" y="-0.1000" width="1.9563" height="0.2000" ry="0.1000" fill="currentColor"/>
<path transform="translate(80.1683, 6.2675) scale(0.0040, -0.0040)" d="M0 0c0 -197 207 -336 207 -533c0 -71 -15 -141 -41 -207c-5 -8 -13 -12 -20 -12c-13 0 -26 11 -23 27c26 61 42 126 42 192c0 103 -94 208 -165 283h-16v250h16z" fill="currentColor"/>
<rect transform="translate(80.1033, 6.7275)" x="-0.0650" y="-0.5000" width="0.1300" height="3.3139" ry="0.0400" fill="currentColor"/>
<g class="note" id="n32">
<path transform="translate(78.8641, 18.1161) scale(0.0040, -0.0040)" d="M218 136c55 0 108 -28 108 -89c0 -71 -55 -121 -102 -149c-35 -21 -75 -34 -116 -34c-55 0 -108 28 -108 89c0 71 55 121 102 149c35 21 75 34 116 34z" fill="currentColor"/>
</g>
<g class="note" id="n28">
<path transform="translate(78.8641, 9.7275) scale(0.0040, -0.0040)" d="M218 136c55 0 108 -28 108 -89c0 -71 -55 -121 -102 -149c-35 -21 -75 -34 -116 -34c-55 0 -108 28 -108 89c0 71 55 121 102 149c35 21 75 34 116 34z" fill="currentColor"/>
</g>
<rect transform="translate(74.4714, 6.7275)" x="-0.0650" y="2.6861" width="0.1300" height="3.4989" ry="0.0400" fill="currentColor"/>
<g class="note" id="n21">
<path transform="translate(74.4064, 9.2275) scale(0.0040, -0.0040)" d="M218 136c55 0 108 -28 108 -89c0 -71 -55 -121 -102 -149c-35 -21 -75 -34 -116 -34c-55 0 -108 28 -108 89c0 71 55 121 102 149c35 21 75 34 116 34z" fill="currentColor"/>
</g>
<path transform="translate(70.6863, 8.7275) scale(0.0040, -0.0040)" d="M216 -312c0 -10 -8 -19 -18 -19s-19 9 -19 19v145l-83 -31v-158c0 -10 -9 -19 -19 -19s-18 9 -18 19v145l-32 -12c-2 -1 -5 -1 -7 -1c-11 0 -20 9 -20 20v60c0 8 5 16 13 19l46 16v160l-32 -11c-2 -1 -5 -1 -7 -1c-11 0 -20 9 -20 20v60c0 8 5 15 13 18l46 17v158
c0 10 8 19 18 19s19 -9 19 -19v-145l83 31v158c0 10 9 19 19 19s18 -9 18 -19v-145l32 12c2 1 5 1 7 1c11 0 20 -9 20 -20v-60c0 -8 -5 -16 -13 -19l-46 -16v-160l32 11c2 1 5 1 7 1c11 0 20 -9 20 -20v-60c0 -8 -5 -15 -13 -18l-46 -17v-158zM96 65v-160l83 30v160z" fill="currentColor"/>
<rect transform="translate(82.6337, 16.6161)" x="-0.0650" y="-0.3139" width="0.1300" height="3.7125" ry="0.0400" fill="currentColor"/>
<g class="note" id="n33">
<path transform="translate(82.5687, 16.1161) scale(0.0040, -0.0040)" d="M218 136c55 0 108 -28 108 -89c0 -71 -55 -121 -102 -149c-35 -21 -75 -34 -116 -34c-55 0 -108 28 -108 89c0 71 55 121 102 149c35 21 75 34 116 34z" fill="currentColor"/>
</g>
<rect transform="translate(78.9291, 16.6161)" x="-0.0650" y="1.6861" width="0.1300" height="2.1168" ry="0.0400" fill="currentColor"/>
<path transform="translate(77.4664, 9.7275) scale(0.0040, -0.0040)" d="M152 0c23 -23 56 -28 89 -28c6 0 10 -4 10 -10l9 -87c1 -5 -4 -10 -9 -10h-1l-87 9c-5 1 -10 5 -10 10c0 33 -5 66 -28 89c-23 -23 -28 -56 -28 -89c0 -5 -4 -9 -9 -10l-88 -9h-1c-5 0 -10 5 -9 10l9 87c0 6 4 10 10 10c33 0 66 5 89 28c-23 23 -56 28 -89 28
c-6 0 -10 4 -10 10l-9 87c-1 5 4 10 9 10h1l88 -9c5 -1 9 -5 9 -10c0 -33 5 -66 28 -89c23 23 28 56 28 89c0 5 5 9 10 10l87 9h1c5 0 10 -5 9 -10l-9 -87c0 -6 -4 -10 -10 -10c-33 0 -66 -5 -89 -28z" fill="currentColor"/>
<rect transform="translate(64.7092, 16.6161)" x="-0.0650" y="-0.8139" width="0.1300" height="3.6255" ry="0.0400" fill="currentColor"/>
<g class="note" id="n27">
<path transform="translate(64.6442, 15.6161) scale(0.0040, -0.0040)" d="M218 136c55 0 108 -28 108 -89c0 -71 -55 -121 -102 -149c-35 -21 -75 -34 -116 -34c-55 0 -108 28 -108 89c0 71 55 121 102 149c35 21 75 34 116 34z" fill="currentColor"/>
</g>
<rect transform="translate(63.6752, 6.7275)" x="-0.0650" y="0.6861" width="0.1300" height="4.6740" ry="0.0400" fill="currentColor"/>
<g class="note" id="n17">
<path transform="translate(63.6102, 7.2275) scale(0.0040, -0.0040)" d="M218 136c55 0 108 -28 108 -89c0 -71 -55 -121 -102 -149c-35 -21 -75 -34 -116 -34c-55 0 -108 28 -108 89c0 71 55 121 102 149c35 21 75 34 116 34z" fill="currentColor"/>
</g>
<rect transform="translate(61.4052, 6.7275)" x="-0.0650" y="0.1861" width="0.1300" height="5.0005" ry="0.0400" fill="currentColor"/>
<g class="note" id="n16">
<path transform="translate(61.3402, 6.7275) scale(0.0040, -0.0040)" d="M218 136c55 0 108 -28 108 -89c0 -71 -55 -121 -102 -149c-35 -21 -75 -34 -116 -34c-55 0 -108 28 -108 89c0 71 55 121 102 149c35 21 75 34 116 34z" fill="currentColor"/>
</g>
<path transform="translate(56.8535, 6.2275) scale(0.0040, -0.0040)" d="M-8 375c8 4 17 7 26 7s16 -3 24 -7l-2 -183l106 20h3c10 0 18 -7 18 -17l7 -570c-8 -4 -16 -7 -25 -7s-17 3 -25 7l3 183l-106 -20h-3c-10 0 -18 7 -18 17zM131 112l-92 -17l-3 -207l92 17z" fill="currentColor"/>
<path transform="translate(57.6202, 6.2275) scale(0.0040, -0.0040)" d="M216 -312c0 -10 -8 -19 -18 -19s-19 9 -19 19v145l-83 -31v-158c0 -10 -9 -19 -19 -19s-18 9 -18 19v145l-32 -12c-2 -1 -5 -1 -7 -1c-11 0 -20 9 -20 20v60c0 8 5 16 13 19l46 16v160l-32 -11c-2 -1 -5 -1 -7 -1c-11 0 -20 9 -20 20v60c0 8 5 15 13 18l46 17v158
c0 10 8 19 18 19s19 -9 19 -19v-145l83 31v158c0 10 9 19 19 19s18 -9 18 -19v-145l32 12c2 1 5 1 7 1c11 0 20 -9 20 -20v-60c0 -8 -5 -16 -13 -19l-46 -16v-160l32 11c2 1 5 1 7 1c11 0 20 -9 20 -20v-60c0 -8 -5 -15 -13 -18l-46 -17v-158zM96 65v-160l83 30v160z" fill="currentColor"/>
<g class="beam" id="b1">
<polygon transform="translate(17.1406, 5.7275)" stroke-linejoin="round" stroke-linecap="round" stroke-width="0.0800" fill="currentColor" stroke="currentColor" points="19.0465 -0.0100 19.0465 0.3900 0.0400 0.2000 0.0400 -0.2000"/>
<polygon transform="translate(17.1406, 6.5375)" stroke-linejoin="round" stroke-linecap="round" stroke-width="0.0800" fill="currentColor" stroke="currentColor" points="19.0465 -0.0100 19.0465 0.3900 0.0400 0.2000 0.0400 -0.2000"/>
</g>
<g class="note" id="n19">
<path transform="translate(68.9821, 8.2275) scale(0.0040, -0.0040)" d="M218 136c55 0 108 -28 108 -89c0 -71 -55 -121 -102 -149c-35 -21 -75 -34 -116 -34c-55 0 -108 28 -108 89c0 71 55 121 102 149c35 21 75 34 116 34z" fill="currentColor"/>
</g>
<rect transform="translate(72.2013, 6.7275)" x="-0.0650" y="2.1861" width="0.1300" height="3.8255" ry="0.0400" fill="currentColor"/>
<g class="note" id="n20">
<path transform="translate(72.1363, 8.7275) scale(0.0040, -0.0040)" d="M218 136c55 0 108 -28 108 -89c0 -71 -55 -121 -102 -149c-35 -21 -75 -34 -116 -34c-55 0 -108 28 -108 89c0 71 55 121 102 149c35 21 75 34 116 34z" fill="currentColor"/>
</g>
<rect transform="translate(69.0471, 6.7275)" x="-0.0650" y="1.6861" width="0.1300" height="4.0844" ry="0.0400" fill="currentColor"/>
<path transform="translate(65.3144, 7.7275) scale(0.0040, -0.0040)" d="M152 0c23 -23 56 -28 89 -28c6 0 10 -4 10 -10l9 -87c1 -5 -4 -10 -9 -10h-1l-87 9c-5 1 -10 5 -10 10c0 33 -5 66 -28 89c-23 -23 -28 -56 -28 -89c0 -5 -4 -9 -9 -10l-88 -9h-1c-5 0 -10 5 -9 10l9 87c0 6 4 10 10 10c33 0 66 5 89 28c-23 23 -56 28 -89 28
c-6 0 -10 4 -10 10l-9 87c-1 5 4 10 9 10h1l88 -9c5 -1 9 -5 9 -10c0 -33 5 -66 28 -89c23 23 28 56 28 89c0 5 5 9 10 10l87 9h1c5 0 10 -5 9 -10l-9 -87c0 -6 -4 -10 -10 -10c-33 0 -66 -5 -89 -28z" fill="currentColor"/>
<rect transform="translate(66.7771, 6.7275)" x="-0.0650" y="1.1861" width="0.1300" height="4.4110" ry="0.0400" fill="currentColor"/>
<g class="note" id="n18">
<path transform="translate(66.7121, 7.7275) scale(0.0040, -0.0040)" d="M218 136c55 0 108 -28 108 -89c0 -71 -55 -121 -102 -149c-35 -21 -75 -34 -116 -34c-55 0 -108 28 -108 89c0 71 55 121 102 149c35 21 75 34 116 34z" fill="currentColor"/>
</g>
<rect transform="translate(103.7122, 6.7275)" x="-0.0650" y="0.1861" width="0.1300" height="2.8139" ry="0.0400" fill="currentColor"/>
<path transform="translate(102.1972, 6.7275) scale(0.0040, -0.0040)" d="M216 -312c0 -10 -8 -19 -18 -19s-19 9 -19 19v145l-83 -31v-158c0 -10 -9 -19 -19 -19s-18 9 -18 19v145l-32 -12c-2 -1 -5 -1 -7 -1c-11 0 -20 9 -20 20v60c0 8 5 16 13 19l46 16v160l-32 -11c-2 -1 -5 -1 -7 -1c-11 0 -20 9 -20 20v60c0 8 5 15 13 18l46 17v158
c0 10 8 19 18 19s19 -9 19 -19v-145l83 31v158c0 10 9 19 19 19s18 -9 18 -19v-145l32 12c2 1 5 1 7 1c11 0 20 -9 20 -20v-60c0 -8 -5 -16 -13 -19l-46 -16v-160l32 11c2 1 5 1 7 1c11 0 20 -9 20 -20v-60c0 -8 -5 -15 -13 -18l-46 -17v-158zM96 65v-160l83 30v160z" fill="currentColor"/>
<g class="note" id="n31">
<path transform="translate(103.6472, 6.7275) scale(0.0040, -0.0040)" d="M218 136c55 0 108 -28 108 -89c0 -71 -55 -121 -102 -149c-35 -21 -75 -34 -116 -34c-55 0 -108 28 -108 89c0 71 55 121 102 149c35 21 75 34 116 34z" fill="currentColor"/>
</g>
<rect transform="translate(99.2958, 6.7275)" x="-0.0650" y="0.1861" width="0.1300" height="2.8139" ry="0.0400" fill="currentColor"/>
<g class="note" id="n30">
<path transform="translate(99.2308, 6.7275) scale(0.0040, -0.0040)" d="M218 136c55 0 108 -28 108 -89c0 -71 -55 -121 -102 -149c-35 -21 -75 -34 -116 -34c-55 0 -108 28 -108 89c0 71 55 121 102 149c35 21 75 34 116 34z" fill="currentColor"/>
</g>
<path transform="translate(95.8331, 12.6161) scale(0.0040, -0.0040)" d="M216 -312c0 -10 -8 -19 -18 -19s-19 9 -19 19v145l-83 -31v-158c0 -10 -9 -19 -19 -19s-18 9 -18 19v145l-32 -12c-2 -1 -5 -1 -7 -1c-11 0 -20 9 -20 20v60c0 8 5 16 13 19l46 16v160l-32 -11c-2 -1 -5 -1 -7 -1c-11 0 -20 9 -20 20v60c0 8 5 15 13 18l46 17v158
c0 10 8 19 18 19s19 -9 19 -19v-145l83 31v158c0 10 9 19 19 19s18 -9 18 -19v-145l32 12c2 1 5 1 7 1c11 0 20 -9 20 -20v-60c0 -8 -5 -16 -13 -19l-46 -16v-160l32 11c2 1 5 1 7 1c11 0 20 -9 20 -20v-60c0 -8 -5 -15 -13 -18l-46 -17v-158zM96 65v-160l83 30v160z" fill="currentColor"/>
<g class="tuplet" id="t3">
<text transform="translate(85.7229, 21.5778)" font-family="serif" font-style="italic" font-size="1.7461" text-anchor="start" fill="currentColor">
<tspan>5</tspan>
</text>
</g>
<g class="slur">
<path transform="translate(17.1406, 6.7275)" stroke-width="0.0800" stroke-linejoin="round" stroke-linecap="round" stroke="currentColor" fill="currentColor" d="M0.7123 -6.5450C4.2438 -8.0187 54.9856 -0.9301 57.9781 1.4550L57.9781 1.4550C54.9690 -0.8113 4.2272 -7.8999 0.7123 -6.5450z"/>
</g>
<g class="tuplet" id="t1">
<text transform="translate(26.1205, 8.6048)" font-family="serif" font-style="italic" font-size="1.7461" text-anchor="start" fill="currentColor">
<tspan>7</tspan>
</text>
</g>
<g class="beam">
<polygon transform="translate(17.1406, 20.6161)" stroke-linejoin="round" stroke-linecap="round" stroke-width="0.0800" fill="currentColor" stroke="currentColor" points="47.5936 -1.3900 47.5936 -0.9900 0.0400 0.2000 0.0400 -0.2000"/>
</g>
<g class="beam" id="b2">
<polygon transform="translate(39.3329, 8.6075)" stroke-linejoin="round" stroke-linecap="round" stroke-width="0.0800" fill="currentColor" stroke="currentColor" points="35.1635 2.4900 35.1635 2.8900 0.0400 0.2000 0.0400 -0.2000"/>
<polygon transform="translate(39.3329, 9.4175)" stroke-linejoin="round" stroke-linecap="round" stroke-width="0.0800" fill="currentColor" stroke="currentColor" points="35.1635 2.4900 35.1635 2.8900 0.0400 0.2000 0.0400 -0.2000"/>
<polygon transform="translate(39.3329, 10.2275)" stroke-linejoin="round" stroke-linecap="round" stroke-width="0.0800" fill="currentColor" stroke="currentColor" points="35.1635 2.4900 35.1635 2.8900 0.0400 0.2000 0.0400 -0.2000"/>
</g>
<g class="tuplet" id="t2">
<text transform="translate(55.8079, 13.5661)" font-family="serif" font-style="italic" font-size="1.7461" text-anchor="start" fill="currentColor">
<tspan>14</tspan>
</text>
</g>
<g class="slur">
<path transform="translate(78.8641, 6.7275)" stroke-width="0.0800" stroke-linejoin="round" stroke-linecap="round" stroke="currentColor" fill="currentColor" d="M0.8169 4.0450C2.5657 4.6503 6.0998 3.2031 6.9218 1.5450L6.9218 1.5450C6.0543 3.0921 2.5203 4.5393 0.8169 4.0450z"/>
</g>
<g class="beam">
<polygon transform="translate(78.8641, 20.4261)" stroke-linejoin="round" stroke-linecap="round" stroke-width="0.0800" fill="currentColor" stroke="currentColor" points="14.8044 -1.8200 14.8044 -1.4200 0.0400 0.2000 0.0400 -0.2000"/>
</g>
<g class="beam">
<polygon transform="translate(99.2308, 9.7275)" stroke-linejoin="round" stroke-linecap="round" stroke-width="0.0800" fill="currentColor" stroke="currentColor" points="4.5064 -0.2000 4.5064 0.2000 0.0400 0.2000 0.0400 -0.2000"/>
</g>
<rect transform="translate(89.9388, 16.6161)" x="-0.0650" y="-2.8139" width="0.1300" height="5.4153" ry="0.0400" fill="currentColor"/>
<g class="note" id="n35">
<path transform="translate(89.8738, 13.6161) scale(0.0040, -0.0040)" d="M218 136c55 0 108 -28 108 -89c0 -71 -55 -121 -102 -149c-35 -21 -75 -34 -116 -34c-55 0 -108 28 -108 89c0 71 55 121 102 149c35 21 75 34 116 34z" fill="currentColor"/>
</g>
<rect transform="translate(86.2342, 16.6161)" x="-0.0650" y="-1.8139" width="0.1300" height="4.8196" ry="0.0400" fill="currentColor"/>
<g class="note" id="n34">
<path transform="translate(86.1692, 14.6161) scale(0.0040, -0.0040)" d="M218 136c55 0 108 -28 108 -89c0 -71 -55 -121 -102 -149c-35 -21 -75 -34 -116 -34c-55 0 -108 28 -108 89c0 71 55 121 102 149c35 21 75 34 116 34z" fill="currentColor"/>
</g>
<rect transform="translate(86.2082, 6.7275)" x="-0.0650" y="-3.0000" width="0.1300" height="3.3139" ry="0.0400" fill="currentColor"/>
<path transform="translate(86.7232, 7.2275) scale(0.0040, -0.0040)" d="M0 0c0 31 25 56 56 56s56 -25 56 -56s-25 -56 -56 -56s-56 25 -56 56z" fill="currentColor"/>
<g class="note" id="n29">
<path transform="translate(84.9690, 7.2275) scale(0.0040, -0.0040)" d="M218 136c55 0 108 -28 108 -89c0 -71 -55 -121 -102 -149c-35 -21 -75 -34 -116 -34c-55 0 -108 28 -108 89c0 71 55 121 102 149c35 21 75 34 116 34z" fill="currentColor"/>
</g>
<path transform="translate(81.1187, 16.1161) scale(0.0040, -0.0040)" d="M216 -312c0 -10 -8 -19 -18 -19s-19 9 -19 19v145l-83 -31v-158c0 -10 -9 -19 -19 -19s-18 9 -18 19v145l-32 -12c-2 -1 -5 -1 -7 -1c-11 0 -20 9 -20 20v60c0 8 5 16 13 19l46 16v160l-32 -11c-2 -1 -5 -1 -7 -1c-11 0 -20 9 -20 20v60c0 8 5 15 13 18l46 17v158
c0 10 8 19 18 19s19 -9 19 -19v-145l83 31v158c0 10 9 19 19 19s18 -9 18 -19v-145l32 12c2 1 5 1 7 1c11 0 20 -9 20 -20v-60c0 -8 -5 -16 -13 -19l-46 -16v-160l32 11c2 1 5 1 7 1c11 0 20 -9 20 -20v-60c0 -8 -5 -15 -13 -18l-46 -17v-158zM96 65v-160l83 30v160z" fill="currentColor"/>
<rect transform="translate(97.3481, 16.6161)" x="-0.0650" y="-3.8139" width="0.1300" height="3.8139" ry="0.0400" fill="currentColor"/>
<path transform="translate(99.0373, 12.1161) scale(0.0040, -0.0040)" d="M0 0c0 31 25 56 56 56s56 -25 56 -56s-25 -56 -56 -56s-56 25 -56 56z" fill="currentColor"/>
<g class="note" id="n37">
<path transform="translate(97.2831, 12.6161) scale(0.0040, -0.0040)" d="M218 136c55 0 108 -28 108 -89c0 -71 -55 -121 -102 -149c-35 -21 -75 -34 -116 -34c-55 0 -108 28 -108 89c0 71 55 121 102 149c35 21 75 34 116 34z" fill="currentColor"/>
</g>
<path transform="translate(92.5325, 16.1161) scale(0.0040, -0.0040)" d="M-8 375c8 4 17 7 26 7s16 -3 24 -7l-2 -183l106 20h3c10 0 18 -7 18 -17l7 -570c-8 -4 -16 -7 -25 -7s-17 3 -25 7l3 183l-106 -20h-3c-10 0 -18 7 -18 17zM131 112l-92 -17l-3 -207l92 17z" fill="currentColor"/>
<rect transform="translate(93.6435, 16.6161)" x="-0.0650" y="-0.3139" width="0.1300" height="2.5110" ry="0.0400" fill="currentColor"/>
<g class="note" id="n36">
<path transform="translate(93.5785, 16.1161) scale(0.0040, -0.0040)" d="M218 136c55 0 108 -28 108 -89c0 -71 -55 -121 -102 -149c-35 -21 -75 -34 -116 -34c-55 0 -108 28 -108 89c0 71 55 121 102 149c35 21 75 34 116 34z" fill="currentColor"/>
</g>
<path transform="translate(88.4761, 13.6161) scale(0.0040, -0.0040)" d="M152 0c23 -23 56 -28 89 -28c6 0 10 -4 10 -10l9 -87c1 -5 -4 -10 -9 -10h-1l-87 9c-5 1 -10 5 -10 10c0 33 -5 66 -28 89c-23 -23 -28 -56 -28 -89c0 -5 -4 -9 -9 -10l-88 -9h-1c-5 0 -10 5 -9 10l9 87c0 6 4 10 10 10c33 0 66 5 89 28c-23 23 -56 28 -89 28
c-6 0 -10 4 -10 10l-9 87c-1 5 4 10 9 10h1l88 -9c5 -1 9 -5 9 -10c0 -33 5 -66 28 -89c23 23 28 56 28 89c0 5 5 9 10 10l87 9h1c5 0 10 -5 9 -10l-9 -87c0 -6 -4 -10 -10 -10c-33 0 -66 -5 -89 -28z" fill="currentColor"/>
<rect transform="translate(30.0446, 6.7275)" x="-0.0650" y="-3.3139" width="0.1300" height="3.2523" ry="0.0400" fill="currentColor"/>
<g class="note" id="n5">
<path transform="translate(29.9796, 3.2275) scale(0.0040, -0.0040)" d="M218 136c55 0 108 -28 108 -89c0 -71 -55 -121 -102 -149c-35 -21 -75 -34 -116 -34c-55 0 -108 28 -108 89c0 71 55 121 102 149c35 21 75 34 116 34z" fill="currentColor"/>
</g>
<rect transform="translate(26.8088, 6.7275)" x="-0.0650" y="-3.8139" width="0.1300" height="3.7201" ry="0.0400" fill="currentColor"/>
<g class="note" id="n4">
<path transform="translate(26.7438, 2.7275) scale(0.0040, -0.0040)" d="M218 136c55 0 108 -28 108 -89c0 -71 -55 -121 -102 -149c-35 -21 -75 -34 -116 -34c-55 0 -108 28 -108 89c0 71 55 121 102 149c35 21 75 34 116 34z" fill="currentColor"/>
</g>
<rect transform="translate(24.7211, 16.6161)" x="-0.0650" y="-0.8139" width="0.1300" height="4.6245" ry="0.0400" fill="currentColor"/>
<g class="note" id="n23">
<path transform="translate(24.6561, 15.6161) scale(0.0040, -0.0040)" d="M218 136c55 0 108 -28 108 -89c0 -71 -55 -121 -102 -149c-35 -21 -75 -34 -116 -34c-55 0 -108 28 -108 89c0 71 55 121 102 149c35 21 75 34 116 34z" fill="currentColor"/>
</g>
<rect transform="translate(23.6772, 6.7275)" x="-0.0650" y="-4.3139" width="0.1300" height="4.1890" ry="0.0400" fill="currentColor"/>
<rect transform="translate(33.1763, 6.7275)" x="-0.0650" y="-4.3139" width="0.1300" height="4.2835" ry="0.0400" fill="currentColor"/>
<rect transform="translate(36.1621, 6.7275)" x="-0.0650" y="-2.8139" width="0.1300" height="2.8132" ry="0.0400" fill="currentColor"/>
<g class="note" id="n7">
<path transform="translate(36.0971, 3.7275) scale(0.0040, -0.0040)" d="M218 136c55 0 108 -28 108 -89c0 -71 -55 -121 -102 -149c-35 -21 -75 -34 -116 -34c-55 0 -108 28 -108 89c0 71 55 121 102 149c35 21 75 34 116 34z" fill="currentColor"/>
</g>
<g class="note" id="n3">
<path transform="translate(23.6122, 2.2275) scale(0.0040, -0.0040)" d="M218 136c55 0 108 -28 108 -89c0 -71 -55 -121 -102 -149c-35 -21 -75 -34 -116 -34c-55 0 -108 28 -108 89c0 71 55 121 102 149c35 21 75 34 116 34z" fill="currentColor"/>
</g>
<g class="note" id="n6">
<path transform="translate(33.1113, 2.2275) scale(0.0040, -0.0040)" d="M218 136c55 0 108 -28 108 -89c0 -71 -55 -121 -102 -149c-35 -21 -75 -34 -116 -34c-55 0 -108 28 -108 89c0 71 55 121 102 149c35 21 75 34 116 34z" fill="currentColor"/>
</g>
<rect transform="translate(32.1324, 16.6161)" x="-0.0650" y="-4.3139" width="0.1300" height="7.9394" ry="0.0400" fill="currentColor"/>
<g class="note" id="n24">
<path transform="translate(32.0674, 12.1161) scale(0.0040, -0.0040)" d="M218 136c55 0 108 -28 108 -89c0 -71 -55 -121 -102 -149c-35 -21 -75 -34 -116 -34c-55 0 -108 28 -108 89c0 71 55 121 102 149c35 21 75 34 116 34z" fill="currentColor"/>
</g>
<g class="keySig">
</g>
<rect transform="translate(17.2056, 6.7275)" x="-0.0650" y="-5.3139" width="0.1300" height="5.1245" ry="0.0400" fill="currentColor"/>
<g class="meterSig">
<path transform="translate(13.6724, 16.6161) scale(0.0040, -0.0040)" d="M150 477c-29 0 -59 -8 -59 -33c0 -22 36 -25 36 -47c0 -32 -26 -58 -58 -58s-57 26 -57 58c0 65 67 103 138 103c91 0 169 -33 169 -114c0 -43 -4 -82 -42 -100c-9 -4 -14 -12 -14 -21s5 -18 14 -22c41 -19 56 -57 56 -103c0 -92 -79 -140 -179 -140
c-79 0 -154 42 -154 113c0 36 30 66 66 66s65 -30 65 -66c0 -25 -40 -28 -40 -53c0 -27 32 -37 63 -37c49 0 63 61 63 117v16c0 54 -2 94 -50 94h-80c-10 0 -14 8 -14 15s4 14 14 14h80c49 0 50 43 50 99v8c0 54 -18 91 -67 91z" fill="currentColor"/>
<path transform="translate(13.5358, 18.6647) scale(0.0040, -0.0040)" d="M204 307c22 14 44 29 60 50c11 15 19 33 27 50c2 4 5 6 9 6c6 0 13 -5 13 -14v-245h72c10 0 15 -7 15 -14s-5 -15 -15 -15h-72v-8c0 -48 27 -94 72 -94c8 0 12 -5 12 -11s-4 -12 -12 -12c-44 0 -87 13 -131 13s-87 -13 -131 -13c-8 0 -12 6 -12 12s4 11 12 11
c45 0 73 46 73 94v8h-167c-23 0 -31 14 -31 23c0 3 1 5 2 6c80 93 138 207 138 330c0 9 6 16 13 16h3c23 -7 47 -13 71 -13s48 6 71 13c2 1 3 1 5 1c11 0 18 -10 12 -17l-284 -330h167v131c0 8 1 17 8 22z" fill="currentColor"/>
</g>
<g class="keySig">
</g>
<g class="clef">
<path transform="translate(9.3358, 15.6161) scale(0.0040, -0.0040)" d="M557 -125c0 28 23 51 51 51s51 -23 51 -51s-23 -51 -51 -51s-51 23 -51 51zM557 125c0 28 23 51 51 51s51 -23 51 -51s-23 -51 -51 -51s-51 23 -51 51zM232 263c172 0 293 -88 293 -251c0 -263 -263 -414 -516 -521c-3 -3 -6 -4 -9 -4c-7 0 -13 6 -13 13c0 3 1 6 4 9
c202 118 412 265 412 493c0 120 -63 235 -171 235c-74 0 -129 -54 -154 -126c11 5 22 8 34 8c55 0 100 -45 100 -100c0 -58 -44 -106 -100 -106c-60 0 -112 47 -112 106c0 133 102 244 232 244z" fill="currentColor"/>
</g>
<g class="note" id="n22">
<path transform="translate(17.1406, 18.1161) scale(0.0040, -0.0040)" d="M218 136c55 0 108 -28 108 -89c0 -71 -55 -121 -102 -149c-35 -21 -75 -34 -116 -34c-55 0 -108 28 -108 89c0 71 55 121 102 149c35 21 75 34 116 34z" fill="currentColor"/>
</g>
<g class="meterSig">
<path transform="translate(13.6724, 6.7275) scale(0.0040, -0.0040)" d="M150 477c-29 0 -59 -8 -59 -33c0 -22 36 -25 36 -47c0 -32 -26 -58 -58 -58s-57 26 -57 58c0 65 67 103 138 103c91 0 169 -33 169 -114c0 -43 -4 -82 -42 -100c-9 -4 -14 -12 -14 -21s5 -18 14 -22c41 -19 56 -57 56 -103c0 -92 -79 -140 -179 -140
c-79 0 -154 42 -154 113c0 36 30 66 66 66s65 -30 65 -66c0 -25 -40 -28 -40 -53c0 -27 32 -37 63 -37c49 0 63 61 63 117v16c0 54 -2 94 -50 94h-80c-10 0 -14 8 -14 15s4 14 14 14h80c49 0 50 43 50 99v8c0 54 -18 91 -67 91z" fill="currentColor"/>
<path transform="translate(13.5358, 8.7761) scale(0.0040, -0.0040)" d="M204 307c22 14 44 29 60 50c11 15 19 33 27 50c2 4 5 6 9 6c6 0 13 -5 13 -14v-245h72c10 0 15 -7 15 -14s-5 -15 -15 -15h-72v-8c0 -48 27 -94 72 -94c8 0 12 -5 12 -11s-4 -12 -12 -12c-44 0 -87 13 -131 13s-87 -13 -131 -13c-8 0 -12 6 -12 12s4 11 12 11
c45 0 73 46 73 94v8h-167c-23 0 -31 14 -31 23c0 3 1 5 2 6c80 93 138 207 138 330c0 9 6 16 13 16h3c23 -7 47 -13 71 -13s48 6 71 13c2 1 3 1 5 1c11 0 18 -10 12 -17l-284 -330h167v131c0 8 1 17 8 22z" fill="currentColor"/>
</g>
<g class="clef">
<path transform="translate(9.3358, 7.7275) scale(0.0040, -0.0040)" d="M376 262c4 0 9 1 13 1c155 0 256 -128 256 -261c0 -76 -33 -154 -107 -210c-22 -17 -47 -28 -73 -36c3 -35 5 -70 5 -105c0 -19 -1 -39 -2 -58c-7 -120 -90 -228 -208 -228c-108 0 -195 88 -195 197c0 58 53 103 112 103c54 0 95 -47 95 -103c0 -52 -43 -95 -95 -95
c-11 0 -21 2 -31 6c26 -39 68 -65 117 -65c96 0 157 92 163 191c1 18 2 37 2 55c0 31 -1 61 -4 92c-29 -5 -58 -8 -89 -8c-188 0 -333 172 -333 374c0 177 131 306 248 441c-19 62 -37 125 -45 190c-6 52 -7 104 -7 156c0 115 55 224 149 292c3 2 7 3 10 3c4 0 7 0 10 -3
c71 -84 133 -245 133 -358c0 -143 -86 -255 -180 -364c21 -68 39 -138 56 -207zM461 -203c68 24 113 95 113 164c0 90 -66 179 -173 190c24 -116 46 -231 60 -354zM74 28c0 -135 129 -247 264 -247c28 0 55 2 82 6c-14 127 -37 245 -63 364c-79 -8 -124 -61 -124 -119
c0 -44 25 -91 81 -123c5 -5 7 -10 7 -15c0 -11 -10 -22 -22 -22c-3 0 -6 1 -9 2c-80 43 -117 115 -117 185c0 88 58 174 160 197c-14 58 -29 117 -46 175c-107 -121 -213 -243 -213 -403zM408 1045c-99 -48 -162 -149 -162 -259c0 -74 18 -133 36 -194
c80 97 146 198 146 324c0 55 -4 79 -20 129z" fill="currentColor"/>
</g>
<g class="note" id="n1">
<path transform="translate(17.1406, 1.2275) scale(0.0040, -0.0040)" d="M218 136c55 0 108 -28 108 -89c0 -71 -55 -121 -102 -149c-35 -21 -75 -34 -116 -34c-55 0 -108 28 -108 89c0 71 55 121 102 149c35 21 75 34 116 34z" fill="currentColor"/>
</g>
<rect transform="translate(8.4758, 11.6718)" x="0.0000" y="-6.9943" width="0.1600" height="13.9887" ry="0.0500" fill="currentColor"/>
<path transform="translate(8.1758, 11.6718) scale(0.0040, -0.0040)" d="M-15 -528c0 -279 -108 -552 -108 -816c0 -144 33 -276 135 -384c3 -3 6 -6 6 -9c0 -9 -9 -18 -18 -18c-3 0 -9 3 -12 6c-138 144 -186 330 -186 528c0 285 114 564 114 834c0 141 -30 273 -132 378c-3 3 -3 6 -3 9s0 6 3 9c102 105 132 237 132 378
c0 270 -114 549 -114 834c0 198 48 384 186 528c3 3 9 6 12 6c9 0 18 -9 18 -18c0 -3 -3 -6 -6 -9c-102 -108 -135 -240 -135 -384c0 -264 108 -537 108 -816c0 -195 -48 -384 -180 -528c132 -144 180 -333 180 -528z" fill="currentColor"/>
<path transform="translate(18.9264, 1.7275) scale(0.0040, -0.0040)" d="M216 -312c0 -10 -8 -19 -18 -19s-19 9 -19 19v145l-83 -31v-158c0 -10 -9 -19 -19 -19s-18 9 -18 19v145l-32 -12c-2 -1 -5 -1 -7 -1c-11 0 -20 9 -20 20v60c0 8 5 16 13 19l46 16v160l-32 -11c-2 -1 -5 -1 -7 -1c-11 0 -20 9 -20 20v60c0 8 5 15 13 18l46 17v158
c0 10 8 19 18 19s19 -9 19 -19v-145l83 31v158c0 10 9 19 19 19s18 -9 18 -19v-145l32 12c2 1 5 1 7 1c11 0 20 -9 20 -20v-60c0 -8 -5 -16 -13 -19l-46 -16v-160l32 11c2 1 5 1 7 1c11 0 20 -9 20 -20v-60c0 -8 -5 -15 -13 -18l-46 -17v-158zM96 65v-160l83 30v160z" fill="currentColor"/>
<rect transform="translate(20.4414, 6.7275)" x="-0.0650" y="-4.8139" width="0.1300" height="4.6568" ry="0.0400" fill="currentColor"/>
<g class="note" id="n2">
<path transform="translate(20.3764, 1.7275) scale(0.0040, -0.0040)" d="M218 136c55 0 108 -28 108 -89c0 -71 -55 -121 -102 -149c-35 -21 -75 -34 -116 -34c-55 0 -108 28 -108 89c0 71 55 121 102 149c35 21 75 34 116 34z" fill="currentColor"/>
</g>
<rect transform="translate(17.2056, 16.6161)" x="-0.0650" y="1.6861" width="0.1300" height="2.3123" ry="0.0400" fill="currentColor"/>
<g class="note" id="n12">
<path transform="translate(50.1291, 6.2275) scale(0.0040, -0.0040)" d="M218 136c55 0 108 -28 108 -89c0 -71 -55 -121 -102 -149c-35 -21 -75 -34 -116 -34c-55 0 -108 28 -108 89c0 71 55 121 102 149c35 21 75 34 116 34z" fill="currentColor"/>
</g>
<rect transform="translate(52.0275, 16.6161)" x="-0.0650" y="-2.3139" width="0.1300" height="5.4423" ry="0.0400" fill="currentColor"/>
<g class="note" id="n26">
<path transform="translate(51.9625, 14.1161) scale(0.0040, -0.0040)" d="M218 136c55 0 108 -28 108 -89c0 -71 -55 -121 -102 -149c-35 -21 -75 -34 -116 -34c-55 0 -108 28 -108 89c0 71 55 121 102 149c35 21 75 34 116 34z" fill="currentColor"/>
</g>
<path transform="translate(48.7314, 6.2275) scale(0.0040, -0.0040)" d="M152 0c23 -23 56 -28 89 -28c6 0 10 -4 10 -10l9 -87c1 -5 -4 -10 -9 -10h-1l-87 9c-5 1 -10 5 -10 10c0 33 -5 66 -28 89c-23 -23 -28 -56 -28 -89c0 -5 -4 -9 -9 -10l-88 -9h-1c-5 0 -10 5 -9 10l9 87c0 6 4 10 10 10c33 0 66 5 89 28c-23 23 -56 28 -89 28
c-6 0 -10 4 -10 10l-9 87c-1 5 4 10 9 10h1l88 -9c5 -1 9 -5 9 -10c0 -33 5 -66 28 -89c23 23 28 56 28 89c0 5 5 9 10 10l87 9h1c5 0 10 -5 9 -10l-9 -87c0 -6 -4 -10 -10 -10c-33 0 -66 -5 -89 -28z" fill="currentColor"/>
<rect transform="translate(50.1941, 6.7275)" x="-0.0650" y="-0.3139" width="0.1300" height="4.6438" ry="0.0400" fill="currentColor"/>
<g class="note" id="n8">
<path transform="translate(39.3329, 4.2275) scale(0.0040, -0.0040)" d="M218 136c55 0 108 -28 108 -89c0 -71 -55 -121 -102 -149c-35 -21 -75 -34 -116 -34c-55 0 -108 28 -108 89c0 71 55 121 102 149c35 21 75 34 116 34z" fill="currentColor"/>
</g>
<rect transform="translate(47.0921, 6.7275)" x="-0.0650" y="-0.8139" width="0.1300" height="4.9068" ry="0.0400" fill="currentColor"/>
<g class="note" id="n11">
<path transform="translate(47.0271, 5.7275) scale(0.0040, -0.0040)" d="M218 136c55 0 108 -28 108 -89c0 -71 -55 -121 -102 -149c-35 -21 -75 -34 -116 -34c-55 0 -108 28 -108 89c0 71 55 121 102 149c35 21 75 34 116 34z" fill="currentColor"/>
</g>
<path transform="translate(43.3071, 5.2275) scale(0.0040, -0.0040)" d="M216 -312c0 -10 -8 -19 -18 -19s-19 9 -19 19v145l-83 -31v-158c0 -10 -9 -19 -19 -19s-18 9 -18 19v145l-32 -12c-2 -1 -5 -1 -7 -1c-11 0 -20 9 -20 20v60c0 8 5 16 13 19l46 16v160l-32 -11c-2 -1 -5 -1 -7 -1c-11 0 -20 9 -20 20v60c0 8 5 15 13 18l46 17v158
c0 10 8 19 18 19s19 -9 19 -19v-145l83 31v158c0 10 9 19 19 19s18 -9 18 -19v-145l32 12c2 1 5 1 7 1c11 0 20 -9 20 -20v-60c0 -8 -5 -16 -13 -19l-46 -16v-160l32 11c2 1 5 1 7 1c11 0 20 -9 20 -20v-60c0 -8 -5 -15 -13 -18l-46 -17v-158zM96 65v-160l83 30v160z" fill="currentColor"/>
<rect transform="translate(59.1352, 6.7275)" x="-0.0650" y="-0.3139" width="0.1300" height="5.3270" ry="0.0400" fill="currentColor"/>
<g class="note" id="n15">
<path transform="translate(59.0702, 6.2275) scale(0.0040, -0.0040)" d="M218 136c55 0 108 -28 108 -89c0 -71 -55 -121 -102 -149c-35 -21 -75 -34 -116 -34c-55 0 -108 28 -108 89c0 71 55 121 102 149c35 21 75 34 116 34z" fill="currentColor"/>
</g>
<rect transform="translate(55.2143, 6.7275)" x="-0.0650" y="-0.8139" width="0.1300" height="5.5274" ry="0.0400" fill="currentColor"/>
<g class="note" id="n14">
<path transform="translate(55.1493, 5.7275) scale(0.0040, -0.0040)" d="M218 136c55 0 108 -28 108 -89c0 -71 -55 -121 -102 -149c-35 -21 -75 -34 -116 -34c-55 0 -108 28 -108 89c0 71 55 121 102 149c35 21 75 34 116 34z" fill="currentColor"/>
</g>
<path transform="translate(51.8333, 5.2275) scale(0.0040, -0.0040)" d="M-8 375c8 4 17 7 26 7s16 -3 24 -7l-2 -183l106 20h3c10 0 18 -7 18 -17l7 -570c-8 -4 -16 -7 -25 -7s-17 3 -25 7l3 183l-106 -20h-3c-10 0 -18 7 -18 17zM131 112l-92 -17l-3 -207l92 17z" fill="currentColor"/>
<rect transform="translate(52.9443, 6.7275)" x="-0.0650" y="-1.3139" width="0.1300" height="5.8540" ry="0.0400" fill="currentColor"/>
<g class="note" id="n13">
<path transform="translate(52.8793, 5.2275) scale(0.0040, -0.0040)" d="M218 136c55 0 108 -28 108 -89c0 -71 -55 -121 -102 -149c-35 -21 -75 -34 -116 -34c-55 0 -108 28 -108 89c0 71 55 121 102 149c35 21 75 34 116 34z" fill="currentColor"/>
</g>
<rect transform="translate(41.6679, 6.7275)" x="-0.0650" y="-1.8139" width="0.1300" height="5.4923" ry="0.0400" fill="currentColor"/>
<g class="note" id="n9">
<path transform="translate(41.6029, 4.7275) scale(0.0040, -0.0040)" d="M218 136c55 0 108 -28 108 -89c0 -71 -55 -121 -102 -149c-35 -21 -75 -34 -116 -34c-55 0 -108 28 -108 89c0 71 55 121 102 149c35 21 75 34 116 34z" fill="currentColor"/>
</g>
<path transform="translate(37.8829, 15.1161) scale(0.0040, -0.0040)" d="M216 -312c0 -10 -8 -19 -18 -19s-19 9 -19 19v145l-83 -31v-158c0 -10 -9 -19 -19 -19s-18 9 -18 19v145l-32 -12c-2 -1 -5 -1 -7 -1c-11 0 -20 9 -20 20v60c0 8 5 16 13 19l46 16v160l-32 -11c-2 -1 -5 -1 -7 -1c-11 0 -20 9 -20 20v60c0 8 5 15 13 18l46 17v158
c0 10 8 19 18 19s19 -9 19 -19v-145l83 31v158c0 10 9 19 19 19s18 -9 18 -19v-145l32 12c2 1 5 1 7 1c11 0 20 -9 20 -20v-60c0 -8 -5 -16 -13 -19l-46 -16v-160l32 11c2 1 5 1 7 1c11 0 20 -9 20 -20v-60c0 -8 -5 -15 -13 -18l-46 -17v-158zM96 65v-160l83 30v160z" fill="currentColor"/>
<rect transform="translate(39.3979, 16.6161)" x="-0.0650" y="-1.3139" width="0.1300" height="4.7579" ry="0.0400" fill="currentColor"/>
<path transform="translate(37.9352, 4.2275) scale(0.0040, -0.0040)" d="M152 0c23 -23 56 -28 89 -28c6 0 10 -4 10 -10l9 -87c1 -5 -4 -10 -9 -10h-1l-87 9c-5 1 -10 5 -10 10c0 33 -5 66 -28 89c-23 -23 -28 -56 -28 -89c0 -5 -4 -9 -9 -10l-88 -9h-1c-5 0 -10 5 -9 10l9 87c0 6 4 10 10 10c33 0 66 5 89 28c-23 23 -56 28 -89 28
c-6 0 -10 4 -10 10l-9 87c-1 5 4 10 9 10h1l88 -9c5 -1 9 -5 9 -10c0 -33 5 -66 28 -89c23 23 28 56 28 89c0 5 5 9 10 10l87 9h1c5 0 10 -5 9 -10l-9 -87c0 -6 -4 -10 -10 -10c-33 0 -66 -5 -89 -28z" fill="currentColor"/>
<rect transform="translate(39.3979, 6.7275)" x="-0.0650" y="-2.3139" width="0.1300" height="5.8189" ry="0.0400" fill="currentColor"/>
<g class="note" id="n25">
<path transform="translate(39.3329, 15.1161) scale(0.0040, -0.0040)" d="M218 136c55 0 108 -28 108 -89c0 -71 -55 -121 -102 -149c-35 -21 -75 -34 -116 -34c-55 0 -108 28 -108 89c0 71 55 121 102 149c35 21 75 34 116 34z" fill="currentColor"/>
</g>
<rect transform="translate(44.8221, 6.7275)" x="-0.0650" y="-1.3139" width="0.1300" height="5.2333" ry="0.0400" fill="currentColor"/>
<g class="note" id="n10">
<path transform="translate(44.7571, 5.2275) scale(0.0040, -0.0040)" d="M218 136c55 0 108 -28 108 -89c0 -71 -55 -121 -102 -149c-35 -21 -75 -34 -116 -34c-55 0 -108 28 -108 89c0 71 55 121 102 149c35 21 75 34 116 34z" fill="currentColor"/>
</g>
</svg>
