<svg xmlns="http://www.w3.org/2000/svg" xmlns:xlink="http://www.w3.org/1999/xlink" version="1.2" width="34.05mm" height="13.72mm" viewBox="8.5358 -0.0014 19.3751 7.8074">
<style text="style/css">
<![CDATA[
tspan { white-space: pre; }
]]>
</style>
<line transform="translate(8.5358, 6.2560)" stroke-linejoin="round" stroke-linecap="round" stroke-width="0.1000" stroke="currentColor" x1="0.0500" y1="-0.0000" x2="19.3751" y2="-0.0000"/>
<line transform="translate(8.5358, 5.2560)" stroke-linejoin="round" stroke-linecap="round" stroke-width="0.1000" stroke="currentColor" x1="0.0500" y1="-0.0000" x2="19.3751" y2="-0.0000"/>
<line transform="translate(8.5358, 4.2560)" stroke-linejoin="round" stroke-linecap="round" stroke-width="0.1000" stroke="currentColor" x1="0.0500" y1="-0.0000" x2="19.3751" y2="-0.0000"/>
<line transform="translate(8.5358, 3.2560)" stroke-linejoin="round" stroke-linecap="round" stroke-width="0.1000" stroke="currentColor" x1="0.0500" y1="-0.0000" x2="19.3751" y2="-0.0000"/>
<line transform="translate(8.5358, 2.2560)" stroke-linejoin="round" stroke-linecap="round" stroke-width="0.1000" stroke="currentColor" x1="0.0500" y1="-0.0000" x2="19.3751" y2="-0.0000"/>
<g class="note" id="note-02">
<path transform="translate(19.2581, 2.2560) scale(0.0040, -0.0040)" d="M218 136c55 0 108 -28 108 -89c0 -71 -55 -121 -102 -149c-35 -21 -75 -34 -116 -34c-55 0 -108 28 -108 89c0 71 55 121 102 149c35 21 75 34 116 34z" fill="currentColor"/>
</g>
<rect transform="translate(19.3231, 4.2560)" x="-0.0650" y="-1.8139" width="0.1300" height="3.3139" ry="0.0400" fill="currentColor"/>
<g class="note" id="note-03">
<path transform="translate(21.9564, 4.7560) scale(0.0040, -0.0040)" d="M218 136c55 0 108 -28 108 -89c0 -71 -55 -121 -102 -149c-35 -21 -75 -34 -116 -34c-55 0 -108 28 -108 89c0 71 55 121 102 149c35 21 75 34 116 34z" fill="currentColor"/>
</g>
<g class="turn">
<path transform="translate(22.6085, 0.5280) scale(0.0040, -0.0040)" d="M139 132c74 0 134 -58 134 -132c0 -70 -47 -132 -114 -132c-35 0 -68 21 -68 53c0 35 28 53 54 53c20 0 39 -10 48 -31c27 4 50 26 50 57s-28 54 -61 54c-64 0 -110 -53 -157 -97s-99 -89 -164 -89c-74 0 -134 58 -134 132c0 70 47 132 114 132c35 0 68 -21 68 -53
c0 -35 -28 -53 -54 -53c-20 0 -39 10 -48 31c-27 -4 -50 -26 -50 -57s28 -54 61 -54c64 0 110 53 157 97s99 89 164 89z" fill="currentColor"/>
</g>
<rect transform="translate(23.1956, 4.2560)" x="-0.0650" y="-3.0000" width="0.1300" height="3.3139" ry="0.0400" fill="currentColor"/>
<g class="note" id="note-04">
<path transform="translate(24.9586, 5.2560) scale(0.0040, -0.0040)" d="M218 136c55 0 108 -28 108 -89c0 -71 -55 -121 -102 -149c-35 -21 -75 -34 -116 -34c-55 0 -108 28 -108 89c0 71 55 121 102 149c35 21 75 34 116 34z" fill="currentColor"/>
</g>
<rect transform="translate(26.1979, 4.2560)" x="-0.0650" y="-2.5000" width="0.1300" height="3.3139" ry="0.0400" fill="currentColor"/>
<g class="note" id="note-01">
<path transform="translate(16.2558, 2.7560) scale(0.0040, -0.0040)" d="M218 136c55 0 108 -28 108 -89c0 -71 -55 -121 -102 -149c-35 -21 -75 -34 -116 -34c-55 0 -108 28 -108 89c0 71 55 121 102 149c35 21 75 34 116 34z" fill="currentColor"/>
</g>
<g class="turn">
<path transform="translate(16.9079, 1.4780) scale(0.0040, -0.0040)" d="M139 -132c-65 0 -117 45 -164 89s-93 97 -157 97c-33 0 -61 -23 -61 -54s23 -53 50 -57c9 21 28 31 48 31c26 0 54 -18 54 -53c0 -32 -33 -53 -68 -53c-67 0 -114 62 -114 132c0 74 60 132 134 132c65 0 117 -45 164 -89s93 -97 157 -97c33 0 61 23 61 54s-23 53 -50 57
c-9 -21 -28 -31 -48 -31c-26 0 -54 18 -54 53c0 32 33 53 68 53c67 0 114 -62 114 -132c0 -74 -60 -132 -134 -132z" fill="currentColor"/>
</g>
<g class="clef">
<path transform="translate(9.3358, 5.2560) scale(0.0040, -0.0040)" d="M376 262c4 0 9 1 13 1c155 0 256 -128 256 -261c0 -76 -33 -154 -107 -210c-22 -17 -47 -28 -73 -36c3 -35 5 -70 5 -105c0 -19 -1 -39 -2 -58c-7 -120 -90 -228 -208 -228c-108 0 -195 88 -195 197c0 58 53 103 112 103c54 0 95 -47 95 -103c0 -52 -43 -95 -95 -95
c-11 0 -21 2 -31 6c26 -39 68 -65 117 -65c96 0 157 92 163 191c1 18 2 37 2 55c0 31 -1 61 -4 92c-29 -5 -58 -8 -89 -8c-188 0 -333 172 -333 374c0 177 131 306 248 441c-19 62 -37 125 -45 190c-6 52 -7 104 -7 156c0 115 55 224 149 292c3 2 7 3 10 3c4 0 7 0 10 -3
c71 -84 133 -245 133 -358c0 -143 -86 -255 -180 -364c21 -68 39 -138 56 -207zM461 -203c68 24 113 95 113 164c0 90 -66 179 -173 190c24 -116 46 -231 60 -354zM74 28c0 -135 129 -247 264 -247c28 0 55 2 82 6c-14 127 -37 245 -63 364c-79 -8 -124 -61 -124 -119
c0 -44 25 -91 81 -123c5 -5 7 -10 7 -15c0 -11 -10 -22 -22 -22c-3 0 -6 1 -9 2c-80 43 -117 115 -117 185c0 88 58 174 160 197c-14 58 -29 117 -46 175c-107 -121 -213 -243 -213 -403zM408 1045c-99 -48 -162 -149 -162 -259c0 -74 18 -133 36 -194
c80 97 146 198 146 324c0 55 -4 79 -20 129z" fill="currentColor"/>
</g>
<g class="keySig">
<path transform="translate(12.9558, 4.2560) scale(0.0040, -0.0040)" d="M27 41l-1 -66v-11c0 -22 1 -44 4 -66c45 38 93 80 93 139c0 33 -14 67 -43 67c-31 0 -52 -30 -53 -63zM-15 -138l-12 595c8 5 18 8 27 8s19 -3 27 -8l-7 -345c25 21 58 34 91 34c52 0 89 -48 89 -102c0 -80 -86 -117 -147 -169c-15 -13 -24 -38 -45 -38
c-13 0 -23 11 -23 25z" fill="currentColor"/>
</g>
<rect transform="translate(16.3208, 4.2560)" x="-0.0650" y="-1.3139" width="0.1300" height="3.3139" ry="0.0400" fill="currentColor"/>
</svg>
